SplineFontDB: 3.0
FontName: AbhayaLibre-ExtraBold
FullName: AbhayaLibre
FamilyName: AbhayaLibre
OS2FamilyName: "AbhayaLibre"
OS2StyleName: "regular"
Weight: ExtraBold
Copyright: Copyright (c) 1997-2015 Pushpananda Ekanayake (http://isiwara.lk), Copyright (c) 2015 mooniak (http://mooniak.com)\n
UComments: "2015-2-15: Created with FontForge (http://fontforge.org) The  Free Font Editor"
Version: 1.0
ItalicAngle: 0
UnderlinePosition: -102
UnderlineWidth: 51
Ascent: 819
Descent: 205
InvalidEm: 0
UFOAscent: 819
UFODescent: -205
LayerCount: 2
Layer: 0 0 "Back" 1
Layer: 1 0 "Fore" 0
FSType: 0
OS2Version: 0
OS2_WeightWidthSlopeOnly: 0
OS2_UseTypoMetrics: 0
CreationTime: 1440051463
ModificationTime: 1441135333
PfmFamily: 16
TTFWeight: 400
TTFWidth: 5
LineGap: 94
VLineGap: 0
OS2TypoAscent: 819
OS2TypoAOffset: 0
OS2TypoDescent: -205
OS2TypoDOffset: 0
OS2TypoLinegap: 94
OS2WinAscent: 918
OS2WinAOffset: 0
OS2WinDescent: 205
OS2WinDOffset: 0
HheadAscent: 918
HheadAOffset: 0
HheadDescent: -205
HheadDOffset: 0
OS2CapHeight: 0
OS2XHeight: 0
OS2Vendor: 'PfEd'
OS2UnicodeRanges: 00000002.00000000.00000000.00000000
Lookup: 1 0 0 "Abhaya Libre Latin-Regular-'sups' Superscript lookup 0" { "Abhaya Libre Latin-Regular-'sups' Superscript lookup 0 subtable"  } ['sups' ('DFLT' <'dflt' > ) ]
Lookup: 4 0 0 "Abhaya Libre Latin-Regular-'frac' Diagonal Fractions lookup 1" { "Abhaya Libre Latin-Regular-'frac' Diagonal Fractions lookup 1 subtable"  } ['frac' ('DFLT' <'dflt' > ) ]
Lookup: 6 0 0 "Abhaya Libre Latin-Regular-'ordn' Ordinals lookup 2" { "Abhaya Libre Latin-Regular-'ordn' Ordinals lookup 2 contextual 0"  "Abhaya Libre Latin-Regular-'ordn' Ordinals lookup 2 contextual 1"  } ['ordn' ('DFLT' <'dflt' > ) ]
Lookup: 1 0 0 "Abhaya Libre Latin-Regular-Single Substitution lookup 3" { "Abhaya Libre Latin-Regular-Single Substitution lookup 3 subtable"  } []

StartChar: si_JnyAe
Encoding: 184 -1 1
GlifName: N_ameM_e.560
Width: 839
VWidth: 0
GlyphClass: 2
Flags: HW
LayerCount: 2
Back
Fore
SplineSet
421 169 m 260
 421 274 494 317 613 317 c 258
 730.25 317 l 257
 720.526 363.186 690.515 390 658 390 c 256
 639 390 624.549 378.911 616 361 c 256
 605.5 339 588.579 333 568.75 333 c 256
 543.75 333 526 349.75 526 370.75 c 256
 526 407.033 567 433 622 433 c 256
 707.739 433 751.74 388.542 769 291 c 257
 707.25 291 l 258
 619.25 291 574.25 257 574.25 173 c 256
 574.25 89 625.989 44 675.5 44 c 256
 705.849 44 730.75 48.25 770.75 94.25 c 257
 797 75 l 257
 781.728 47.75 775 5.1582 775 -60 c 256
 775 -127.798 798.945 -199.25 822 -199.25 c 257
 822 -228.5 l 257
 819.328 -229.383 814.947 -229.75 811 -229.75 c 256
 754.651 -229.75 698.5 -178.438 698.5 -105 c 256
 698.5 -50.1621 718.786 -10.3389 734 21 c 257
 705.873 4.47461 667 -54.2383 667 -108 c 256
 667 -157.651 678.825 -194.085 705 -201 c 257
 705 -228.25 l 257
 701.208 -229.427 690.885 -230.25 686 -230.25 c 256
 623.773 -230.25 576 -197.724 576 -132 c 256
 576 -78.6523 614.958 -41.1084 662 1 c 257
 654.071 -0.615234 651.333 -1 624 -1 c 256
 493 -1 421 69 421 169 c 260
674 426 m 257
 553 408.5 l 257
 547.395 408.655 545.467 408.75 539.75 408.75 c 256
 442.528 408.75 370.746 347.596 349.75 240.75 c 257
 357.75 244.75 363.333 245.75 370 245.75 c 256
 418 245.75 452 202 452 136 c 256
 452 56 395 -2 308 -2 c 256
 197 -2 134 96 134 207 c 256
 134 330 209 431.5 320 431.5 c 256
 323.953 431.5 328.954 431.25 333 431 c 257
 333 405.5 l 257
 329.645 405.784 325.311 405.95 322 405.95 c 256
 236 405.95 187.75 327.458 187.75 258.25 c 256
 187.75 202.544 227.27 140 308 140 c 256
 367 140 394 160.486 394 190.5 c 256
 394 201.482 388.872 219.75 367 219.75 c 256
 359.667 219.75 350.75 216.75 345.75 212.75 c 257
 344.75 206.75 343.5 197.333 343.5 194 c 257
 314.5 194 l 257
 328.178 354.298 406.221 438 560 438 c 256
 591 438 640.988 436.425 674 426 c 257
326 431.25 m 257
 305 420.25 253.84 413.676 238.25 405.5 c 257
 135.583 405.5 59 347.259 59 218 c 256
 59 137.333 86 78 135 34 c 257
 135 0 l 257
 68.5828 33.2086 27 120.07 27 221 c 256
 27 352.7 99.7562 433 239 433 c 256
 248 433 299.296 432.309 326 431.25 c 257
EndSplineSet
EndChar

StartChar: si_JnyAee
Encoding: 185 -1 2
GlifName: N_ameM_e.561
Width: 839
VWidth: 0
GlyphClass: 2
Flags: HW
LayerCount: 2
Back
Fore
SplineSet
420.75 169 m 260
 420.75 274 493.75 317 612.75 317 c 258
 730 317 l 257
 720.276 363.186 690.265 390 657.75 390 c 256
 638.75 390 624.299 378.911 615.75 361 c 256
 605.25 339 588.329 333 568.5 333 c 256
 543.5 333 525.75 349.75 525.75 370.75 c 256
 525.75 407.033 566.75 433 621.75 433 c 256
 707.489 433 751.49 388.542 768.75 291 c 257
 707 291 l 258
 619 291 574 257 574 173 c 256
 574 89 625.739 44 675.25 44 c 256
 705.599 44 730.5 48.25 770.5 94.25 c 257
 796.75 75 l 257
 796.48 67.5654 746.75 30.75 746.75 30.75 c 257
 815.75 30.75 l 257
 815.75 4.75 l 257
 753.5 -36 l 257
 813.75 -36 l 257
 813.75 -61.75 l 257
 801.354 -74.9141 783.25 -92.0703 783.25 -136 c 256
 783.25 -176.404 804.982 -200 821.75 -200 c 257
 821.75 -228.5 l 257
 819.078 -229.383 814.697 -229.75 810.75 -229.75 c 256
 754.401 -229.75 698.75 -189.072 698.75 -144 c 256
 698.75 -104.948 726.844 -75.0098 757.75 -61.25 c 257
 757.493 -61.5586 701.75 -61.75 701.75 -61.75 c 257
 701.75 -40 l 257
 725.191 -25.7754 747.179 -9.8457 771.25 3.75 c 257
 769.147 3.75 715.75 4 715.75 4 c 257
 698.69 -10.3359 666.75 -54.2383 666.75 -108 c 256
 666.75 -157.651 686.454 -193.58 704.75 -201 c 257
 704.75 -228.25 l 257
 700.958 -229.427 690.635 -230.25 685.75 -230.25 c 256
 623.523 -230.25 575.75 -197.724 575.75 -132 c 256
 575.75 -78.6523 614.708 -41.1084 661.75 1 c 257
 653.821 -0.615234 651.083 -1 623.75 -1 c 256
 492.75 -1 420.75 69 420.75 169 c 260
674 426 m 257
 553 408.5 l 257
 547.395 408.655 545.467 408.75 539.75 408.75 c 256
 442.528 408.75 370.746 347.596 349.75 240.75 c 257
 357.75 244.75 363.333 245.75 370 245.75 c 256
 418 245.75 452 202 452 136 c 256
 452 56 395 -2 308 -2 c 256
 197 -2 134 96 134 207 c 256
 134 330 209 431.5 320 431.5 c 256
 323.953 431.5 328.954 431.25 333 431 c 257
 333 405.5 l 257
 329.645 405.784 325.311 405.95 322 405.95 c 256
 236 405.95 187.75 327.458 187.75 258.25 c 256
 187.75 202.544 227.27 140 308 140 c 256
 367 140 394 160.486 394 190.5 c 256
 394 201.482 388.872 219.75 367 219.75 c 256
 359.667 219.75 350.75 216.75 345.75 212.75 c 257
 344.75 206.75 343.5 197.333 343.5 194 c 257
 314.5 194 l 257
 328.178 354.298 406.221 438 560 438 c 256
 591 438 640.988 436.425 674 426 c 257
326 431.25 m 257
 305 420.25 253.84 413.676 238.25 405.5 c 257
 135.583 405.5 59 347.259 59 218 c 256
 59 137.333 86 78 135 34 c 257
 135 0 l 257
 68.5828 33.2086 27 120.07 27 221 c 256
 27 352.7 99.7562 433 239 433 c 256
 248 433 299.296 432.309 326 431.25 c 257
EndSplineSet
EndChar

StartChar: si_NyAe
Encoding: 172 -1 3
GlifName: N_ameM_e.564
Width: 1018
VWidth: 0
GlyphClass: 2
Flags: HW
LayerCount: 2
Back
Fore
SplineSet
602.75 169 m 260
 602.75 274 675.75 317 794.75 317 c 258
 912 317 l 257
 902.276 363.186 850.015 390 817.5 390 c 256
 798.5 390 784.049 378.911 775.5 361 c 256
 765 339 748.079 333 728.25 333 c 256
 703.25 333 685.5 349.75 685.5 370.75 c 256
 685.5 407.033 726.5 433 781.5 433 c 256
 867.239 433 933.49 388.542 950.75 291 c 257
 889 291 l 258
 801 291 756 257 756 173 c 256
 756 89 807.739 44 857.25 44 c 256
 887.599 44 912.5 48.25 952.5 94.25 c 257
 978.75 75 l 257
 963.478 47.75 956.75 5.1582 956.75 -60 c 256
 956.75 -127.798 980.695 -199.25 1003.75 -199.25 c 257
 1003.75 -228.5 l 257
 1001.08 -229.383 996.697 -229.75 992.75 -229.75 c 256
 936.401 -229.75 880.25 -178.438 880.25 -105 c 256
 880.25 -50.1621 900.536 -10.3389 915.75 21 c 257
 887.623 4.47461 848.75 -54.2383 848.75 -108 c 256
 848.75 -157.651 860.575 -194.085 886.75 -201 c 257
 886.75 -228.25 l 257
 882.958 -229.427 872.635 -230.25 867.75 -230.25 c 256
 805.523 -230.25 757.75 -197.724 757.75 -132 c 256
 757.75 -78.6523 796.708 -41.1084 843.75 1 c 257
 835.821 -0.615234 833.083 -1 805.75 -1 c 256
 674.75 -1 602.75 69 602.75 169 c 260
305 268 m 257
 287.667 253.333 271.522 234.996 256 212 c 256
 229 172 226 163 216 143 c 257
 228 153 240 160 254 160 c 256
 286 160 297 140 337 140 c 256
 383 140 405 157 405 214 c 256
 405 216.209 405.041 214.305 405 216 c 257
 433 216 l 257
 432.964 214.664 433 216.33 433 215 c 256
 433 154 457 140 502 140 c 256
 543 140 568 169 568 204 c 256
 568 246 527 287 426 287 c 256
 369.333 287 329.667 280 305 268 c 257
146 22 m 257
 153.696 91.2695 199.452 184.165 234 232 c 256
 260 268 273 280 296 304 c 257
 305 314 316.25 331 316.25 352 c 256
 316.25 371 307 386 283 386 c 256
 269 386 253.438 378.533 249 363 c 256
 243 342 247 342 238 323 c 256
 229.732 305.546 212 297 197 297 c 256
 160 297 154 328 154 340 c 256
 154 394.099 204.363 433 261 433 c 256
 313.348 433 345 399 345 358 c 256
 345 352 345 349 344 341 c 257
 380.113 368.975 427.488 396.378 492 417 c 256
 558.129 438.139 632.859 442 676.25 442 c 256
 761.635 442 805.122 432.737 827 427 c 257
 819.517 426.319 734.508 410.876 722 410 c 257
 706.982 410.563 686.476 412 674 412 c 256
 615.313 412 564.896 403.343 536.5 397 c 256
 449.891 377.654 387.161 337.115 345.25 306.25 c 257
 373.415 312.696 402.667 314 430 314 c 256
 550 314 640 250 640 126 c 256
 640 67.8477 607 -1 522 -1 c 256
 476 -1 442.333 20.333 421 63 c 257
 403.667 21.667 371.021 -1 329 -1 c 256
 242 -1 245 73 212 73 c 256
 189.675 73 177 51 174 11 c 257
 146 22 l 257
27 221 m 256
 27 352.7 99.7559 434.25 239 434.25 c 256
 248 434.25 271 434.25 293 428.25 c 257
 272 417.25 195 404.5 178 398.5 c 257
 106 381.5 59 319.268 59 218 c 256
 59 137.333 86 78 135 34 c 257
 135 0 l 257
 68.5828 33.2086 27 120.07 27 221 c 256
EndSplineSet
EndChar

StartChar: si_NyAee
Encoding: 173 -1 4
GlifName: N_ameM_e.565
Width: 1018
VWidth: 0
GlyphClass: 2
Flags: HW
LayerCount: 2
Back
Fore
SplineSet
602.75 169 m 256
 602.75 274 675.75 317 794.75 317 c 258
 912 317 l 257
 902.276 363.186 850.265 390 817.75 390 c 256
 798.75 390 784.299 378.911 775.75 361 c 256
 765.25 339 748.329 333 728.5 333 c 256
 703.5 333 685.75 349.75 685.75 370.75 c 256
 685.75 407.033 726.75 433 781.75 433 c 256
 867.489 433 933.49 388.542 950.75 291 c 257
 889 291 l 258
 801 291 756 257 756 173 c 256
 756 89 807.739 44 857.25 44 c 256
 887.599 44 912.5 48.25 952.5 94.25 c 257
 978.75 75 l 257
 978.48 67.5654 928.75 30.75 928.75 30.75 c 257
 997.75 30.75 l 257
 997.75 4.75 l 257
 935.5 -36 l 257
 995.75 -36 l 257
 995.75 -61.75 l 257
 983.354 -74.9141 965.25 -92.0703 965.25 -136 c 256
 965.25 -176.404 986.982 -200 1003.75 -200 c 257
 1003.75 -228.5 l 257
 1001.08 -229.383 996.697 -229.75 992.75 -229.75 c 256
 936.401 -229.75 880.75 -189.072 880.75 -144 c 256
 880.75 -104.948 908.844 -75.0098 939.75 -61.25 c 257
 939.493 -61.5586 883.75 -61.75 883.75 -61.75 c 257
 883.75 -40 l 257
 907.191 -25.7754 929.179 -9.8457 953.25 3.75 c 257
 951.147 3.75 897.75 4 897.75 4 c 257
 880.69 -10.3359 848.75 -54.2383 848.75 -108 c 256
 848.75 -157.651 868.454 -193.58 886.75 -201 c 257
 886.75 -228.25 l 257
 882.958 -229.427 872.635 -230.25 867.75 -230.25 c 256
 805.523 -230.25 757.75 -197.724 757.75 -132 c 256
 757.75 -78.6523 796.708 -41.1084 843.75 1 c 257
 835.821 -0.615234 833.083 -1 805.75 -1 c 256
 674.75 -1 602.75 69 602.75 169 c 256
305 268 m 257
 287.667 253.333 271.522 234.996 256 212 c 256
 229 172 226 163 216 143 c 257
 228 153 240 160 254 160 c 256
 286 160 297 140 337 140 c 256
 383 140 405 157 405 214 c 256
 405 216.209 405.041 214.305 405 216 c 257
 433 216 l 257
 432.964 214.664 433 216.33 433 215 c 256
 433 154 457 140 502 140 c 256
 543 140 568 169 568 204 c 256
 568 246 527 287 426 287 c 256
 369.333 287 329.667 280 305 268 c 257
146 22 m 257
 153.696 91.2695 199.452 184.165 234 232 c 256
 260 268 273 280 296 304 c 257
 305 314 316.25 331 316.25 352 c 256
 316.25 371 307 386 283 386 c 256
 269 386 253.438 378.533 249 363 c 256
 243 342 247 342 238 323 c 256
 229.732 305.546 212 297 197 297 c 256
 160 297 154 328 154 340 c 256
 154 394.099 204.363 433 261 433 c 256
 313.348 433 345 399 345 358 c 256
 345 352 345 349 344 341 c 257
 380.113 368.975 427.488 396.378 492 417 c 256
 558.129 438.139 632.859 442 676.25 442 c 256
 761.635 442 805.122 432.737 827 427 c 257
 819.517 426.319 734.508 410.876 722 410 c 257
 706.982 410.563 686.476 412 674 412 c 256
 615.313 412 564.896 403.343 536.5 397 c 256
 449.891 377.654 387.161 337.115 345.25 306.25 c 257
 373.415 312.696 402.667 314 430 314 c 256
 550 314 640 250 640 126 c 256
 640 67.8477 607 -1 522 -1 c 256
 476 -1 442.333 20.333 421 63 c 257
 403.667 21.667 371.021 -1 329 -1 c 256
 242 -1 245 73 212 73 c 256
 189.675 73 177 51 174 11 c 257
 146 22 l 257
27 221 m 260
 27 352.7 99.7559 434.25 239 434.25 c 256
 248 434.25 271 434.25 293 428.25 c 257
 272 417.25 195 404.5 178 398.5 c 257
 106 381.5 59 319.268 59 218 c 256
 59 137.333 86 78 135 34 c 257
 135 0 l 257
 68.5828 33.2086 27 120.07 27 221 c 260
EndSplineSet
EndChar

StartChar: afii301
Encoding: 83 8205 5
GlifName: zwj
Width: 0
VWidth: 0
GlyphClass: 2
Flags: W
LayerCount: 2
Back
Fore
SplineSet
55.2729 654.956 m 257
 179.729 532 l 257
 123.957 476.901 l 257
 39.5 561.358 l 257
 39.5 -10.5 l 257
 -39.5 -10.5 l 257
 -39.5 561.358 l 257
 -123.957 476.901 l 257
 -179.729 532 l 257
 -55.2729 654.956 l 257
 -179.773 776.456 l 257
 -123.957 831.599 l 257
 5.06054e-14 707.642 l 257
 123.957 831.599 l 257
 179.773 776.456 l 257
 55.2729 654.956 l 257
EndSplineSet
EndChar

StartChar: afii61664
Encoding: 82 8204 6
GlifName: zwnj
Width: 0
VWidth: 0
GlyphClass: 2
Flags: W
LayerCount: 2
Back
Fore
SplineSet
-39.5 -10.75 m 257
 -39.5 780.75 l 257
 39.5 780.75 l 257
 39.5 -10.75 l 257
 -39.5 -10.75 l 257
EndSplineSet
EndChar

StartChar: si_B.halant
Encoding: 314 -1 7
GlifName: si_B_.halant
Width: 619
VWidth: 0
GlyphClass: 2
Flags: W
LayerCount: 2
Back
Fore
SplineSet
101 76 m 256
 101 50 124 27 150 27 c 256
 176 27 199 50 199 76 c 256
 199 102 176 125 150 125 c 256
 124 125 101 102 101 76 c 256
142 538 m 256
 142 528.143 161 524.036 161 515 c 256
 161 513 160 510 158 508 c 257
 191 514 231 519 277 519 c 256
 385 519 477 485 525 422 c 257
 493.63 526.048 404.272 574 294 574 c 256
 218.524 574 142 560.383 142 538 c 256
33 187 m 256
 33 314 120 396 247 396 c 256
 328.545 396 403 350.504 403 272 c 256
 403 148.558 292 182.192 292 125 c 256
 292 110.811 306.638 104 335 104 c 256
 437.099 104 498 229 498 329 c 256
 498 439.687 410.764 492 269 492 c 256
 232.895 492 197.693 488.84 162 481.449 c 256
 122.56 473.282 82.5199 459.948 40 440 c 257
 40 473 l 257
 71.2381 485 122 499 122 508 c 256
 122 519.684 93 523.579 93 545 c 256
 93 582.446 159.083 629 276 629 c 256
 484 629 555 490 567 356 c 256
 570 343 575 300 575 267 c 256
 574 138 517 -2 381 -2 c 256
 313.222 -2 259 38.3229 259 113 c 256
 259 186.559 330 169.594 330 232 c 256
 330 263.277 281.344 276 237 276 c 256
 149.156 276 70 227.361 70 131 c 256
 70 116.351 72.6923 99.4507 77 91 c 257
 81 126 109 153 150 153 c 256
 193 153 229 119 229 77 c 256
 229 29 190 -1 150 -1 c 256
 68 -1 33 91 33 187 c 256
EndSplineSet
EndChar

StartChar: si_BI
Encoding: 315 -1 8
GlifName: si_B_I_
Width: 619
VWidth: 0
GlyphClass: 2
Flags: W
LayerCount: 2
Back
Fore
SplineSet
66.25 562 m 256
 66.25 652 197.25 670 297.25 670 c 256
 433.25 670 543.25 639 543.25 554 c 256
 543.25 502 489.25 480 455.25 474 c 257
 405.25 490 l 257
 441.25 491 468.25 504.566 468.25 527 c 256
 468.25 564.309 405.25 581 297.25 581 c 256
 221.594 581 125.25 573.211 125.25 538 c 256
 125.25 511.059 173.25 508 275.25 504 c 256
 340.119 501.456 434.25 499 489.25 459 c 256
 538.396 423.257 575 356.734 575 281.25 c 257
 500.25 325.25 l 257
 500.225 355.615 495.616 398.562 468 426 c 256
 425.899 467.829 377.269 470.325 276.25 476 c 256
 187.25 481 66.25 476 66.25 562 c 256
102.456 76 m 256
 102.456 50.0664 124.066 28.4561 150 28.4561 c 256
 175.934 28.4561 197.544 50.0664 197.544 76 c 256
 197.544 101.934 175.934 123.544 150 123.544 c 256
 124.066 123.544 102.456 101.934 102.456 76 c 256
33 187 m 256
 33 313.688 123.972 396 238.25 396 c 256
 330.037 396 404 353.765 404 266 c 256
 404 159.842 292 175.783 292 127.25 c 256
 292 107.462 317.042 104 333 104 c 256
 431.193 104 500.25 225.964 500.25 330.25 c 257
 517.955 315.216 547.103 323.659 575 284 c 257
 575 141.31 518.06 -2 381 -2 c 256
 302.396 -2 258.75 49.0566 258.75 108.5 c 256
 258.75 189.827 331 171.619 331 230 c 256
 331 251.645 308.91 275.5 237 275.5 c 256
 146 275.5 70 222.298 70 138 c 256
 70 129.591 71.7058 104.415 77 91 c 257
 81 126 109.438 153 150 153 c 256
 193 153 229 119 229 77 c 256
 229 29 190 -1 150 -1 c 256
 68 -1 33 91.123 33 187 c 256
EndSplineSet
EndChar

StartChar: si_BIi
Encoding: 316 -1 9
GlifName: si_B_I_i
Width: 619
VWidth: 0
GlyphClass: 2
Flags: W
LayerCount: 2
Back
Fore
SplineSet
392.647 538.75 m 256
 392.647 509.169 419.276 485.377 451.75 485.377 c 256
 484.224 485.377 510.853 509.169 510.853 538.75 c 256
 510.853 568.331 484.224 592.123 451.75 592.123 c 256
 419.276 592.123 392.647 568.331 392.647 538.75 c 256
66.75 562 m 256
 66.75 652 197.5 670 297.75 670 c 256
 433.75 670 543.75 640.054 543.75 541.75 c 256
 543.75 488.75 495.75 457.75 451.75 457.75 c 256
 407.75 457.75 359.75 488.75 359.75 541.75 c 256
 359.75 565.35 369.772 578.984 373.75 584 c 257
 365.409 585.578 332.231 588.5 295.75 588.5 c 256
 220.094 588.5 121.75 580.369 121.75 540 c 256
 121.75 510.989 173.75 508 275.75 504 c 256
 340.619 501.456 434.75 499 489.75 459 c 256
 538.896 423.257 575 354.355 575 273.75 c 257
 500.25 324 l 257
 500.25 350.723 497.564 388.626 470 420 c 256
 425.615 470.52 377.769 470.325 276.75 476 c 256
 187.75 481 66.75 476 66.75 562 c 256
102.456 76 m 256
 102.456 50.0664 124.066 28.4561 150 28.4561 c 256
 175.934 28.4561 197.544 50.0664 197.544 76 c 256
 197.544 101.934 175.934 123.544 150 123.544 c 256
 124.066 123.544 102.456 101.934 102.456 76 c 256
33 187 m 256
 33 313.688 123.972 396 238.25 396 c 256
 330.037 396 404 353.765 404 266 c 256
 404 159.842 292 175.783 292 127.25 c 256
 292 107.462 317.042 104 333 104 c 256
 431.193 104 500.25 225.964 500.25 330.25 c 257
 517.955 315.216 547.104 316.908 575 277.25 c 257
 575 141.213 518.06 -2 381 -2 c 256
 302.396 -2 258.75 49.0566 258.75 108.5 c 256
 258.75 189.827 331 171.619 331 230 c 256
 331 251.645 308.91 275.5 237 275.5 c 256
 146 275.5 70 222.298 70 138 c 256
 70 129.591 71.7058 104.415 77 91 c 257
 81 126 109.438 153 150 153 c 256
 193 153 229 119 229 77 c 256
 229 29 190 -1 150 -1 c 256
 68 -1 33 91.123 33 187 c 256
EndSplineSet
EndChar

StartChar: si_BRI
Encoding: 321 -1 10
GlifName: si_B_R_I_
Width: 619
VWidth: 0
GlyphClass: 2
Flags: W
LayerCount: 2
Back
Fore
SplineSet
58.25 -44 m 257
 87.75 -44 l 257
 125.226 -86.958 179.667 -114.25 285 -114.25 c 256
 428 -114.25 535.5 -31.0107 535.5 63.25 c 256
 535.5 78.2842 533.938 90.4463 528.5 102 c 257
 541.5 133 l 257
 559.5 106.333 568.5 74.667 568.5 38 c 256
 568.5 -123.729 443.75 -219 299.75 -219 c 256
 174.652 -219 95.583 -153.333 58.25 -44 c 257
EndSplineSet
Refer: 8 -1 N 1 0 0 1 0 0 2
EndChar

StartChar: si_BRIi
Encoding: 322 -1 11
GlifName: si_B_R_I_i
Width: 619
VWidth: 0
GlyphClass: 2
Flags: W
LayerCount: 2
Back
Fore
SplineSet
58.25 -44 m 257
 87.75 -44 l 257
 125.226 -86.958 179.667 -114.25 285 -114.25 c 256
 428 -114.25 535.5 -31.0107 535.5 63.25 c 256
 535.5 78.2842 533.938 90.4463 528.5 102 c 257
 541.5 133 l 257
 559.5 106.333 568.5 74.667 568.5 38 c 256
 568.5 -123.729 443.75 -219 299.75 -219 c 256
 174.652 -219 95.583 -153.333 58.25 -44 c 257
EndSplineSet
Refer: 9 -1 N 1 0 0 1 0 0 2
EndChar

StartChar: si_BRa
Encoding: 320 -1 12
GlifName: si_B_R_a
Width: 619
VWidth: 0
GlyphClass: 2
Flags: W
LayerCount: 2
Back
Fore
SplineSet
58.25 -44 m 257
 87.75 -44 l 257
 125.226 -86.958 179.667 -114.25 285 -114.25 c 256
 428 -114.25 535.5 -31.0107 535.5 63.25 c 256
 535.5 78.2842 533.938 90.4463 528.5 102 c 257
 541.5 133 l 257
 559.5 106.333 568.5 74.667 568.5 38 c 256
 568.5 -123.729 443.75 -219 299.75 -219 c 256
 174.652 -219 95.583 -153.333 58.25 -44 c 257
EndSplineSet
Refer: 465 3510 N 1 0 0 1 0 0 2
EndChar

StartChar: si_BU
Encoding: 317 -1 13
GlifName: si_B_U_
Width: 619
VWidth: 0
GlyphClass: 2
Flags: W
LayerCount: 2
Back
Fore
SplineSet
49.25 -142.5 m 256
 49.25 -90.4912 95.543 -50.5 150.75 -50.5 c 256
 192.656 -50.5 230 -74.1416 244.75 -110 c 257
 212 -121.5 l 257
 205.176 -104.358 183.75 -81.75 150.75 -81.75 c 256
 114.046 -81.75 84.75 -109.716 84.75 -142.5 c 256
 84.75 -171.663 106.498 -192.5 176.25 -192.5 c 258
 530.5 -192.5 l 257
 530.5 128 l 257
 565.75 219 l 257
 565.75 -235 l 257
 154.75 -235 l 258
 75.207 -235 49.25 -186.092 49.25 -142.5 c 256
EndSplineSet
Refer: 465 3510 N 1 0 0 1 0 0 2
EndChar

StartChar: si_BUu
Encoding: 318 -1 14
GlifName: si_B_U_u
Width: 619
VWidth: 0
GlyphClass: 2
Flags: W
LayerCount: 2
Back
Fore
SplineSet
49.25 -138 m 256
 49.25 -80 98.25 -40 151.25 -40 c 256
 193.25 -40 225.583 -55 248.25 -91 c 257
 215.25 -102 l 257
 203.934 -84.6992 185.25 -70 156.25 -70 c 256
 117.25 -70 92.25 -95.0762 92.25 -120 c 256
 92.25 -151.995 121.065 -167 155.25 -167 c 256
 231.465 -167 298.577 -114.5 406.25 -114.5 c 256
 457.332 -114.5 503.25 -133.75 530.25 -165.75 c 257
 530.25 152 l 257
 565.25 212 l 257
 565.25 -231 l 257
 539.75 -231 l 257
 524.75 -195 479.199 -146.25 416.25 -146.25 c 256
 325.25 -146.25 258.25 -237 160.25 -237 c 256
 105.25 -237 49.25 -206 49.25 -138 c 256
EndSplineSet
Refer: 465 3510 N 1 0 0 1 0 0 2
EndChar

StartChar: si_Bh.halant
Encoding: 323 -1 16
GlifName: si_B_h.halant
Width: 670
VWidth: 0
GlyphClass: 2
Flags: W
LayerCount: 2
Back
Fore
SplineSet
466.5 397 m 257
 466.5 681 l 257
 520.5 639 618 634 618 542 c 256
 618 498 583.191 468 540 468 c 256
 525.333 468 510.333 471.333 495 478 c 257
 495 384 l 257
 466.5 397 l 257
495.105 504.273 m 257
 503.6 499.699 514.382 497.413 527.448 497.413 c 256
 559.454 497.413 573 521.915 573 545.438 c 256
 573 586.602 541.17 606.203 495.105 636.587 c 257
 495.105 504.273 l 257
EndSplineSet
Refer: 466 3511 N 1 0 0 1 0 0 2
EndChar

StartChar: si_BhI
Encoding: 324 -1 17
GlifName: si_B_hI_
Width: 670
VWidth: 0
GlyphClass: 2
Flags: W
LayerCount: 2
Back
Fore
SplineSet
178.25 537 m 256
 178.25 628 277.234 667 379.25 667 c 256
 484.595 667 587.25 618 587.25 523 c 256
 587.25 461 548.25 413 467.25 407 c 257
 449.25 431 l 257
 451.943 430.867 454.61 430.806 457.25 430.806 c 256
 515.25 430.806 545.25 465.788 545.25 498 c 256
 545.25 552.286 465.924 566 386.25 566 c 256
 304.777 566 249.25 537.781 249.25 503 c 256
 249.25 453.811 353.25 431.492 439.25 431.492 c 256
 440.256 431.492 440.256 431.494 441.25 431.5 c 257
 425.25 407.5 l 257
 265.25 410.833 178.25 462 178.25 537 c 256
EndSplineSet
Refer: 466 3511 N 1 0 0 1 0 0 2
EndChar

StartChar: si_BhIi
Encoding: 325 -1 18
GlifName: si_B_hI_i
Width: 670
VWidth: 0
GlyphClass: 2
Flags: W
LayerCount: 2
Back
Fore
SplineSet
421.796 520 m 256
 421.796 487.107 451.332 460.258 488.25 460.258 c 256
 525.168 460.258 554.704 487.107 554.704 520 c 256
 554.704 552.893 525.168 579.742 488.25 579.742 c 256
 451.332 579.742 421.796 552.893 421.796 520 c 256
178.25 537 m 256
 178.25 628 277.234 667 379.25 667 c 256
 484.595 667 587.25 618.415 587.25 525 c 256
 587.25 456.817 530.42 431 488.25 431 c 256
 442.606 431 389.25 463.284 389.25 520 c 256
 389.25 538.988 395.893 554.466 403.25 565.781 c 257
 397.604 565.931 391.928 566 386.25 566 c 256
 304.777 566 249.25 537.781 249.25 503 c 256
 249.25 453.811 353.25 431.492 439.25 431.492 c 256
 440.256 431.492 440.256 431.494 441.25 431.5 c 257
 425.25 406 l 257
 265.25 409.333 178.25 462 178.25 537 c 256
EndSplineSet
Refer: 466 3511 N 1 0 0 1 0 0 2
EndChar

StartChar: si_BhRI
Encoding: 330 -1 19
GlifName: si_B_hR_I_
Width: 670
VWidth: 0
GlyphClass: 2
Flags: W
LayerCount: 2
Back
Fore
SplineSet
75.5 -44 m 257
 105 -44 l 257
 138.533 -93.29 195.302 -113.75 308.5 -113.75 c 256
 460.064 -113.75 571.5 -31.0107 571.5 63.25 c 256
 571.5 78.2842 568.75 90.793 561.75 102 c 257
 574.75 133 l 257
 592.75 106.333 601.75 74.667 601.75 38 c 256
 601.75 -123.729 482.55 -219 331 -219 c 256
 191.156 -219 112.833 -153.333 75.5 -44 c 257
EndSplineSet
Refer: 17 -1 N 1 0 0 1 0 0 2
EndChar

StartChar: si_BhRIi
Encoding: 331 -1 20
GlifName: si_B_hR_I_i
Width: 670
VWidth: 0
GlyphClass: 2
Flags: W
LayerCount: 2
Back
Fore
SplineSet
421.796 520 m 256
 421.796 487.107 451.332 460.258 488.25 460.258 c 256
 525.168 460.258 554.704 487.107 554.704 520 c 256
 554.704 552.893 525.168 579.742 488.25 579.742 c 256
 451.332 579.742 421.796 552.893 421.796 520 c 256
178.25 537 m 256
 178.25 628 277.234 667 379.25 667 c 256
 484.595 667 587.25 618.415 587.25 525 c 256
 587.25 456.817 530.42 431 488.25 431 c 256
 442.606 431 389.25 463.284 389.25 520 c 256
 389.25 538.988 395.893 554.466 403.25 565.781 c 257
 397.604 565.931 391.928 566 386.25 566 c 256
 304.777 566 249.25 537.781 249.25 503 c 256
 249.25 453.811 353.25 431.492 439.25 431.492 c 256
 440.256 431.492 440.256 431.494 441.25 431.5 c 257
 425.25 406 l 257
 265.25 409.333 178.25 462 178.25 537 c 256
75.5 -44 m 257
 105 -44 l 257
 138.533 -93.29 195.302 -113.75 308.5 -113.75 c 256
 460.064 -113.75 571.5 -31.0107 571.5 63.25 c 256
 571.5 78.2842 568.75 90.793 561.75 102 c 257
 574.75 133 l 257
 592.75 106.333 601.75 74.667 601.75 38 c 256
 601.75 -123.729 482.55 -219 331 -219 c 256
 191.156 -219 112.833 -153.333 75.5 -44 c 257
EndSplineSet
Refer: 466 3511 N 1 0 0 1 0 0 2
EndChar

StartChar: si_BhRa
Encoding: 329 -1 21
GlifName: si_B_hR_a
Width: 670
VWidth: 0
GlyphClass: 2
Flags: W
LayerCount: 2
Back
Fore
SplineSet
75.5 -44 m 257
 105 -44 l 257
 138.533 -93.29 195.302 -113.75 308.5 -113.75 c 256
 460.064 -113.75 571.5 -31.0107 571.5 63.25 c 256
 571.5 78.2842 568.75 90.793 561.75 102 c 257
 574.75 133 l 257
 592.75 106.333 601.75 74.667 601.75 38 c 256
 601.75 -123.729 482.55 -219 331 -219 c 256
 191.156 -219 112.833 -153.333 75.5 -44 c 257
EndSplineSet
Refer: 466 3511 N 1 0 0 1 0 0 2
EndChar

StartChar: si_BhU
Encoding: 326 -1 22
GlifName: si_B_hU_
Width: 670
VWidth: 0
GlyphClass: 2
Flags: W
LayerCount: 2
Back
Fore
SplineSet
6 271 m 257
 6 303 l 257
 212 303 l 257
 171 278 l 257
 140 278 l 258
 69 277 22 273.667 6 271 c 257
48.8613 364 m 256
 48.8613 394.208 77.54 432.033 134.292 432.033 c 256
 213.187 432.033 254.837 360.3 254.837 276 c 257
 243.157 277.353 231.79 278.021 220.837 278.021 c 256
 149.348 278.021 109.837 244.576 109.837 208.5 c 256
 109.837 155.5 173.837 138.863 227.837 138.863 c 256
 265.837 138.863 333.837 152 333.837 190 c 256
 333.837 208 322.837 215.412 311.837 215.412 c 256
 297.837 215.412 286.591 207.011 279.837 186 c 257
 254.837 195 l 257
 263.837 320 344.925 432.01 446.139 432.01 c 256
 558.011 432.01 620.855 328.65 620.855 210.962 c 256
 620.855 92.0049 538.929 -0.835385 451.5 -1 c 256
 431.15 -1.03832 419.623 -3.65234 411.75 -7 c 257
 400.5 22.5 l 257
 414.826 28.2529 428.33 29.9834 439.25 32.25 c 256
 496.556 44.1426 512.837 112 512.837 166 c 256
 512.837 230 479.837 314 389.837 314 c 256
 314.837 314 297.837 264 288.837 235 c 257
 298.672 240.532 307.471 242.17 316.837 242.17 c 256
 357.837 242.17 382 199.14 382 145.35 c 256
 382 52.9932 311.339 -0.762695 216.87 -0.762695 c 256
 119.32 -0.762695 48.792 61.0615 48.792 155.113 c 256
 48.792 246 138.019 303.353 213.337 303.353 c 256
 216.146 303.353 216.975 303.25 219.837 303.25 c 257
 219.837 342.141 195.837 378 167.837 378 c 256
 152.837 378 138.837 374 129.837 352 c 256
 121.681 332.063 105.837 323 89.8369 323 c 256
 67.8369 323 48.8613 336 48.8613 364 c 256
339.065 -72 m 256
 339.065 -23.1611 364.453 8.54492 403.815 23.75 c 257
 415.5 -5.5 l 257
 400.494 -11.1514 385.565 -26.0908 385.565 -48.25 c 256
 385.565 -84.6162 428.613 -105 480.065 -105 c 256
 541.065 -105 588.258 -82.5625 588.258 -45 c 256
 588.258 -42.0391 587.984 -39.0381 587.565 -36 c 257
 617.565 -36 l 257
 619.92 -45.416 620 -60.29 620 -69.5 c 256
 620 -122.146 576.267 -191.5 475.565 -191.5 c 256
 407.827 -191.5 339.065 -159.223 339.065 -72 c 256
EndSplineSet
EndChar

StartChar: si_BhUu
Encoding: 327 -1 23
GlifName: si_B_hU_u
Width: 670
VWidth: 0
GlyphClass: 2
Flags: W
LayerCount: 2
Back
Fore
SplineSet
372.946 -129 m 256
 372.946 -93.3486 401.934 -72 436.946 -67 c 257
 381.946 -39 l 257
 467.196 -14.5 l 257
 370 2 l 257
 430 15 l 257
 554 -6 l 257
 444.696 -43.25 l 257
 504.946 -76 l 257
 476.946 -83 422.946 -83.4658 422.946 -104.5 c 256
 422.946 -120.922 454.87 -129 496.946 -129 c 256
 550.946 -129 595.175 -112.984 595.175 -82 c 256
 595.175 -77 594.442 -66.9287 589.196 -59 c 257
 623.946 -59 l 257
 627.537 -71.1182 628.25 -82.833 628.25 -94 c 256
 628.25 -161 576.946 -205 494.946 -205 c 256
 436.946 -205 372.946 -187.466 372.946 -129 c 256
EndSplineSet
Refer: 466 3511 N 1 0 0 1 0 0 2
EndChar

StartChar: si_Bha.reph
Encoding: 328 -1 24
GlifName: si_B_ha.reph
Width: 670
VWidth: 0
GlyphClass: 2
Flags: W
LayerCount: 2
Back
Fore
SplineSet
296.9 511 m 256
 296.9 490.854 315.128 474.547 337 474.547 c 256
 358.872 474.547 377.1 490.854 377.1 511 c 256
 377.1 531.146 358.872 547.453 337 547.453 c 256
 315.128 547.453 296.9 531.146 296.9 511 c 256
194 530 m 256
 194 594 252.12 631 334 631 c 256
 411 631 475 588 475 517 c 256
 475 493 466.667 471.333 450 452 c 257
 414.25 452 l 257
 427.42 464.387 443 488.734 443 516 c 256
 443 570.521 394 602.5 333 602.5 c 256
 280.222 602.5 226.75 579.99 226.75 530 c 256
 226.75 490.925 269.901 473.688 287.5 471.25 c 257
 279.5 477.25 269 491 269 512 c 256
 269 547 300.354 572 336 572 c 256
 377 572 405 545 405 510 c 256
 405 471 370 445 312 445 c 256
 253 445 194 474 194 530 c 256
EndSplineSet
Refer: 466 3511 N 1 0 0 1 0 0 2
EndChar

StartChar: si_C.halant
Encoding: 136 -1 25
GlifName: si_C_.halant
Width: 621
VWidth: 0
GlyphClass: 2
Flags: W
LayerCount: 2
Back
Fore
SplineSet
144 538 m 256
 144 526 163 526 163 515 c 256
 163 513 162 510 160 508 c 257
 193 514 232.675 519 279 519 c 256
 387 519 469.076 489.188 524.5 425.25 c 257
 491.618 535.951 400 574.25 284 574.25 c 256
 212 574.25 144 557.539 144 538 c 256
42 440 m 257
 42 473 l 257
 74 485 123.5 499 123.5 508 c 256
 123.5 520 95.5 520.304 95.5 546 c 256
 95.5 583 163 629 278 629 c 256
 486 629 557 490 569 356 c 257
 575.711 326.22 577.25 289.679 577.25 273.5 c 257
 517.25 315.5 l 257
 517.25 323.5 517.076 319.5 517.076 323.5 c 256
 517.076 404.831 445 491.75 276 491.75 c 256
 200 491.75 123 478 42 440 c 257
64 165 m 256
 64 195.72 73.7753 227.831 97 248 c 256
 113.127 262.005 132 273 158 278 c 257
 191.761 290.199 232.875 302 270 302 c 258
 284 302 l 257
 284.082 304.041 284.086 306.041 284.086 308 c 256
 284.086 358 252 389 220 389 c 256
 186 389 173 371 167.5 355 c 256
 160.951 335.948 150 320 121 320 c 256
 101 320 83 333.368 83 359 c 256
 83 406 133 431.5 188 431.5 c 256
 276 431.5 319.146 376 319.146 290 c 256
 319.146 286.722 319.101 277.388 319 274 c 257
 271 274 l 258
 216 274 184 266 161 254 c 256
 132.713 239.241 128 220 128 207 c 256
 128 158 208 140 298 140 c 256
 451 140 517.25 217.232 517.25 319.5 c 257
 532.061 299.482 552.113 305.002 577.25 276.75 c 257
 577.25 113.672 478 0 295 0 c 256
 174 0 64 46 64 165 c 256
13 267 m 257
 13 302 l 257
 282 302 l 257
 315 274 l 257
 148 274 l 258
 77 273 29 269.667 13 267 c 257
EndSplineSet
EndChar

StartChar: si_CI
Encoding: 137 -1 26
GlifName: si_C_I_
Width: 621
VWidth: 0
GlyphClass: 2
Flags: W
LayerCount: 2
Back
Fore
SplineSet
72.75 562 m 256
 72.75 652 200.25 670 300.25 670 c 256
 436.25 670 546.25 639 546.25 554 c 256
 546.25 502 492.25 480 458.25 474 c 257
 408.25 490 l 257
 444.25 491 471.25 504.566 471.25 527 c 256
 471.25 564.309 408.25 581 300.25 581 c 256
 224.594 581 131.75 573.211 131.75 538 c 256
 131.75 511.059 176.25 508 278.25 504 c 256
 343.119 501.456 437.25 499 492.25 459 c 256
 541.396 423.257 577.25 356 577.25 274 c 257
 517 326 l 257
 517 336.475 516.006 384.702 489.25 416.5 c 256
 444.741 469.395 380.269 470.325 279.25 476 c 256
 190.25 481 72.75 476 72.75 562 c 256
64 165 m 256
 64 195.72 73.7753 227.831 97 248 c 256
 113.127 262.005 132 273 158 278 c 257
 191.761 290.199 232.875 302 270 302 c 258
 284 302 l 257
 284.082 304.041 284.086 306.041 284.086 308 c 256
 284.086 358 252 389 220 389 c 256
 186 389 173 371 167.5 355 c 256
 160.951 335.948 150 320 121 320 c 256
 101 320 83 333.368 83 359 c 256
 83 406 133 431.5 188 431.5 c 256
 276 431.5 319.146 376 319.146 290 c 256
 319.146 286.722 319.101 277.388 319 274 c 257
 271 274 l 258
 216 274 184 266 161 254 c 256
 132.713 239.241 128 220 128 207 c 256
 128 158 208 140 298 140 c 256
 451 140 517 218 517 329 c 257
 531.81 308.983 552.113 305.002 577.25 276.75 c 257
 577.25 113.672 478 0 295 0 c 256
 174 0 64 46 64 165 c 256
13 267 m 257
 13 302 l 257
 282 302 l 257
 315 274 l 257
 148 274 l 258
 77 273 29 269.667 13 267 c 257
EndSplineSet
EndChar

StartChar: si_CIi
Encoding: 138 -1 27
GlifName: si_C_I_i
Width: 621
VWidth: 0
GlyphClass: 2
Flags: W
LayerCount: 2
Back
Fore
SplineSet
394.397 538.75 m 256
 394.397 509.169 421.026 485.377 453.5 485.377 c 256
 485.974 485.377 512.603 509.169 512.603 538.75 c 256
 512.603 568.331 485.974 592.123 453.5 592.123 c 256
 421.026 592.123 394.397 568.331 394.397 538.75 c 256
73.5 562 m 256
 73.5 652 199.25 670 299.5 670 c 256
 435.5 670 545.5 640.054 545.5 541.75 c 256
 545.5 488.75 497.5 457.75 453.5 457.75 c 256
 409.5 457.75 361.5 488.75 361.5 541.75 c 256
 361.5 565.35 371.522 578.984 375.5 584 c 257
 367.159 585.578 333.981 588.5 297.5 588.5 c 256
 221.844 588.5 128.5 580.369 128.5 540 c 256
 128.5 510.989 175.5 508 277.5 504 c 256
 342.369 501.456 436.5 499 491.5 459 c 256
 540.646 423.257 577.25 356 577.25 274 c 257
 517 322 l 257
 517 348.723 515.914 384.333 488.25 417.25 c 256
 443.772 470.172 379.519 470.325 278.5 476 c 256
 189.5 481 73.5 476 73.5 562 c 256
64 165 m 256
 64 195.72 73.7753 227.831 97 248 c 256
 113.127 262.005 132 273 158 278 c 257
 191.761 290.199 232.875 302 270 302 c 258
 284 302 l 257
 284.082 304.041 284.086 306.041 284.086 308 c 256
 284.086 358 252 389 220 389 c 256
 186 389 173 371 167.5 355 c 256
 160.951 335.948 150 320 121 320 c 256
 101 320 83 333.368 83 359 c 256
 83 406 133 431.5 188 431.5 c 256
 276 431.5 319.146 376 319.146 290 c 256
 319.146 286.722 319.101 277.388 319 274 c 257
 271 274 l 258
 216 274 184 266 161 254 c 256
 132.713 239.241 128 220 128 207 c 256
 128 158 208 140 298 140 c 256
 451 140 517 218 517 329 c 257
 531.81 308.983 552.113 305.002 577.25 276.75 c 257
 577.25 113.672 478 0 295 0 c 256
 174 0 64 46 64 165 c 256
13 267 m 257
 13 302 l 257
 282 302 l 257
 315 274 l 257
 148 274 l 258
 77 273 29 269.667 13 267 c 257
EndSplineSet
EndChar

StartChar: si_CRI
Encoding: 143 -1 28
GlifName: si_C_R_I_
Width: 597
VWidth: 0
GlyphClass: 2
Flags: W
LayerCount: 2
Back
Fore
SplineSet
46 -44 m 257
 75.5 -44 l 257
 112.976 -86.958 165.667 -114.25 271 -114.25 c 256
 414 -114.25 517.5 -31.0107 517.5 63.25 c 256
 517.5 78.2842 511.661 99.6465 501.75 110 c 257
 517.75 140 l 257
 539.14 115.406 550.5 74.667 550.5 38 c 256
 550.5 -123.729 430.25 -219 286.25 -219 c 256
 160.168 -219 83.333 -153.333 46 -44 c 257
EndSplineSet
Refer: 26 -1 N 1 0 0 1 0 0 2
EndChar

StartChar: si_CRIi
Encoding: 144 -1 29
GlifName: si_C_R_I_i
Width: 597
VWidth: 0
GlyphClass: 2
Flags: W
LayerCount: 2
Back
Fore
SplineSet
46 -44 m 257
 75.5 -44 l 257
 112.976 -86.958 165.667 -114.25 271 -114.25 c 256
 414 -114.25 517.5 -31.0107 517.5 63.25 c 256
 517.5 78.2842 511.661 99.6465 501.75 110 c 257
 517.75 140 l 257
 539.14 115.406 550.5 74.667 550.5 38 c 256
 550.5 -123.729 430.25 -219 286.25 -219 c 256
 160.168 -219 83.333 -153.333 46 -44 c 257
EndSplineSet
Refer: 27 -1 N 1 0 0 1 0 0 2
EndChar

StartChar: si_CRa
Encoding: 142 -1 30
GlifName: si_C_R_a
Width: 597
VWidth: 0
GlyphClass: 2
Flags: W
LayerCount: 2
Back
Fore
SplineSet
46 -44 m 257
 75.5 -44 l 257
 112.976 -86.958 165.667 -114.25 271 -114.25 c 256
 414 -114.25 517.5 -31.0107 517.5 63.25 c 256
 517.5 78.2842 511.661 99.6465 501.75 110 c 257
 517.75 140 l 257
 539.14 115.406 550.5 74.667 550.5 38 c 256
 550.5 -123.729 430.25 -219 286.25 -219 c 256
 160.168 -219 83.333 -153.333 46 -44 c 257
EndSplineSet
Refer: 444 3488 N 1 0 0 1 0 0 2
EndChar

StartChar: si_CU
Encoding: 139 -1 31
GlifName: si_C_U_
Width: 597
VWidth: 0
GlyphClass: 2
Flags: W
LayerCount: 2
Back
Fore
SplineSet
70.5 -142.5 m 256
 70.5 -90.4912 116.793 -50.5 172 -50.5 c 256
 213.906 -50.5 251.25 -74.1416 266 -110 c 257
 233.25 -121.5 l 257
 226.426 -104.358 205 -81.75 172 -81.75 c 256
 135.296 -81.75 106 -109.716 106 -142.5 c 256
 106 -171.663 127.748 -192.5 197.5 -192.5 c 258
 528.75 -192.5 l 257
 528.75 128 l 257
 564 219 l 257
 564 -235 l 257
 176 -235 l 258
 96.457 -235 70.5 -186.092 70.5 -142.5 c 256
EndSplineSet
Refer: 444 3488 N 1 0 0 1 0 0 2
EndChar

StartChar: si_CUu
Encoding: 140 -1 32
GlifName: si_C_U_u
Width: 597
VWidth: 0
GlyphClass: 2
Flags: W
LayerCount: 2
Back
Fore
SplineSet
70.5 -138 m 256
 70.5 -80 119.5 -40 172.5 -40 c 256
 214.5 -40 246.833 -55 269.5 -91 c 257
 236.5 -102 l 257
 225.184 -84.6992 206.5 -70 177.5 -70 c 256
 138.5 -70 113.5 -95.0762 113.5 -120 c 256
 113.5 -151.995 142.315 -167 176.5 -167 c 256
 252.715 -167 319.143 -114.5 413.25 -114.5 c 256
 464.332 -114.5 504 -133.75 531 -165.75 c 257
 531 152 l 257
 566 212 l 257
 566 -231 l 257
 540.5 -231 l 257
 525.5 -195 486.199 -146.25 423.25 -146.25 c 256
 337.235 -146.25 279.5 -237 181.5 -237 c 256
 126.5 -237 70.5 -206 70.5 -138 c 256
EndSplineSet
Refer: 444 3488 N 1 0 0 1 0 0 2
EndChar

StartChar: si_Ca.reph
Encoding: 141 -1 33
GlifName: si_C_a.reph
Width: 597
VWidth: 0
GlyphClass: 2
Flags: W
LayerCount: 2
Back
Fore
SplineSet
274.4 619 m 256
 274.4 598.854 292.628 582.547 314.5 582.547 c 256
 336.372 582.547 354.6 598.854 354.6 619 c 256
 354.6 639.146 336.372 655.453 314.5 655.453 c 256
 292.628 655.453 274.4 639.146 274.4 619 c 256
171.5 638 m 256
 171.5 702 229.62 739 311.5 739 c 256
 388.5 739 452.5 696 452.5 625 c 256
 452.5 601 444.167 579.333 427.5 560 c 257
 391.75 560 l 257
 404.92 572.387 420.5 596.734 420.5 624 c 256
 420.5 678.521 371.5 710.5 310.5 710.5 c 256
 257.722 710.5 204.25 687.99 204.25 638 c 256
 204.25 598.925 247.401 581.688 265 579.25 c 257
 257 585.25 246.5 599 246.5 620 c 256
 246.5 655 277.854 680 313.5 680 c 256
 354.5 680 382.5 653 382.5 618 c 256
 382.5 579 347.5 553 289.5 553 c 256
 230.5 553 171.5 582 171.5 638 c 256
EndSplineSet
Refer: 444 3488 N 1 0 0 1 0 0 2
EndChar

StartChar: si_Ch.halant
Encoding: 145 -1 34
GlifName: si_C_h.halant
Width: 598
VWidth: 0
GlyphClass: 2
Flags: W
LayerCount: 2
Back
Fore
SplineSet
286 336 m 257
 286 756.5 l 257
 340 714.5 437.5 709.5 437.5 617.5 c 256
 437.5 573.5 402.691 543.5 359.5 543.5 c 256
 344.833 543.5 329.833 546.833 314.5 553.5 c 257
 314.5 400 l 257
 286 336 l 257
314.605 579.773 m 257
 323.1 575.199 333.882 572.913 346.948 572.913 c 256
 378.954 572.913 392.5 597.415 392.5 620.938 c 256
 392.5 662.102 360.67 681.703 314.605 712.087 c 257
 314.605 579.773 l 257
EndSplineSet
Refer: 445 3489 N 1 0 0 1 0 0 2
EndChar

StartChar: si_ChI
Encoding: 146 -1 35
GlifName: si_C_hI_
Width: 598
VWidth: 0
GlyphClass: 2
Flags: W
LayerCount: 2
Back
Fore
SplineSet
233 489.5 m 256
 233 576.568 303.321 657 382 657 c 256
 428.882 657 460.703 626.416 460.705 583 c 256
 460.705 579.106 460.496 576.102 460 572 c 257
 459.982 571.995 430 544.016 430 544 c 257
 432.45 549.302 435.181 564.622 435.181 575.5 c 256
 435.181 599.068 423.688 609 406 609 c 256
 348.62 609 295 546.291 295 482 c 256
 295 450.191 309.158 430.75 340 430.75 c 256
 349.467 430.75 357.154 431.185 374 436 c 257
 373.999 435.978 370.001 425.001 370 425 c 257
 357.178 416.842 329.23 407.635 327 407 c 257
 325.947 406.999 324.051 406.952 323 406.952 c 256
 260.125 406.952 233 439.49 233 489.5 c 256
EndSplineSet
Refer: 445 3489 N 1 0 0 1 0 0 2
EndChar

StartChar: si_ChIi
Encoding: 147 -1 36
GlifName: si_C_hI_i
Width: 598
VWidth: 0
GlyphClass: 2
Flags: W
LayerCount: 2
Back
Fore
SplineSet
338.691 579 m 256
 338.691 552.372 359.872 531.191 386.5 531.191 c 256
 413.128 531.191 434.309 552.372 434.309 579 c 256
 434.309 605.628 413.128 626.809 386.5 626.809 c 256
 359.872 626.809 338.691 605.628 338.691 579 c 256
233 489.5 m 256
 233 576.568 303.261 656.5 386.75 656.5 c 256
 431.64 656.5 463.955 619.452 463.955 579 c 256
 463.955 540.549 433.976 501.5 386.75 501.5 c 256
 338.253 501.5 314.75 542.459 314.75 557.75 c 256
 314.75 558.25 314.827 559.5 314.865 560.25 c 257
 303.979 540.937 295 515.524 295 488 c 256
 295 452.645 317.348 429.25 343.25 429.25 c 256
 352.422 429.25 363.684 431.481 372.25 436.25 c 257
 372.249 436.228 370.001 425.001 370 425 c 257
 357.178 416.842 329.23 407.635 327 407 c 257
 325.947 406.999 324.051 406.952 323 406.952 c 256
 260.125 406.952 233 439.49 233 489.5 c 256
EndSplineSet
Refer: 445 3489 N 1 0 0 1 0 0 2
EndChar

StartChar: si_ChU
Encoding: 148 -1 37
GlifName: si_C_hU_
Width: 598
VWidth: 0
GlyphClass: 2
Flags: W
LayerCount: 2
Back
Fore
SplineSet
38.75 -142.5 m 256
 38.75 -90.4912 85.043 -50.5 140.25 -50.5 c 256
 182.156 -50.5 219.5 -74.1416 234.25 -110 c 257
 201.5 -121.5 l 257
 194.676 -104.358 173.25 -81.75 140.25 -81.75 c 256
 103.546 -81.75 74.25 -109.716 74.25 -142.5 c 256
 74.25 -171.663 95.998 -192.5 165.75 -192.5 c 258
 505.25 -192.5 l 257
 505.25 128 l 257
 540.5 207 l 257
 540.5 -235 l 257
 144.25 -235 l 258
 64.707 -235 38.75 -186.092 38.75 -142.5 c 256
EndSplineSet
Refer: 445 3489 N 1 0 0 1 0 0 2
EndChar

StartChar: si_ChUu
Encoding: 149 -1 38
GlifName: si_C_hU_u
Width: 598
VWidth: 0
GlyphClass: 2
Flags: W
LayerCount: 2
Back
Fore
SplineSet
39 -138 m 256
 39 -80 88 -40 141 -40 c 256
 183 -40 215.333 -55 238 -91 c 257
 205 -102 l 257
 193.684 -84.6992 175 -70 146 -70 c 256
 107 -70 82 -95.0762 82 -120 c 256
 82 -151.995 110.815 -167 145 -167 c 256
 221.215 -167 276.327 -114.5 384 -114.5 c 256
 435.082 -114.5 478.75 -133.75 505.75 -165.75 c 257
 505.75 152 l 257
 540.75 212 l 257
 540.75 -231 l 257
 515.25 -231 l 257
 500.25 -195 456.949 -146.25 394 -146.25 c 256
 303 -146.25 248 -237 150 -237 c 256
 95 -237 39 -206 39 -138 c 256
EndSplineSet
Refer: 445 3489 N 1 0 0 1 0 0 2
EndChar

StartChar: si_D.halant
Encoding: 254 -1 39
GlifName: si_D_.halant
Width: 456
VWidth: 0
GlyphClass: 2
Flags: W
LayerCount: 2
Back
Fore
SplineSet
262.75 413 m 257
 262.75 681 l 257
 316.75 639 414.25 634 414.25 542 c 256
 414.25 498 379.441 468 336.25 468 c 256
 321.583 468 306.583 471.333 291.25 478 c 257
 291.25 396 l 257
 262.75 413 l 257
291.355 504.273 m 257
 299.85 499.699 310.632 497.413 323.698 497.413 c 256
 355.704 497.413 369.25 521.915 369.25 545.438 c 256
 369.25 586.602 337.42 606.203 291.355 636.587 c 257
 291.355 504.273 l 257
EndSplineSet
Refer: 459 3503 N 1 0 0 1 0 0 2
EndChar

StartChar: si_DAa
Encoding: 255 -1 40
GlifName: si_D_A_a
Width: 456
VWidth: 0
GlyphClass: 2
Flags: W
LayerCount: 2
Back
Fore
SplineSet
31 169 m 256
 31 274 104 317 223 317 c 258
 340.25 317 l 257
 330.526 363.186 300.514 390 268 390 c 256
 249 390 234.549 378.911 226 361 c 256
 215.5 339 198.579 333 178.75 333 c 256
 153.75 333 136 349.75 136 370.75 c 256
 136 407.033 177 433 232 433 c 256
 317.739 433 361.74 388.542 379 291 c 257
 317.25 291 l 258
 229.25 291 184.25 257 184.25 173 c 256
 184.25 89 235.989 44 285.5 44 c 256
 315.849 44 340.75 48.25 380.75 94.25 c 257
 412.5 75 l 257
 392.5 58.333 376.117 41.1863 360.75 32.75 c 257
 364.083 33.417 362.25 33.5 366.25 33.5 c 256
 414.521 33.5 447 -17.8019 447 -87 c 256
 447 -175 409.655 -212.5 341.75 -212.5 c 256
 292.595 -212.5 275 -187.083 275 -166 c 257
 309.5 -166 l 257
 309.504 -173.44 316.147 -176 324 -176 c 256
 348.449 -176 360 -151.479 360 -90 c 256
 360 -45.0967 346.658 -17 328 -17 c 256
 310.332 -17 304.318 -29.2295 304.25 -45 c 257
 271.5 -45 l 257
 271.547 -29.335 279.175 -8.01894 290 2 c 257
 278.45 0.592773 261.333 -1 234 -1 c 256
 103 -1 31 69 31 169 c 256
EndSplineSet
EndChar

StartChar: si_DAa.halant
Encoding: 264 -1 41
GlifName: si_D_A_a.halant
Width: 657
VWidth: 0
GlyphClass: 2
Flags: W
LayerCount: 2
Back
Fore
SplineSet
115.25 169 m 256
 115.25 274 188.25 317 307.25 317 c 258
 424.5 317 l 257
 414.776 363.186 384.765 390 352.25 390 c 256
 333.25 390 318.799 378.911 310.25 361 c 256
 299.75 339 282.829 333 263 333 c 256
 238 333 220.25 349.75 220.25 370.75 c 256
 220.25 407.033 261.25 433 316.25 433 c 256
 401.989 433 445.99 388.542 463.25 291 c 257
 401.5 291 l 258
 313.5 291 268.5 257 268.5 173 c 256
 268.5 89 320.239 44 369.75 44 c 256
 400.099 44 425 48.25 465 94.25 c 257
 496.75 75 l 257
 476.75 58.333 460.367 41.1865 445 32.75 c 257
 448.333 33.417 446.5 33.5 450.5 33.5 c 256
 498.771 33.5 531.25 -17.8018 531.25 -87 c 256
 531.25 -175 493.905 -212.5 426 -212.5 c 256
 376.845 -212.5 359.25 -187.083 359.25 -166 c 257
 393.75 -166 l 257
 393.754 -173.44 400.397 -176 408.25 -176 c 256
 432.699 -176 444.25 -151.479 444.25 -90 c 256
 444.25 -45.0967 430.908 -17 412.25 -17 c 256
 394.582 -17 388.568 -29.2295 388.5 -45 c 257
 355.75 -45 l 257
 355.797 -29.335 363.425 -8.01855 374.25 2 c 257
 362.7 0.592773 345.583 -1 318.25 -1 c 256
 187.25 -1 115.25 69 115.25 169 c 256
502 -67 m 257
 502 681 l 257
 556 639 653.5 634 653.5 542 c 256
 653.5 498 618.691 468 575.5 468 c 256
 560.833 468 545.833 471.333 530.5 478 c 257
 530.5 -73 l 257
 502 -67 l 257
530.605 504.273 m 257
 539.1 499.699 549.882 497.413 562.948 497.413 c 256
 594.954 497.413 608.5 521.915 608.5 545.438 c 256
 608.5 586.602 576.67 606.203 530.605 636.587 c 257
 530.605 504.273 l 257
EndSplineSet
EndChar

StartChar: si_DAae
Encoding: 257 -1 42
GlifName: si_D_A_ae
Width: 461
VWidth: 0
GlyphClass: 2
Flags: W
LayerCount: 2
Back
Fore
SplineSet
31 169 m 256
 31 274 104 317 223 317 c 258
 340.25 317 l 257
 330.526 363.186 300.514 390 268 390 c 256
 249 390 234.549 378.911 226 361 c 256
 215.5 339 198.579 333 178.75 333 c 256
 153.75 333 136 349.75 136 370.75 c 256
 136 407.033 177 433 232 433 c 256
 317.739 433 361.74 388.542 379 291 c 257
 317.25 291 l 258
 229.25 291 184.25 257 184.25 173 c 256
 184.25 89 235.989 44 285.5 44 c 256
 315.849 44 340.75 48.25 380.75 94.25 c 257
 407 75 l 257
 406.73 67.5654 357 30.75 357 30.75 c 257
 426 30.75 l 257
 426 4.75 l 257
 363.75 -36 l 257
 424 -36 l 257
 424 -61.75 l 257
 411.604 -74.9144 393.5 -92.0703 393.5 -136 c 256
 393.5 -176.404 415.232 -200 432 -200 c 257
 432 -228.5 l 257
 429.328 -229.383 424.947 -229.75 421 -229.75 c 256
 364.651 -229.75 309 -189.072 309 -144 c 256
 309 -104.948 337.094 -75.0098 368 -61.25 c 257
 367.743 -61.5586 312 -61.75 312 -61.75 c 257
 312 -40 l 257
 335.441 -25.7754 357.429 -9.8457 381.5 3.75 c 257
 379.397 3.75 326 4 326 4 c 257
 308.94 -10.3356 277 -54.2386 277 -108 c 256
 277 -157.651 296.704 -193.58 315 -201 c 257
 315 -228.25 l 257
 311.208 -229.427 300.885 -230.25 296 -230.25 c 256
 233.773 -230.25 186 -197.723 186 -132 c 256
 186 -78.6526 224.958 -41.1085 272 1 c 257
 264.071 -0.615063 261.333 -1 234 -1 c 256
 103 -1 31 69 31 169 c 256
EndSplineSet
EndChar

StartChar: si_DAe
Encoding: 256 -1 43
GlifName: si_D_A_e
Width: 456
VWidth: 0
GlyphClass: 2
Flags: W
LayerCount: 2
Back
Fore
SplineSet
31 169 m 256
 31 274 104 317 223 317 c 258
 340.25 317 l 257
 330.526 363.186 300.514 390 268 390 c 256
 249 390 234.549 378.911 226 361 c 256
 215.5 339 198.579 333 178.75 333 c 256
 153.75 333 136 349.75 136 370.75 c 256
 136 407.033 177 433 232 433 c 256
 317.739 433 361.74 388.542 379 291 c 257
 317.25 291 l 258
 229.25 291 184.25 257 184.25 173 c 256
 184.25 89 235.989 44 285.5 44 c 256
 315.849 44 340.75 48.25 380.75 94.25 c 257
 407 75 l 257
 391.727 47.7496 385 5.1582 385 -60 c 256
 385 -127.798 408.945 -199.25 432 -199.25 c 257
 432 -228.5 l 257
 429.328 -229.383 424.947 -229.75 421 -229.75 c 256
 364.651 -229.75 308.5 -178.438 308.5 -105 c 256
 308.5 -50.1621 328.786 -10.3386 344 21 c 257
 315.873 4.47461 277 -54.2386 277 -108 c 256
 277 -157.651 288.825 -194.085 315 -201 c 257
 315 -228.25 l 257
 311.208 -229.427 300.885 -230.25 296 -230.25 c 256
 233.773 -230.25 186 -197.723 186 -132 c 256
 186 -78.6526 224.958 -41.1085 272 1 c 257
 264.071 -0.615063 261.333 -1 234 -1 c 256
 103 -1 31 69 31 169 c 256
EndSplineSet
EndChar

StartChar: si_DDdh.halant
Encoding: 487 -1 44
GlifName: si_D_D_dh.halant
Width: 729
VWidth: 0
GlyphClass: 2
Flags: W
LayerCount: 2
Back
Fore
SplineSet
236 536 m 256
 236 527 255 526 255 515 c 256
 255 513 254 510 252 508 c 257
 285 514 324.675 519 371 519 c 256
 477 519 562 492 620 424 c 257
 585 538 492 574 376 574 c 256
 309 574 236 560 236 536 c 256
125 195 m 256
 125 288 178.248 363.669 244 387 c 256
 264.667 394.333 287.667 398 313 398 c 257
 313 371 l 258
 309.651 371.289 306.316 371.437 303 371.437 c 256
 224 371.437 180 312 180 234 c 256
 180 197.558 206.567 140 280 140 c 256
 332.911 140 380 159 380 223 c 258
 380 249 l 257
 411 249 l 257
 411 223 l 258
 411 159 457.83 141 505 141 c 256
 588.206 141 617.576 217.905 617.576 295.5 c 256
 617.576 412.094 535 491.75 374 491.75 c 256
 298 491.75 215 480.126 134 448 c 257
 134 481 l 257
 166 490.257 216 501.057 216 508 c 256
 216 520 187 521 187 545 c 256
 187 583 255 629 370 629 c 256
 578 629 652 490 664 356 c 257
 673.166 331.008 680.5 289.347 680.5 247 c 256
 680.5 141.355 639.534 2.84217e-14 514 0 c 256
 464.667 0 425 19.6667 395 59 c 257
 364.333 20.3333 326.672 0 282 0 c 256
 180 0 125 96 125 195 c 256
27 211.5 m 256
 27 343.2 101.731 433 220.25 433 c 256
 246.319 433 288.876 427.134 313.25 398 c 257
 300.255 396.265 275.707 393.113 271.75 393 c 257
 266.632 398.879 247.82 404.5 223.75 404.5 c 256
 97.2451 404.5 58.75 297.872 58.75 208.5 c 256
 58.75 131.217 85.9997 75.2388 135 33.75 c 257
 135 0 l 257
 68.5828 33.2086 27 110.57 27 211.5 c 256
EndSplineSet
EndChar

StartChar: si_DDhI
Encoding: 488 -1 45
GlifName: si_D_D_hI_
Width: 729
VWidth: 0
GlyphClass: 2
Flags: W
LayerCount: 2
Back
Fore
SplineSet
27 211.5 m 256
 27 343.2 101.731 433 220.25 433 c 256
 246.319 433 288.876 427.134 313.25 398 c 257
 300.255 396.265 275.707 393.113 271.75 393 c 257
 266.632 398.879 247.82 404.5 223.75 404.5 c 256
 97.2451 404.5 58.75 297.872 58.75 208.5 c 256
 58.75 131.217 85.9997 75.2388 135 33.75 c 257
 135 0 l 257
 68.5828 33.2086 27 110.57 27 211.5 c 256
EndSplineSet
Refer: 84 -1 N 1 0 0 1 92 0 2
EndChar

StartChar: si_DDhIi
Encoding: 489 -1 46
GlifName: si_D_D_hI_i
Width: 729
VWidth: 0
GlyphClass: 2
Flags: W
LayerCount: 2
Back
Fore
SplineSet
27 211.5 m 256
 27 343.2 101.731 433 220.25 433 c 256
 246.319 433 288.876 427.134 313.25 398 c 257
 300.255 396.265 275.707 393.113 271.75 393 c 257
 266.632 398.879 247.82 404.5 223.75 404.5 c 256
 97.2451 404.5 58.75 297.872 58.75 208.5 c 256
 58.75 131.217 85.9997 75.2388 135 33.75 c 257
 135 0 l 257
 68.5828 33.2086 27 110.57 27 211.5 c 256
EndSplineSet
Refer: 85 -1 N 1 0 0 1 92 0 2
EndChar

StartChar: si_DDhU
Encoding: 490 -1 47
GlifName: si_D_D_hU_
Width: 729
VWidth: 0
GlyphClass: 2
Flags: W
LayerCount: 2
Back
Fore
SplineSet
143.75 -142.5 m 256
 143.75 -90.4912 190.043 -50.5 245.25 -50.5 c 256
 287.156 -50.5 324.5 -74.1416 339.25 -110 c 257
 306.5 -121.5 l 257
 299.676 -104.358 278.25 -81.75 245.25 -81.75 c 256
 208.546 -81.75 179.25 -109.716 179.25 -142.5 c 256
 179.25 -171.663 200.998 -192.5 270.75 -192.5 c 258
 632 -192.5 l 257
 632 128 l 257
 667.25 219 l 257
 667.25 -235 l 257
 249.25 -235 l 258
 169.707 -235 143.75 -186.092 143.75 -142.5 c 256
EndSplineSet
Refer: 49 -1 N 1 0 0 1 0 0 2
EndChar

StartChar: si_DDhUu
Encoding: 491 -1 48
GlifName: si_D_D_hU_u
Width: 729
VWidth: 0
GlyphClass: 2
Flags: W
LayerCount: 2
Back
Fore
SplineSet
143.25 -138 m 256
 143.25 -80 192.25 -40 245.25 -40 c 256
 287.25 -40 319.583 -55 342.25 -91 c 257
 309.25 -102 l 257
 297.934 -84.6992 279.25 -70 250.25 -70 c 256
 211.25 -70 186.25 -95.0762 186.25 -120 c 256
 186.25 -151.995 215.065 -167 249.25 -167 c 256
 325.465 -167 400.577 -114.5 508.25 -114.5 c 256
 559.332 -114.5 605.25 -133.75 632.25 -165.75 c 257
 632.25 152 l 257
 667.25 212 l 257
 667.25 -231 l 257
 641.75 -231 l 257
 626.75 -195 581.199 -146.25 518.25 -146.25 c 256
 427.25 -146.25 352.25 -237 254.25 -237 c 256
 199.25 -237 143.25 -206 143.25 -138 c 256
EndSplineSet
Refer: 49 -1 N 1 0 0 1 0 0 2
EndChar

StartChar: si_DDha
Encoding: 438 -1 49
GlifName: si_D_D_ha
Width: 729
VWidth: 0
GlyphClass: 2
Flags: W
LayerCount: 2
Back
Fore
SplineSet
27 211.5 m 256
 27 343.2 101.731 433 220.25 433 c 256
 246.319 433 288.876 427.134 313.25 398 c 257
 300.255 396.265 275.707 393.113 271.75 393 c 257
 266.632 398.879 247.82 404.5 223.75 404.5 c 256
 97.2451 404.5 58.75 297.872 58.75 208.5 c 256
 58.75 131.217 85.9997 75.2388 135 33.75 c 257
 135 0 l 257
 68.5828 33.2086 27 110.57 27 211.5 c 256
EndSplineSet
Refer: 460 3504 N 1 0 0 1 93 0 2
EndChar

StartChar: si_DI
Encoding: 258 -1 50
GlifName: si_D_I_
Width: 456
VWidth: 0
GlyphClass: 2
Flags: W
LayerCount: 2
Back
Fore
SplineSet
35.0801 518 m 256
 35.0801 618.565 126.303 671 223 671 c 256
 319.697 671 410.92 617.064 410.92 518 c 256
 410.92 443.457 347.584 406.19 295.09 405 c 257
 277.59 427.25 l 257
 333.701 427.251 354 458.508 354 488 c 256
 354 534.694 295.016 554 223 554 c 256
 150.984 554 90 536.646 90 488 c 256
 90 465.812 108.77 426.25 194 426.25 c 257
 150.91 405 l 257
 84.9511 414.727 35.0801 450.955 35.0801 518 c 256
EndSplineSet
Refer: 459 3503 N 1 0 0 1 0 0 2
EndChar

StartChar: si_DIi
Encoding: 259 -1 51
GlifName: si_D_I_i
Width: 456
VWidth: 0
GlyphClass: 2
Flags: W
LayerCount: 2
Back
Fore
SplineSet
249.364 492.5 m 256
 249.364 462.728 278.176 438.718 312.75 438.718 c 256
 347.324 438.718 376.136 462.728 376.136 492.5 c 256
 376.136 522.272 347.324 546.282 312.75 546.282 c 256
 278.176 546.282 249.364 522.272 249.364 492.5 c 256
35.0801 518 m 256
 35.0801 618.565 126.303 671 223 671 c 256
 319.697 671 411.92 619.928 411.92 511.25 c 256
 411.92 440.184 363.464 407.5 312.25 407.5 c 256
 252.575 407.5 214.75 448.5 214.75 493.5 c 256
 214.75 535.516 247.152 555.592 254 560 c 257
 247.29 560.581 239.412 561.25 224 561.25 c 256
 165.352 561.25 88 547.335 88 491.5 c 256
 88 463.723 108.77 426.75 194 426.75 c 257
 150.91 405 l 257
 84.9511 414.727 35.0801 450.955 35.0801 518 c 256
EndSplineSet
Refer: 459 3503 N 1 0 0 1 0 0 2
EndChar

StartChar: si_DRI
Encoding: 267 -1 52
GlifName: si_D_R_I_
Width: 456
VWidth: 0
GlyphClass: 2
Flags: W
LayerCount: 2
Back
Fore
SplineSet
35.0801 518 m 256
 35.0801 618.565 126.303 671 223 671 c 256
 319.697 671 410.92 617.064 410.92 518 c 256
 410.92 443.457 347.584 406.19 295.09 405 c 257
 277.59 427.25 l 257
 333.701 427.251 354 458.508 354 488 c 256
 354 534.694 295.016 554 223 554 c 256
 150.984 554 90 536.646 90 488 c 256
 90 465.812 108.77 426.25 194 426.25 c 257
 150.91 405 l 257
 84.9511 414.727 35.0801 450.955 35.0801 518 c 256
33.6611 -43 m 257
 60.8438 -43 l 257
 88.1373 -84.4018 126.962 -103.25 203.75 -103.25 c 256
 293.528 -103.25 379.654 -38.443 379.654 51 c 256
 379.654 72 379.189 66.0068 378.25 74 c 257
 407 78.75 l 257
 407.004 58.4798 407.25 75.667 407.25 39 c 256
 407.25 -108.6 319.976 -204.25 215 -204.25 c 256
 109.809 -204.25 53.2828 -144.604 33.6611 -43 c 257
31 169 m 256
 31 274 104 317 223 317 c 258
 340.25 317 l 257
 330.526 363.186 300.514 390 268 390 c 256
 249 390 234.549 378.911 226 361 c 256
 215.5 339 198.579 333 178.75 333 c 256
 153.75 333 136 349.75 136 370.75 c 256
 136 407.033 177 433 232 433 c 256
 317.739 433 361.74 388.542 379 291 c 257
 317.25 291 l 258
 229.25 291 184.25 257 184.25 173 c 256
 184.25 89 235.989 44 285.5 44 c 256
 315.849 44 340.75 48.25 380.75 94.25 c 257
 407 78.75 l 257
 366.378 30.0621 322.708 -1 234 -1 c 256
 103 -1 31 69 31 169 c 256
EndSplineSet
EndChar

StartChar: si_DRIi
Encoding: 268 -1 53
GlifName: si_D_R_I_i
Width: 456
VWidth: 0
GlyphClass: 2
Flags: W
LayerCount: 2
Back
Fore
SplineSet
249.364 492.5 m 256
 249.364 462.728 278.176 438.718 312.75 438.718 c 256
 347.324 438.718 376.136 462.728 376.136 492.5 c 256
 376.136 522.272 347.324 546.282 312.75 546.282 c 256
 278.176 546.282 249.364 522.272 249.364 492.5 c 256
35.0801 518 m 256
 35.0801 618.565 126.303 671 223 671 c 256
 319.697 671 411.92 619.928 411.92 511.25 c 256
 411.92 440.184 363.464 407.5 312.25 407.5 c 256
 252.575 407.5 214.75 448.5 214.75 493.5 c 256
 214.75 535.516 247.152 555.592 254 560 c 257
 247.29 560.581 239.412 561.25 224 561.25 c 256
 165.352 561.25 88 547.335 88 491.5 c 256
 88 463.723 108.77 426.75 194 426.75 c 257
 150.91 405 l 257
 84.9511 414.727 35.0801 450.955 35.0801 518 c 256
33.6611 -43 m 257
 60.8438 -43 l 257
 88.1373 -84.4018 126.962 -103.25 203.75 -103.25 c 256
 293.528 -103.25 379.654 -38.443 379.654 51 c 256
 379.654 72 379.189 66.0068 378.25 74 c 257
 407 78.75 l 257
 407.004 58.4798 407.25 75.667 407.25 39 c 256
 407.25 -108.6 319.976 -204.25 215 -204.25 c 256
 109.809 -204.25 53.2828 -144.604 33.6611 -43 c 257
31 169 m 256
 31 274 104 317 223 317 c 258
 340.25 317 l 257
 330.526 363.186 300.514 390 268 390 c 256
 249 390 234.549 378.911 226 361 c 256
 215.5 339 198.579 333 178.75 333 c 256
 153.75 333 136 349.75 136 370.75 c 256
 136 407.033 177 433 232 433 c 256
 317.739 433 361.74 388.542 379 291 c 257
 317.25 291 l 258
 229.25 291 184.25 257 184.25 173 c 256
 184.25 89 235.989 44 285.5 44 c 256
 315.849 44 340.75 48.25 380.75 94.25 c 257
 407 78.75 l 257
 366.378 30.0621 322.708 -1 234 -1 c 256
 103 -1 31 69 31 169 c 256
EndSplineSet
EndChar

StartChar: si_DRa
Encoding: 266 -1 54
GlifName: si_D_R_a
Width: 456
VWidth: 0
GlyphClass: 2
Flags: W
LayerCount: 2
Back
Fore
SplineSet
33.6611 -43 m 257
 60.8438 -43 l 257
 88.1373 -84.4018 126.962 -103.25 203.75 -103.25 c 256
 293.528 -103.25 379.654 -38.443 379.654 51 c 256
 379.654 72 379.189 66.0068 378.25 74 c 257
 407 78.75 l 257
 407.004 58.4798 407.25 75.667 407.25 39 c 256
 407.25 -108.6 319.976 -204.25 215 -204.25 c 256
 109.809 -204.25 53.2828 -144.604 33.6611 -43 c 257
31 169 m 256
 31 274 104 317 223 317 c 258
 340.25 317 l 257
 330.526 363.186 300.514 390 268 390 c 256
 249 390 234.549 378.911 226 361 c 256
 215.5 339 198.579 333 178.75 333 c 256
 153.75 333 136 349.75 136 370.75 c 256
 136 407.033 177 433 232 433 c 256
 317.739 433 361.74 388.542 379 291 c 257
 317.25 291 l 258
 229.25 291 184.25 257 184.25 173 c 256
 184.25 89 235.989 44 285.5 44 c 256
 315.849 44 340.75 48.25 380.75 94.25 c 257
 407 78.75 l 257
 366.378 30.0621 322.708 -1 234 -1 c 256
 103 -1 31 69 31 169 c 256
EndSplineSet
EndChar

StartChar: si_DU
Encoding: 260 -1 55
GlifName: si_D_U_
Width: 456
VWidth: 0
GlyphClass: 2
Flags: W
LayerCount: 2
Back
Fore
SplineSet
32.75 -142.5 m 256
 32.75 -90.4912 79.043 -50.5 134.25 -50.5 c 256
 176.156 -50.5 213.5 -74.1416 228.25 -110 c 257
 195.5 -121.5 l 257
 188.676 -104.358 167.25 -81.75 134.25 -81.75 c 256
 97.5459 -81.75 68.25 -109.716 68.25 -142.5 c 256
 68.25 -171.663 89.998 -192.5 159.75 -192.5 c 258
 371.5 -192.5 l 257
 371.5 71 l 257
 406.75 79 l 257
 406.75 -235 l 257
 138.25 -235 l 258
 58.707 -235 32.75 -186.092 32.75 -142.5 c 256
31 169 m 256
 31 274 104 317 223 317 c 258
 340.25 317 l 257
 330.526 363.186 300.514 390 268 390 c 256
 249 390 234.549 378.911 226 361 c 256
 215.5 339 198.579 333 178.75 333 c 256
 153.75 333 136 349.75 136 370.75 c 256
 136 407.033 177 433 232 433 c 256
 317.739 433 361.74 388.542 379 291 c 257
 317.25 291 l 258
 229.25 291 184.25 257 184.25 173 c 256
 184.25 89 235.989 44 285.5 44 c 256
 315.849 44 340.75 48.25 380.75 94.25 c 257
 406.5 79 l 257
 369.867 31.4547 322.708 -1 234 -1 c 256
 103 -1 31 69 31 169 c 256
EndSplineSet
EndChar

StartChar: si_DUu
Encoding: 261 -1 56
GlifName: si_D_U_u
Width: 456
VWidth: 0
GlyphClass: 2
Flags: W
LayerCount: 2
Back
Fore
SplineSet
33 -138 m 256
 33 -80 82 -40 135 -40 c 256
 177 -40 209.333 -55 232 -91 c 257
 199 -102 l 257
 187.684 -84.6992 169 -70 140 -70 c 256
 101 -70 76 -95.0762 76 -120 c 256
 76 -151.995 104.815 -167 139 -167 c 256
 205.981 -167 226.906 -127.5 295.5 -127.5 c 256
 322.705 -127.5 351.939 -138.361 372 -157.25 c 257
 372 69 l 257
 407 78.75 l 257
 407 -233.25 l 257
 381.5 -231 l 257
 366.5 -195 340.225 -159.25 296 -159.25 c 256
 241.912 -159.25 221.979 -237 134.75 -237 c 256
 79.75 -237 33 -206 33 -138 c 256
31 169 m 256
 31 274 104 317 223 317 c 258
 340.25 317 l 257
 330.526 363.186 300.514 390 268 390 c 256
 249 390 234.549 378.911 226 361 c 256
 215.5 339 198.579 333 178.75 333 c 256
 153.75 333 136 349.75 136 370.75 c 256
 136 407.033 177 433 232 433 c 256
 317.739 433 361.74 388.542 379 291 c 257
 317.25 291 l 258
 229.25 291 184.25 257 184.25 173 c 256
 184.25 89 235.989 44 285.5 44 c 256
 315.849 44 340.75 48.25 380.75 94.25 c 257
 407 78.75 l 257
 366.378 30.0621 322.708 -1 234 -1 c 256
 103 -1 31 69 31 169 c 256
EndSplineSet
EndChar

StartChar: si_DV.halant
Encoding: 492 -1 57
GlifName: si_D_V_.halant
Width: 688
VWidth: 0
GlyphClass: 2
Flags: W
LayerCount: 2
Back
Fore
SplineSet
124 165 m 256
 124 250 189 304 290 304 c 258
 347 304 l 258
 347.082 306.041 347.086 306.041 347.086 308 c 256
 347.086 358 315 387 282 387 c 256
 248 387 237 371 231.5 355 c 256
 224.951 335.948 213 319 187 319 c 256
 164 319 147 333.368 147 359 c 256
 147 406 197 431.5 252 431.5 c 256
 340 431.5 383.146 376 383.146 290 c 256
 383.146 286.722 383.101 280.388 383 277 c 258
 302 277 l 258
 228 277 192 250 192 213 c 256
 192 151 287 140 361 140 c 256
 512.917 140 575.943 210.985 574.991 315.755 c 256
 573.98 426.952 497.779 491.75 350 491.75 c 256
 274 491.75 211.25 478 130.25 440 c 257
 130.25 473 l 257
 162.25 485 211.75 499 211.75 508 c 256
 211.75 520 183.75 520.304 183.75 546 c 256
 183.75 583 249.814 629 356.25 629 c 256
 559.162 629 619.25 490 631.25 356 c 256
 637.507 328.237 639 305.4 639 274 c 256
 639 114 540.544 -0 358 0 c 256
 237 0 124 46 124 165 c 256
232.25 538 m 256
 232.25 526 251.25 526 251.25 515 c 256
 251.25 513 250.25 510 248.25 508 c 257
 280.129 514.684 306.675 519 353 519 c 256
 461 519 531.326 489.188 586.75 425.25 c 257
 553.867 535.95 474 574.25 358 574.25 c 256
 286 574.25 232.25 557.539 232.25 538 c 256
27 221 m 256
 27 352.7 99.7562 433 239 433 c 256
 248 433 271 433 293 427 c 257
 272 416 195 404 178 398 c 257
 106 381 59 319.268 59 218 c 256
 59 137.333 86 78 135 34 c 257
 135 0 l 257
 68.5828 33.2086 27 120.07 27 221 c 256
EndSplineSet
EndChar

StartChar: si_DVI
Encoding: 493 -1 58
GlifName: si_D_V_I_
Width: 688
VWidth: 0
GlyphClass: 2
Flags: W
LayerCount: 2
Back
Fore
SplineSet
138.5 562 m 256
 138.5 652 264 670 364 670 c 256
 500 670 608.75 639 608.75 554 c 256
 608.75 502 554.75 480 520.75 474 c 257
 470.75 490 l 257
 506.75 491 533.75 504.566 533.75 527 c 256
 533.75 564.309 472 581 364 581 c 256
 288.344 581 198.75 573.211 198.75 538 c 256
 198.75 511.059 240 508 342 504 c 256
 406.869 501.456 499.75 499 554.75 459 c 256
 603.896 423.257 640 357.262 640 268.75 c 257
 576 319.75 l 257
 576 333.803 575.23 380.832 548.5 415.75 c 256
 506.479 470.642 444.019 470.325 343 476 c 256
 254 481 138.5 476 138.5 562 c 256
125 165 m 256
 125 250 190 304 291 304 c 258
 348 304 l 257
 348.082 306.041 348.086 306.041 348.086 308 c 256
 348.086 358 316 387 283 387 c 256
 249 387 238 371 232.5 355 c 256
 225.951 335.948 214 319 188 319 c 256
 165 319 148 333.368 148 359 c 256
 148 406 198 431.5 253 431.5 c 256
 341 431.5 384.146 376 384.146 290 c 256
 384.146 286.722 384.101 280.388 384 277 c 257
 303 277 l 258
 229 277 193 250 193 213 c 256
 193 151 288 140 362 140 c 256
 515 140 576 213.738 576 325.75 c 257
 594.349 310.214 617.998 291.053 640 274 c 257
 640 114 542 0 359 0 c 256
 238 0 125 46 125 165 c 256
27 221 m 256
 27 352.7 99.7562 433 239 433 c 256
 248 433 271 433 293 427 c 257
 272 416 195 404 178 398 c 257
 106 381 59 319.268 59 218 c 256
 59 137.333 86 78 135 34 c 257
 135 0 l 257
 68.5828 33.2086 27 120.07 27 221 c 256
EndSplineSet
EndChar

StartChar: si_DVIi
Encoding: 494 -1 59
GlifName: si_D_V_I_i
Width: 688
VWidth: 0
GlyphClass: 2
Flags: W
LayerCount: 2
Back
Fore
SplineSet
457.897 538.75 m 256
 457.897 509.169 484.526 485.377 517 485.377 c 256
 549.474 485.377 576.103 509.169 576.103 538.75 c 256
 576.103 568.331 549.474 592.123 517 592.123 c 256
 484.526 592.123 457.897 568.331 457.897 538.75 c 256
139 562 m 256
 139 652 262.75 670 363 670 c 256
 499 670 609 640.054 609 541.75 c 256
 609 488.75 561 457.75 517 457.75 c 256
 473 457.75 425 488.75 425 541.75 c 256
 425 565.35 435.022 578.984 439 584 c 257
 430.659 585.578 397.481 588.5 361 588.5 c 256
 285.344 588.5 194 580.369 194 540 c 256
 194 510.989 239 508 341 504 c 256
 405.869 501.456 500 499 555 459 c 256
 604.146 423.257 640 359.205 640 269.25 c 257
 576 322 l 257
 576 346.583 572.656 385.429 547 416 c 256
 502.561 468.954 443.019 470.325 342 476 c 256
 253 481 139 476 139 562 c 256
125 165 m 256
 125 250 190 304 291 304 c 258
 348 304 l 257
 348.082 306.041 348.086 306.041 348.086 308 c 256
 348.086 358 316 387 283 387 c 256
 249 387 238 371 232.5 355 c 256
 225.951 335.948 214 319 188 319 c 256
 165 319 148 333.368 148 359 c 256
 148 406 198 431.5 253 431.5 c 256
 341 431.5 384.146 376 384.146 290 c 256
 384.146 286.722 384.101 280.388 384 277 c 257
 303 277 l 258
 229 277 193 250 193 213 c 256
 193 151 288 140 362 140 c 256
 515 140 576 213.738 576 325.75 c 257
 594.349 310.214 617.998 291.053 640 274 c 257
 640 114 542 0 359 0 c 256
 238 0 125 46 125 165 c 256
27 221 m 256
 27 352.7 99.7562 433 239 433 c 256
 248 433 271 433 293 427 c 257
 272 416 195 404 178 398 c 257
 106 381 59 319.268 59 218 c 256
 59 137.333 86 78 135 34 c 257
 135 0 l 257
 68.5828 33.2086 27 120.07 27 221 c 256
EndSplineSet
EndChar

StartChar: si_DVU
Encoding: 495 -1 60
GlifName: si_D_V_U_
Width: 688
VWidth: 0
GlyphClass: 2
Flags: W
LayerCount: 2
Back
Fore
SplineSet
136 -142.5 m 256
 136 -90.4912 182.293 -50.5 237.5 -50.5 c 256
 279.406 -50.5 316.75 -74.1416 331.5 -110 c 257
 298.75 -121.5 l 257
 291.926 -104.358 270.5 -81.75 237.5 -81.75 c 256
 200.796 -81.75 171.5 -109.716 171.5 -142.5 c 256
 171.5 -171.663 193.248 -192.5 263 -192.5 c 258
 594.75 -192.5 l 257
 594.75 128 l 257
 630 219 l 257
 630 -235 l 257
 241.5 -235 l 258
 161.957 -235 136 -186.092 136 -142.5 c 256
125 165 m 256
 125 250 190 304 291 304 c 258
 348 304 l 257
 348.082 306.041 348.086 306.041 348.086 308 c 256
 348.086 358 316 387 283 387 c 256
 249 387 238 371 232.5 355 c 256
 225.951 335.948 214 319 188 319 c 256
 165 319 148 333.368 148 359 c 256
 148 406 198 431.5 253 431.5 c 256
 341 431.5 384.146 376 384.146 290 c 256
 384.146 286.722 384.101 280.388 384 277 c 257
 303 277 l 258
 229 277 193 250 193 213 c 256
 193 151 288 140 362 140 c 256
 515 140 583 211 583 317 c 256
 583 436 502.498 551 368 551 c 256
 288.667 551 228 522 184 470 c 257
 149 470 l 257
 197.667 540 270 577 368 577 c 256
 528.151 577 640 443 640 274 c 256
 640 114 542 0 359 0 c 256
 238 0 125 46 125 165 c 256
27 221 m 256
 27 352.7 99.7562 433 239 433 c 256
 248 433 271 433 293 427 c 257
 272 416 195 404 178 398 c 257
 106 381 59 319.268 59 218 c 256
 59 137.333 86 78 135 34 c 257
 135 0 l 257
 68.5828 33.2086 27 120.07 27 221 c 256
EndSplineSet
EndChar

StartChar: si_DVUu
Encoding: 496 -1 61
GlifName: si_D_V_U_u
Width: 688
VWidth: 0
GlyphClass: 2
Flags: W
LayerCount: 2
Back
Fore
SplineSet
138 -138 m 256
 138 -80 187 -40 240 -40 c 256
 282 -40 314.333 -55 337 -91 c 257
 304 -102 l 257
 292.684 -84.6992 274 -70 245 -70 c 256
 206 -70 181 -95.0762 181 -120 c 256
 181 -151.995 209.815 -167 244 -167 c 256
 320.215 -167 376.451 -114.5 476.5 -114.5 c 256
 523.085 -114.5 568 -133.75 595 -165.75 c 257
 595 152 l 257
 630 212 l 257
 630 -231 l 257
 604.5 -231 l 257
 589.5 -195 549.449 -146.25 486.5 -146.25 c 256
 395.5 -146.25 347 -237 249 -237 c 256
 194 -237 138 -206 138 -138 c 256
125 165 m 256
 125 250 190 304 291 304 c 258
 348 304 l 257
 348.082 306.041 348.086 306.041 348.086 308 c 256
 348.086 358 316 387 283 387 c 256
 249 387 238 371 232.5 355 c 256
 225.951 335.948 214 319 188 319 c 256
 165 319 148 333.368 148 359 c 256
 148 406 198 431.5 253 431.5 c 256
 341 431.5 384.146 376 384.146 290 c 256
 384.146 286.722 384.101 280.388 384 277 c 257
 303 277 l 258
 229 277 193 250 193 213 c 256
 193 151 288 140 362 140 c 256
 515 140 583 211 583 317 c 256
 583 436 502.498 551 368 551 c 256
 288.667 551 228 522 184 470 c 257
 149 470 l 257
 197.667 540 270 577 368 577 c 256
 528.151 577 640 443 640 274 c 256
 640 114 542 0 359 0 c 256
 238 0 125 46 125 165 c 256
27 221 m 256
 27 352.7 99.7562 433 239 433 c 256
 248 433 271 433 293 427 c 257
 272 416 195 404 178 398 c 257
 106 381 59 319.268 59 218 c 256
 59 137.333 86 78 135 34 c 257
 135 0 l 257
 68.5828 33.2086 27 120.07 27 221 c 256
EndSplineSet
EndChar

StartChar: si_DVa
Encoding: 439 -1 62
GlifName: si_D_V_a
Width: 688
VWidth: 0
GlyphClass: 2
Flags: W
LayerCount: 2
Back
Fore
SplineSet
125 165 m 256
 125 250 190 304 291 304 c 258
 348 304 l 257
 348.082 306.041 348.086 306.041 348.086 308 c 256
 348.086 358 316 387 283 387 c 256
 249 387 238 371 232.5 355 c 256
 225.951 335.948 214 319 188 319 c 256
 165 319 148 333.368 148 359 c 256
 148 406 198 431.5 253 431.5 c 256
 341 431.5 384.146 376 384.146 290 c 256
 384.146 286.722 384.101 280.388 384 277 c 257
 303 277 l 258
 229 277 193 250 193 213 c 256
 193 151 288 140 362 140 c 256
 515 140 583 211 583 317 c 256
 583 436 502.498 551 368 551 c 256
 288.667 551 228 522 184 470 c 257
 149 470 l 257
 197.667 540 270 577 368 577 c 256
 528.151 577 640 443 640 274 c 256
 640 114 542 0 359 0 c 256
 238 0 125 46 125 165 c 256
27 221 m 256
 27 352.7 99.7562 433 239 433 c 256
 248 433 271 433 293 427 c 257
 272 416 195 404 178 398 c 257
 106 381 59 319.268 59 218 c 256
 59 137.333 86 78 135 34 c 257
 135 0 l 257
 68.5828 33.2086 27 120.07 27 221 c 256
EndSplineSet
EndChar

StartChar: si_DYAa.post
Encoding: 270 -1 63
GlifName: si_D_Y_A_a.post
Width: 787
VWidth: 0
GlyphClass: 2
Flags: W
LayerCount: 2
Back
Fore
SplineSet
592.25 -31 m 257
 621.5 -31 l 257
 621.503 -6.51953 634.112 9 649 9 c 256
 670.411 9 679 -29.0967 679 -74 c 256
 679 -135.479 671.567 -166 645 -166 c 256
 631.98 -166 625.773 -156.229 625.75 -146 c 257
 597 -146 l 257
 597 -167.083 607.473 -198.5 663 -198.5 c 256
 722.117 -198.5 762 -161 762 -73 c 256
 762 -3.80176 728.308 47.5 674.5 47.5 c 256
 615.604 47.5 592.362 6.57666 592.25 -31 c 257
340 46 m 257
 348.723 48.0625 353.999 50 364 50 c 256
 389.143 50 424.15 10.6006 424.15 -41.5996 c 256
 424.15 -77 417.496 -93.6992 412.5 -106 c 257
 432.562 -113.706 447.003 -116 469 -116 c 256
 506.359 -116 521 -95.6582 521 -80 c 256
 521 -52.0613 496.482 -47.5674 478 -44 c 256
 464.782 -41.4482 440.5 -28.5635 440.5 -1 c 256
 440.5 38.1152 471.656 53.7998 508.15 53.7998 c 256
 543.55 53.7998 571.15 34.6006 571.15 -0.799805 c 256
 571.15 -4.7998 570.75 -8.7998 569.95 -12.7998 c 257
 540.6 -12.7998 l 257
 541.399 -9.2002 541.8 -5.59961 541.8 -2 c 256
 541.8 11.8711 533.8 27.25 508 27.25 c 256
 493.28 27.25 469.75 22.9329 469.75 0.5 c 256
 469.75 -18.71 484.6 -22 508 -22 c 256
 543.401 -22 592.75 -45.915 592.75 -107 c 256
 592.75 -165.8 539.95 -205.399 487.75 -205.399 c 256
 441.178 -205.399 411.55 -192.8 382.75 -155.6 c 257
 364.142 -176.636 337.708 -196.467 311.95 -204.8 c 257
 294.5 -179.75 l 257
 343.836 -162.454 393.75 -117.436 393.75 -44 c 256
 393.75 -9.6582 371.248 25.5 350 25.5 c 256
 340.8 25.5 334.679 23.9941 328 23.25 c 257
 340 46 l 257
234 -1 m 256
 103 -1 31 69 31 169 c 256
 31 274 104 317 223 317 c 258
 340.25 317 l 257
 330.526 363.186 300.514 390 268 390 c 256
 249 390 234.549 378.911 226 361 c 256
 215.5 339 198.579 333 178.75 333 c 256
 153.75 333 136 349.75 136 370.75 c 256
 136 407.033 177 433 232 433 c 256
 317.739 433 361.74 388.542 379 291 c 257
 317.25 291 l 258
 229.25 291 184.25 257 184.25 173 c 256
 184.25 89 235.989 44 285.5 44 c 256
 315.849 44 340.75 48.25 380.75 94.25 c 257
 412.5 75 l 257
 365.043 28.5498 325.778 -1 234 -1 c 256
EndSplineSet
EndChar

StartChar: si_DYOo.post
Encoding: 273 -1 64
GlifName: si_D_Y_O_o.post
Width: 895
VWidth: 0
GlyphClass: 2
Flags: W
LayerCount: 2
Back
Fore
SplineSet
729.5 -67 m 257
 729.5 681 l 257
 783.5 639 881 634 881 542 c 256
 881 498 846.191 468 803 468 c 256
 788.333 468 773.333 471.333 758 478 c 257
 758 -73 l 257
 729.5 -67 l 257
758.105 636.587 m 257
 758.105 504.273 l 257
 766.6 499.699 777.382 497.413 790.448 497.413 c 256
 822.454 497.413 836 521.915 836 545.438 c 256
 836 586.602 804.17 606.203 758.105 636.587 c 257
592.25 -31 m 257
 592.362 6.57666 615.604 47.5 674.5 47.5 c 256
 728.308 47.5 762 -3.80176 762 -73 c 256
 762 -161 722.117 -198.5 663 -198.5 c 256
 607.473 -198.5 597 -167.083 597 -146 c 257
 625.75 -146 l 257
 625.773 -156.229 631.98 -166 645 -166 c 256
 671.567 -166 679 -135.479 679 -74 c 256
 679 -29.0967 670.411 9 649 9 c 256
 634.112 9 621.503 -6.51953 621.5 -31 c 257
 592.25 -31 l 257
340 46 m 257
 348.723 48.0625 353.999 50 364 50 c 256
 389.143 50 424.15 10.6006 424.15 -41.5996 c 256
 424.15 -77 417.496 -93.6992 412.5 -106 c 257
 432.562 -113.706 447.003 -116 469 -116 c 256
 506.359 -116 521 -95.6582 521 -80 c 256
 521 -52.0613 496.482 -47.5674 478 -44 c 256
 464.782 -41.4482 440.5 -28.5635 440.5 -1 c 256
 440.5 38.1152 471.656 53.7998 508.15 53.7998 c 256
 543.55 53.7998 571.15 34.6006 571.15 -0.799805 c 256
 571.15 -4.7998 570.75 -8.7998 569.95 -12.7998 c 257
 540.6 -12.7998 l 257
 541.399 -9.2002 541.8 -5.59961 541.8 -2 c 256
 541.8 11.8711 533.8 27.25 508 27.25 c 256
 493.28 27.25 469.75 22.9329 469.75 0.5 c 256
 469.75 -18.71 484.6 -22 508 -22 c 256
 543.401 -22 592.75 -45.915 592.75 -107 c 256
 592.75 -165.8 539.95 -205.399 487.75 -205.399 c 256
 441.178 -205.399 411.55 -192.8 382.75 -155.6 c 257
 364.142 -176.636 337.708 -196.467 311.95 -204.8 c 257
 294.5 -179.75 l 257
 343.836 -162.454 393.75 -117.436 393.75 -44 c 256
 393.75 -9.6582 371.248 25.5 350 25.5 c 256
 340.8 25.5 334.679 23.9941 328 23.25 c 257
 340 46 l 257
234 -1 m 256
 103 -1 31 69 31 169 c 256
 31 274 104 317 223 317 c 258
 340.25 317 l 257
 330.526 363.186 300.514 390 268 390 c 256
 249 390 234.549 378.911 226 361 c 256
 215.5 339 198.579 333 178.75 333 c 256
 153.75 333 136 349.75 136 370.75 c 256
 136 407.033 177 433 232 433 c 256
 317.739 433 361.74 388.542 379 291 c 257
 317.25 291 l 258
 229.25 291 184.25 257 184.25 173 c 256
 184.25 89 235.989 44 285.5 44 c 256
 315.849 44 340.75 48.25 380.75 94.25 c 257
 412.5 75 l 257
 365.043 28.5498 325.778 -1 234 -1 c 256
EndSplineSet
EndChar

StartChar: si_DYUu.post
Encoding: 272 -1 65
GlifName: si_D_Y_U_u.post
Width: 614
VWidth: 0
GlyphClass: 2
Flags: W
LayerCount: 2
Back
Fore
SplineSet
340 46 m 257
 348.723 48.0625 353.999 50 364 50 c 256
 389.143 50 424.15 10.6006 424.15 -41.5996 c 256
 424.15 -77 417.496 -93.6992 412.5 -106 c 257
 432.562 -113.706 447.003 -116 469 -116 c 256
 506.359 -116 521 -95.6582 521 -80 c 256
 521 -52.0613 496.482 -47.5674 478 -44 c 256
 464.782 -41.4482 440.5 -28.5635 440.5 -1 c 256
 440.5 38.1152 471.656 53.7998 508.15 53.7998 c 256
 543.55 53.7998 571.15 34.6006 571.15 -0.799805 c 256
 571.15 -4.7998 570.75 -8.7998 569.95 -12.7998 c 257
 540.6 -12.7998 l 257
 541.399 -9.2002 541.8 -5.59961 541.8 -2 c 256
 541.8 11.8711 533.8 27.25 508 27.25 c 256
 493.28 27.25 469.75 22.9329 469.75 0.5 c 256
 469.75 -18.71 484.6 -22 508 -22 c 256
 543.401 -22 592.75 -45.915 592.75 -107 c 256
 592.75 -165.8 539.95 -205.399 487.75 -205.399 c 256
 441.178 -205.399 411.55 -192.8 382.75 -155.6 c 257
 364.142 -176.636 337.708 -196.467 311.95 -204.8 c 257
 294.5 -179.75 l 257
 343.836 -162.454 393.75 -117.436 393.75 -44 c 256
 393.75 -9.6582 371.248 25.5 350 25.5 c 256
 340.8 25.5 334.679 23.9941 328 23.25 c 257
 340 46 l 257
234 -1 m 256
 103 -1 31 69 31 169 c 256
 31 274 104 317 223 317 c 258
 340.25 317 l 257
 330.526 363.186 300.514 390 268 390 c 256
 249 390 234.549 378.911 226 361 c 256
 215.5 339 198.579 333 178.75 333 c 256
 153.75 333 136 349.75 136 370.75 c 256
 136 407.033 177 433 232 433 c 256
 317.739 433 361.74 388.542 379 291 c 257
 317.25 291 l 258
 229.25 291 184.25 257 184.25 173 c 256
 184.25 89 235.989 44 285.5 44 c 256
 315.849 44 340.75 48.25 380.75 94.25 c 257
 412.5 75 l 257
 365.043 28.5498 325.778 -1 234 -1 c 256
586 -139 m 257
 586 -343.5 l 257
 586 -343.5 570.389 -343.448 562 -342.925 c 257
 553.669 -326.673 533.127 -314.25 500 -314.25 c 256
 452.717 -314.25 432.695 -348 377.25 -348 c 256
 337.963 -348 307 -322.852 307 -282 c 256
 307 -243.854 334.477 -220 373 -220 c 256
 404.446 -220 420.663 -235.522 430.75 -257.25 c 257
 406 -270 l 257
 399.077 -254.615 387.257 -246 371 -246 c 256
 349.735 -246 338 -260.359 338 -272 c 256
 338 -293.493 361.377 -300 387 -300 c 256
 437.268 -300 453.924 -286 504 -286 c 256
 541.721 -286 556 -302.5 556 -302.5 c 257
 556 -175.5 l 257
 586 -139 l 257
EndSplineSet
EndChar

StartChar: si_DYa.post
Encoding: 269 -1 66
GlifName: si_D_Y_a.post
Width: 614
VWidth: 0
GlyphClass: 2
Flags: W
LayerCount: 2
Back
Fore
SplineSet
340 46 m 257
 348.723 48.0625 353.999 50 364 50 c 256
 389.143 50 424.15 10.6006 424.15 -41.5996 c 256
 424.15 -77 417.496 -93.6992 412.5 -106 c 257
 432.562 -113.706 447.003 -116 469 -116 c 256
 506.359 -116 521 -95.6582 521 -80 c 256
 521 -52.0613 496.482 -47.5674 478 -44 c 256
 464.782 -41.4482 440.5 -28.5635 440.5 -1 c 256
 440.5 38.1152 471.656 53.7998 508.15 53.7998 c 256
 543.55 53.7998 571.15 34.6006 571.15 -0.799805 c 256
 571.15 -4.7998 570.75 -8.7998 569.95 -12.7998 c 257
 540.6 -12.7998 l 257
 541.399 -9.2002 541.8 -5.59961 541.8 -2 c 256
 541.8 11.8711 533.8 27.25 508 27.25 c 256
 493.28 27.25 469.75 22.9329 469.75 0.5 c 256
 469.75 -18.71 484.6 -22 508 -22 c 256
 543.401 -22 592.75 -45.915 592.75 -107 c 256
 592.75 -165.8 539.95 -205.399 487.75 -205.399 c 256
 441.178 -205.399 411.55 -192.8 382.75 -155.6 c 257
 364.142 -176.636 337.708 -196.467 311.95 -204.8 c 257
 294.5 -179.75 l 257
 343.836 -162.454 393.75 -117.436 393.75 -44 c 256
 393.75 -9.6582 371.248 25.5 350 25.5 c 256
 340.8 25.5 334.679 23.9941 328 23.25 c 257
 340 46 l 257
234 -1 m 256
 103 -1 31 69 31 169 c 256
 31 274 104 317 223 317 c 258
 340.25 317 l 257
 330.526 363.186 300.514 390 268 390 c 256
 249 390 234.549 378.911 226 361 c 256
 215.5 339 198.579 333 178.75 333 c 256
 153.75 333 136 349.75 136 370.75 c 256
 136 407.033 177 433 232 433 c 256
 317.739 433 361.74 388.542 379 291 c 257
 317.25 291 l 258
 229.25 291 184.25 257 184.25 173 c 256
 184.25 89 235.989 44 285.5 44 c 256
 315.849 44 340.75 48.25 380.75 94.25 c 257
 412.5 75 l 257
 365.043 28.5498 325.778 -1 234 -1 c 256
EndSplineSet
EndChar

StartChar: si_DYu.post
Encoding: 271 -1 67
GlifName: si_D_Y_u.post
Width: 614
VWidth: 0
GlyphClass: 2
Flags: W
LayerCount: 2
Back
Fore
SplineSet
340 46 m 257
 348.723 48.0625 353.999 50 364 50 c 256
 389.143 50 424.15 10.6006 424.15 -41.5996 c 256
 424.15 -77 417.496 -93.6992 412.5 -106 c 257
 432.562 -113.706 447.003 -116 469 -116 c 256
 506.359 -116 521 -95.6582 521 -80 c 256
 521 -52.0613 496.482 -47.5674 478 -44 c 256
 464.782 -41.4482 440.5 -28.5635 440.5 -1 c 256
 440.5 38.1152 471.656 53.7998 508.15 53.7998 c 256
 543.55 53.7998 571.15 34.6006 571.15 -0.799805 c 256
 571.15 -4.7998 570.75 -8.7998 569.95 -12.7998 c 257
 540.6 -12.7998 l 257
 541.399 -9.2002 541.8 -5.59961 541.8 -2 c 256
 541.8 11.8711 533.8 27.25 508 27.25 c 256
 493.28 27.25 469.75 22.9329 469.75 0.5 c 256
 469.75 -18.71 484.6 -22 508 -22 c 256
 543.401 -22 592.75 -45.915 592.75 -107 c 256
 592.75 -165.8 539.95 -205.399 487.75 -205.399 c 256
 441.178 -205.399 411.55 -192.8 382.75 -155.6 c 257
 364.142 -176.636 337.708 -196.467 311.95 -204.8 c 257
 294.5 -179.75 l 257
 343.836 -162.454 393.75 -117.436 393.75 -44 c 256
 393.75 -9.6582 371.248 25.5 350 25.5 c 256
 340.8 25.5 334.679 23.9941 328 23.25 c 257
 340 46 l 257
234 -1 m 256
 103 -1 31 69 31 169 c 256
 31 274 104 317 223 317 c 258
 340.25 317 l 257
 330.526 363.186 300.514 390 268 390 c 256
 249 390 234.549 378.911 226 361 c 256
 215.5 339 198.579 333 178.75 333 c 256
 153.75 333 136 349.75 136 370.75 c 256
 136 407.033 177 433 232 433 c 256
 317.739 433 361.74 388.542 379 291 c 257
 317.25 291 l 258
 229.25 291 184.25 257 184.25 173 c 256
 184.25 89 235.989 44 285.5 44 c 256
 315.849 44 340.75 48.25 380.75 94.25 c 257
 412.5 75 l 257
 365.043 28.5498 325.778 -1 234 -1 c 256
586 -139 m 257
 586 -348 l 257
 388.75 -348 l 258
 333.594 -348 307 -318.273 307 -280 c 256
 307 -245.332 334.477 -220 373 -220 c 256
 404.446 -220 420.663 -235.522 430.75 -257.25 c 257
 406 -268 l 257
 398.295 -254.082 388.257 -246 372 -246 c 256
 350.735 -246 339 -260.097 339 -273 c 256
 339 -294.458 354.296 -306.5 401.75 -306.5 c 258
 555.25 -306.5 l 257
 555.25 -175.5 l 257
 586 -139 l 257
EndSplineSet
EndChar

StartChar: si_Da.reph
Encoding: 265 -1 68
GlifName: si_D_a.reph
Width: 456
VWidth: 0
GlyphClass: 2
Flags: W
LayerCount: 2
Back
Fore
SplineSet
199.4 511 m 256
 199.4 490.854 217.628 474.547 239.5 474.547 c 256
 261.372 474.547 279.6 490.854 279.6 511 c 256
 279.6 531.146 261.372 547.453 239.5 547.453 c 256
 217.628 547.453 199.4 531.146 199.4 511 c 256
96.5 530 m 256
 96.5 594 154.62 631 236.5 631 c 256
 313.5 631 377.5 588 377.5 517 c 256
 377.5 493 369.167 471.333 352.5 452 c 257
 316.75 452 l 257
 329.92 464.387 345.5 488.734 345.5 516 c 256
 345.5 570.521 296.5 602.5 235.5 602.5 c 256
 182.722 602.5 129.25 579.99 129.25 530 c 256
 129.25 490.925 172.401 473.688 190 471.25 c 257
 182 477.25 171.5 491 171.5 512 c 256
 171.5 547 202.854 572 238.5 572 c 256
 279.5 572 307.5 545 307.5 510 c 256
 307.5 471 272.5 445 214.5 445 c 256
 155.5 445 96.5 474 96.5 530 c 256
EndSplineSet
Refer: 459 3503 N 1 0 0 1 0 0 2
EndChar

StartChar: si_Dd.halant
Encoding: 214 -1 69
GlifName: si_D_d.halant
Width: 647
VWidth: 0
GlyphClass: 2
Flags: W
LayerCount: 2
Back
Fore
SplineSet
152 538 m 256
 152 526 171 526 171 515 c 256
 171 513 170 510 168 508 c 257
 201 514 240.675 519 287 519 c 256
 395 519 480.076 489.188 535.5 425.25 c 257
 502.617 535.95 408 574.25 292 574.25 c 256
 220 574.25 152 557.539 152 538 c 256
50 440 m 257
 50 473 l 257
 82 485 131.5 499 131.5 508 c 256
 131.5 520 103.5 520.304 103.5 546 c 256
 103.5 583 171 629 286 629 c 256
 494 629 568 490 580 356 c 257
 591.972 331.014 598 288.219 598 256 c 257
 539.25 290.5 l 257
 539.25 298.5 539.076 294.5 539.076 298.5 c 256
 539.076 408.29 453 491.75 284 491.75 c 256
 208 491.75 131 478 50 440 c 257
15 285 m 257
 15 315 l 257
 258 315 l 257
 256 350 231 388.268 197 388.268 c 256
 188 388.268 169.203 387.365 154 360 c 256
 144 342 129 335.264 113 335.264 c 256
 89 335.264 73.2109 351 73.2109 373.122 c 256
 73.2109 413 121.101 432.167 163.279 432.167 c 256
 242 432.167 295 384 295 285 c 257
 224 285 l 258
 130.957 285 109.392 234 109.392 210 c 256
 109.392 164 149.99 140 203 140 c 256
 267 140 297 161 297 200 c 258
 297 221 l 257
 328 221 l 257
 328 200 l 258
 328 164 353 140 414 140 c 256
 489 140 539.144 200 539.144 293.218 c 257
 557.852 284.318 575.804 266.905 597.987 258.222 c 257
 597.987 110 547.007 -0.0251312 427.656 -0.0251312 c 256
 363.028 -0.0251312 334.63 28.5207 313 59 c 257
 283.406 21.6861 250 0 199 0 c 256
 97.9838 0 45.8805 81.1903 45.8805 162 c 256
 45.8805 212 71.0488 261.198 125 285 c 257
 15 285 l 257
EndSplineSet
EndChar

StartChar: si_DdI
Encoding: 215 -1 70
GlifName: si_D_dI_
Width: 647
VWidth: 0
GlyphClass: 2
Flags: W
LayerCount: 2
Back
Fore
SplineSet
79.25 562 m 256
 79.25 652 215.25 670 315.25 670 c 256
 451.25 670 565.75 639 565.75 554 c 256
 565.75 502 511.75 480 477.75 474 c 257
 427.75 490 l 257
 463.75 491 490.75 504.566 490.75 527 c 256
 490.75 564.309 423.25 581 315.25 581 c 256
 239.594 581 138.25 573.211 138.25 538 c 256
 138.25 511.059 191.25 508 293.25 504 c 256
 358.119 501.456 456.75 499 511.75 459 c 256
 560.896 423.257 598 344.262 598 255.75 c 257
 540.5 293.75 l 257
 540.5 335.469 534.366 377.839 507.5 413.25 c 256
 465.717 468.323 395.269 470.325 294.25 476 c 256
 205.25 481 79.25 476 79.25 562 c 256
15 285 m 257
 15 315 l 257
 258 315 l 257
 256 350 231 388.268 197 388.268 c 256
 188 388.268 169.203 387.365 154 360 c 256
 144 342 129 335.264 113 335.264 c 256
 89 335.264 73.2109 351 73.2109 373.122 c 256
 73.2109 413 121.101 432.167 163.279 432.167 c 256
 242 432.167 295 384 295 285 c 257
 224 285 l 258
 130.957 285 109.392 234 109.392 210 c 256
 109.392 164 149.99 140 203 140 c 256
 267 140 297 161 297 200 c 258
 297 221 l 257
 328 221 l 257
 328 200 l 258
 328 164 353 140 414 140 c 256
 489 140 540.644 198.166 540.644 298.468 c 257
 559.353 289.568 575.804 266.905 597.987 258.222 c 257
 597.987 110 547.007 -0.0251312 427.656 -0.0251312 c 256
 363.028 -0.0251312 334.63 28.5207 313 59 c 257
 283.406 21.6861 250 0 199 0 c 256
 97.9838 0 45.8805 81.1903 45.8805 162 c 256
 45.8805 212 71.0488 261.198 125 285 c 257
 15 285 l 257
EndSplineSet
EndChar

StartChar: si_DdIi
Encoding: 216 -1 71
GlifName: si_D_dI_i
Width: 647
VWidth: 0
GlyphClass: 2
Flags: W
LayerCount: 2
Back
Fore
SplineSet
415.397 538.75 m 256
 415.397 509.169 442.026 485.377 474.5 485.377 c 256
 506.974 485.377 533.603 509.169 533.603 538.75 c 256
 533.603 568.331 506.974 592.123 474.5 592.123 c 256
 442.026 592.123 415.397 568.331 415.397 538.75 c 256
79.5 562 m 256
 79.5 652 215.75 670 316 670 c 256
 452 670 566.5 640.054 566.5 541.75 c 256
 566.5 488.75 518.5 457.75 474.5 457.75 c 256
 430.5 457.75 382.5 488.75 382.5 541.75 c 256
 382.5 565.35 392.522 578.984 396.5 584 c 257
 388.159 585.578 350.481 588.5 314 588.5 c 256
 238.344 588.5 134.5 580.369 134.5 540 c 256
 134.5 510.989 192 508 294 504 c 256
 358.869 501.456 457.5 499 512.5 459 c 256
 561.646 423.257 598 354.289 598 256 c 257
 540.75 295.25 l 257
 540.75 348.021 532.164 383.083 504.5 416 c 256
 460.022 468.922 396.019 470.325 295 476 c 256
 206 481 79.5 476 79.5 562 c 256
15 285 m 257
 15 315 l 257
 258 315 l 257
 256 350 231 388.268 197 388.268 c 256
 188 388.268 169.203 387.365 154 360 c 256
 144 342 129 335.264 113 335.264 c 256
 89 335.264 73.2109 351 73.2109 373.122 c 256
 73.2109 413 121.101 432.167 163.279 432.167 c 256
 242 432.167 295 384 295 285 c 257
 224 285 l 258
 130.957 285 109.392 234 109.392 210 c 256
 109.392 164 149.99 140 203 140 c 256
 267 140 297 161 297 200 c 258
 297 221 l 257
 328 221 l 257
 328 200 l 258
 328 164 353 140 414 140 c 256
 489 140 540.644 198.166 540.644 298.468 c 257
 559.353 289.568 575.804 266.905 597.987 258.222 c 257
 597.987 110 547.007 -0.0251312 427.656 -0.0251312 c 256
 363.028 -0.0251312 334.63 28.5207 313 59 c 257
 283.406 21.6861 250 0 199 0 c 256
 97.9838 0 45.8805 81.1903 45.8805 162 c 256
 45.8805 212 71.0488 261.198 125 285 c 257
 15 285 l 257
EndSplineSet
EndChar

StartChar: si_DdRI
Encoding: 221 -1 72
GlifName: si_D_dR_I_
Width: 647
VWidth: 0
GlyphClass: 2
Flags: W
LayerCount: 2
Back
Fore
SplineSet
55.75 -44 m 257
 85.25 -44 l 257
 122.726 -86.9578 189.667 -114.25 295 -114.25 c 256
 438 -114.25 549 -31.0107 549 63.25 c 256
 549 78.2842 547.438 90.446 542 102 c 257
 555 133 l 257
 573 106.333 582 74.667 582 38 c 256
 582 -123.729 453.75 -219 309.75 -219 c 256
 176.75 -219 93.083 -153.333 55.75 -44 c 257
EndSplineSet
Refer: 70 -1 N 1 0 0 1 0 0 2
EndChar

StartChar: si_DdRIi
Encoding: 222 -1 73
GlifName: si_D_dR_I_i
Width: 647
VWidth: 0
GlyphClass: 2
Flags: W
LayerCount: 2
Back
Fore
SplineSet
55.75 -44 m 257
 85.25 -44 l 257
 122.726 -86.9578 189.667 -114.25 295 -114.25 c 256
 438 -114.25 549 -31.0107 549 63.25 c 256
 549 78.2842 547.438 90.446 542 102 c 257
 555 133 l 257
 573 106.333 582 74.667 582 38 c 256
 582 -123.729 453.75 -219 309.75 -219 c 256
 176.75 -219 93.083 -153.333 55.75 -44 c 257
EndSplineSet
Refer: 71 -1 N 1 0 0 1 0 0 2
EndChar

StartChar: si_DdRa
Encoding: 220 -1 74
GlifName: si_D_dR_a
Width: 647
VWidth: 0
GlyphClass: 2
Flags: W
LayerCount: 2
Back
Fore
SplineSet
55.75 -44 m 257
 85.25 -44 l 257
 122.726 -86.9578 189.667 -114.25 295 -114.25 c 256
 438 -114.25 549 -31.0107 549 63.25 c 256
 549 78.2842 547.438 90.446 542 102 c 257
 555 133 l 257
 573 106.333 582 74.667 582 38 c 256
 582 -123.729 453.75 -219 309.75 -219 c 256
 176.75 -219 93.083 -153.333 55.75 -44 c 257
EndSplineSet
Refer: 453 3497 N 1 0 0 1 0 0 2
EndChar

StartChar: si_DdU
Encoding: 217 -1 75
GlifName: si_D_dU_
Width: 647
VWidth: 0
GlyphClass: 2
Flags: W
LayerCount: 2
Back
Fore
SplineSet
51.5 -142.5 m 256
 51.5 -90.4912 97.793 -50.5 153 -50.5 c 256
 194.906 -50.5 232.25 -74.1416 247 -110 c 257
 214.25 -121.5 l 257
 207.426 -104.358 186 -81.75 153 -81.75 c 256
 116.296 -81.75 87 -109.716 87 -142.5 c 256
 87 -171.663 108.748 -192.5 178.5 -192.5 c 258
 550 -192.5 l 257
 550 128 l 257
 585.25 219 l 257
 585.25 -235 l 257
 157 -235 l 258
 77.457 -235 51.5 -186.092 51.5 -142.5 c 256
EndSplineSet
Refer: 453 3497 N 1 0 0 1 0 0 2
EndChar

StartChar: si_DdUu
Encoding: 218 -1 76
GlifName: si_D_dU_u
Width: 647
VWidth: 0
GlyphClass: 2
Flags: W
LayerCount: 2
Back
Fore
SplineSet
51 -138 m 256
 51 -80 100 -40 153 -40 c 256
 195 -40 227.333 -55 250 -91 c 257
 217 -102 l 257
 205.684 -84.6992 187 -70 158 -70 c 256
 119 -70 94 -95.0762 94 -120 c 256
 94 -151.995 122.815 -167 157 -167 c 256
 233.215 -167 319.327 -114.5 427 -114.5 c 256
 478.082 -114.5 524 -133.75 551 -165.75 c 257
 551 152 l 257
 586 212 l 257
 586 -231 l 257
 560.5 -231 l 257
 545.5 -195 499.949 -146.25 437 -146.25 c 256
 346 -146.25 260 -237 162 -237 c 256
 107 -237 51 -206 51 -138 c 256
EndSplineSet
Refer: 453 3497 N 1 0 0 1 0 0 2
EndChar

StartChar: si_Dda.reph
Encoding: 219 -1 77
GlifName: si_D_da.reph
Width: 647
VWidth: 0
GlyphClass: 2
Flags: W
LayerCount: 2
Back
Fore
SplineSet
278.15 622 m 256
 278.15 601.854 296.378 585.547 318.25 585.547 c 256
 340.122 585.547 358.35 601.854 358.35 622 c 256
 358.35 642.146 340.122 658.453 318.25 658.453 c 256
 296.378 658.453 278.15 642.146 278.15 622 c 256
175.25 641 m 256
 175.25 705 233.37 742 315.25 742 c 256
 392.25 742 456.25 699 456.25 628 c 256
 456.25 604 447.917 582.333 431.25 563 c 257
 395.5 563 l 257
 408.67 575.387 424.25 599.734 424.25 627 c 256
 424.25 681.521 375.25 713.5 314.25 713.5 c 256
 261.472 713.5 208 690.99 208 641 c 256
 208 601.925 251.151 584.688 268.75 582.25 c 257
 260.75 588.25 250.25 602 250.25 623 c 256
 250.25 658 281.604 683 317.25 683 c 256
 358.25 683 386.25 656 386.25 621 c 256
 386.25 582 351.25 556 293.25 556 c 256
 234.25 556 175.25 585 175.25 641 c 256
EndSplineSet
Refer: 453 3497 N 1 0 0 1 0 0 2
EndChar

StartChar: si_Ddh.halant
Encoding: 223 -1 78
GlifName: si_D_dh.halant
Width: 647
VWidth: 0
GlyphClass: 2
Flags: W
LayerCount: 2
Back
Fore
SplineSet
477.25 520 m 257
 483.25 516.5 499.479 513 510.25 513 c 256
 535.722 513 555.25 531 555.25 562 c 256
 555.25 614.622 496.297 635.811 477.25 653 c 257
 477.25 520 l 257
449.25 483 m 257
 449.25 697 l 257
 503.805 653.618 600.25 652.735 600.25 557 c 256
 600.25 517 568.692 484 519.25 484 c 256
 499.337 484 484.81 490.25 477.25 494 c 257
 477.25 453 l 257
 449.25 483 l 257
330.5 479.75 m 256
 330.5 427.645 348.682 385.75 400.5 385.75 c 256
 425.191 385.75 456.106 396.953 472 435.75 c 257
 444.296 475.266 387.986 527.75 351.5 555.75 c 257
 341.516 540.385 330.5 514.417 330.5 479.75 c 256
15 285 m 257
 15 315 l 257
 258 315 l 257
 255.434 355.302 228.143 387.268 201 387.268 c 256
 183.364 387.268 168.118 383.386 154 359 c 256
 143 340 129.646 335.264 116 335.264 c 256
 92.7382 335.264 73.2109 350.576 73.2109 374.122 c 256
 73.2109 414 120.101 432.167 162.279 432.167 c 256
 246.407 432.167 290.627 382.977 292 285 c 257
 220 285 l 258
 143.985 285 108.392 244.298 108.392 205 c 256
 108.392 171.45 143.392 139 209 139 c 256
 251.733 139 297 158.466 297 197 c 258
 297 221 l 257
 328 221 l 257
 328 197 l 258
 328 160.652 370.413 140 415 140 c 256
 498.6 140 531.75 223.384 531.75 281.5 c 256
 531.75 342.477 505.303 384.01 492 406.75 c 257
 471.983 371.339 441.699 352.75 400.5 352.75 c 256
 336.713 352.75 299.5 405.932 299.5 469.75 c 256
 299.5 522.314 316.887 559.37 342.5 592.75 c 257
 403.5 559.75 476.026 486.652 518 428.25 c 256
 561.429 367.823 597.25 291.75 597.25 216.75 c 256
 597.25 127.292 553.345 0 426 0 c 256
 364 0 334.63 28.5207 313 59 c 257
 283.406 21.6861 250 0 199 0 c 256
 97.9838 0 45.8805 81.1903 45.8805 162 c 256
 45.8805 210.81 71.0487 261.765 125 285 c 257
 15 285 l 257
EndSplineSet
LCarets2: 1 174
EndChar

StartChar: si_DdhI
Encoding: 224 -1 79
GlifName: si_D_dhI_
Width: 647
VWidth: 0
GlyphClass: 2
Flags: W
LayerCount: 2
Back
Fore
SplineSet
341.75 470.75 m 256
 341.75 417.774 378.993 391.75 413.75 391.75 c 256
 445.61 391.75 469.278 412.992 483.086 434.863 c 257
 434.131 501.907 372.505 544.659 362 553.25 c 257
 350.791 534.342 341.75 502.864 341.75 470.75 c 256
15 285 m 257
 15 315 l 257
 257 315 l 257
 254.344 355.86 226.095 388.268 198 388.268 c 256
 181.115 388.268 167.784 383.404 153 359 c 256
 140.553 340 125.442 335.264 110 335.264 c 256
 90 335.264 73.2109 350.576 73.2109 374.122 c 256
 73.2109 414 120.101 432.167 162.279 432.167 c 256
 249.704 432.167 292.606 372.769 294 285 c 257
 220 285 l 258
 144.666 285 109.392 244.807 109.392 206 c 256
 109.392 171.942 142.652 139 205 139 c 256
 255.676 139 297 157.708 297 199 c 258
 297 221 l 257
 328 221 l 257
 328 199 l 258
 328 157.066 361.388 141 417 141 c 256
 501.316 141 534.75 220.848 534.75 276.5 c 256
 534.75 337.964 514.608 379.828 502 402.75 c 257
 481.983 369.962 451.699 352.75 410.5 352.75 c 256
 346.713 352.75 309.5 398.659 309.5 475.75 c 256
 309.5 515.75 326.887 560.998 352.5 592.75 c 257
 403.89 562.75 493.591 489.72 532 428.25 c 256
 569.757 367.823 597.25 318.75 597.25 216.75 c 256
 597.25 127.292 553.345 0 426 0 c 256
 364 0 334.63 28.5207 313 59 c 257
 283.406 21.6861 250 0 199 0 c 256
 97.9838 0 45.8805 81.1903 45.8805 162 c 256
 45.8805 210.81 71.0487 261.765 125 285 c 257
 15 285 l 257
112 574 m 256
 112 665.82 226.359 700.25 334.5 700.25 c 256
 436.667 700.25 556 664.09 556 573 c 256
 556 526.276 518.388 498.25 463.5 498.25 c 257
 457.918 502.863 450.825 513.196 447 520.75 c 257
 459.562 521.31 506 525.594 506 557 c 256
 506 602.027 411.474 612 337 612 c 256
 218.333 612 160 593.236 160 556.75 c 256
 160 528.929 194.141 516 228 516 c 256
 273.316 516 306.941 528.609 324 536.75 c 257
 322.579 530.495 323.715 519.611 320 503.75 c 257
 294.967 496.058 269.367 487.75 226 487.75 c 256
 165.8 487.75 112 515.943 112 574 c 256
EndSplineSet
EndChar

StartChar: si_DdhIi
Encoding: 225 -1 80
GlifName: si_D_dhI_i
Width: 647
VWidth: 0
GlyphClass: 2
Flags: W
LayerCount: 2
Back
Fore
SplineSet
341.75 470.75 m 256
 341.75 417.774 378.993 391.75 413.75 391.75 c 256
 445.61 391.75 469.278 412.992 483.086 434.863 c 257
 434.131 501.907 372.505 544.659 362 553.25 c 257
 350.791 534.342 341.75 502.864 341.75 470.75 c 256
15 285 m 257
 15 315 l 257
 257 315 l 257
 254.344 355.86 226.095 388.268 198 388.268 c 256
 181.115 388.268 167.784 383.404 153 359 c 256
 140.553 340 125.442 335.264 110 335.264 c 256
 90 335.264 73.2109 350.576 73.2109 374.122 c 256
 73.2109 414 120.101 432.167 162.279 432.167 c 256
 249.704 432.167 292.606 372.769 294 285 c 257
 220 285 l 258
 144.666 285 109.392 244.807 109.392 206 c 256
 109.392 171.942 142.652 139 205 139 c 256
 255.676 139 297 157.708 297 199 c 258
 297 221 l 257
 328 221 l 257
 328 199 l 258
 328 157.066 361.388 141 417 141 c 256
 501.316 141 534.75 220.848 534.75 276.5 c 256
 534.75 337.964 514.608 379.828 502 402.75 c 257
 481.983 369.962 451.699 352.75 410.5 352.75 c 256
 346.713 352.75 309.5 398.659 309.5 475.75 c 256
 309.5 515.75 326.887 560.998 352.5 592.75 c 257
 403.89 562.75 493.591 489.72 532 428.25 c 256
 569.757 367.823 597.25 318.75 597.25 216.75 c 256
 597.25 127.292 553.345 0 426 0 c 256
 364 0 334.63 28.5207 313 59 c 257
 283.406 21.6861 250 0 199 0 c 256
 97.9838 0 45.8805 81.1903 45.8805 162 c 256
 45.8805 210.81 71.0487 261.765 125 285 c 257
 15 285 l 257
445.766 554 m 256
 445.766 526.567 467.317 505.016 494.75 505.016 c 256
 522.183 505.016 543.734 526.567 543.734 554 c 256
 543.734 581.433 522.183 602.984 494.75 602.984 c 256
 467.317 602.984 445.766 581.433 445.766 554 c 256
112 574 m 256
 112 665.82 226.358 699.75 335.25 699.75 c 256
 502.583 699.75 579.25 646.784 579.25 565.25 c 256
 579.25 512.426 544.365 473.5 494.5 473.5 c 256
 446.448 473.5 414.25 512.857 414.25 552.75 c 256
 414.25 566.609 419.646 593.341 438.75 609 c 257
 422.354 612.251 392.759 616 344 616 c 256
 229.566 616 165 596.782 165 558 c 256
 165 529.834 194.141 515.75 228 515.75 c 256
 273.316 515.75 306.941 528.359 324 536.5 c 257
 322.579 530.245 323.715 518.861 320 503 c 257
 294.967 495.308 269.367 487 226 487 c 256
 165.8 487 112 515.943 112 574 c 256
EndSplineSet
EndChar

StartChar: si_DdhU
Encoding: 226 -1 81
GlifName: si_D_dhU_
Width: 647
VWidth: 0
GlyphClass: 2
Flags: W
LayerCount: 2
Back
Fore
SplineSet
51.5 -142.5 m 256
 51.5 -90.4912 97.793 -50.5 153 -50.5 c 256
 194.906 -50.5 232.25 -74.1416 247 -110 c 257
 214.25 -121.5 l 257
 207.426 -104.358 186 -81.75 153 -81.75 c 256
 116.296 -81.75 87 -109.716 87 -142.5 c 256
 87 -171.663 108.748 -192.5 178.5 -192.5 c 258
 550 -192.5 l 257
 550 128 l 257
 585.25 219 l 257
 585.25 -235 l 257
 157 -235 l 258
 77.457 -235 51.5 -186.092 51.5 -142.5 c 256
EndSplineSet
Refer: 454 3498 N 1 0 0 1 0 0 2
EndChar

StartChar: si_DdhUu
Encoding: 227 -1 82
GlifName: si_D_dhU_u
Width: 647
VWidth: 0
GlyphClass: 2
Flags: W
LayerCount: 2
Back
Fore
SplineSet
51 -138 m 256
 51 -80 100 -40 153 -40 c 256
 195 -40 227.333 -55 250 -91 c 257
 217 -102 l 257
 205.684 -84.6992 187 -70 158 -70 c 256
 119 -70 94 -95.0762 94 -120 c 256
 94 -151.995 122.815 -167 157 -167 c 256
 233.215 -167 319.327 -114.5 427 -114.5 c 256
 478.082 -114.5 524 -133.75 551 -165.75 c 257
 551 152 l 257
 586 212 l 257
 586 -231 l 257
 560.5 -231 l 257
 545.5 -195 499.949 -146.25 437 -146.25 c 256
 346 -146.25 260 -237 162 -237 c 256
 107 -237 51 -206 51 -138 c 256
EndSplineSet
Refer: 454 3498 N 1 0 0 1 0 0 2
EndChar

StartChar: si_Dh.halant
Encoding: 274 -1 83
GlifName: si_D_h.halant
Width: 638
VWidth: 0
GlyphClass: 2
Flags: W
LayerCount: 2
Back
Fore
SplineSet
144 536 m 256
 144 527 163 526 163 515 c 256
 163 513 162 510 160 508 c 257
 193 514 232.675 519 279 519 c 256
 385 519 470 492 528 424 c 257
 493 538 400 574 284 574 c 256
 217 574 144 560 144 536 c 256
33 195 m 256
 33 288 86.2482 363.669 152 387 c 256
 172.667 394.333 195.667 398 221 398 c 257
 221 371 l 258
 217.651 371.289 214.316 371.437 211 371.437 c 256
 132 371.437 88 312 88 234 c 256
 88 197.558 114.567 140 188 140 c 256
 240.911 140 288 159 288 223 c 258
 288 249 l 257
 319 249 l 257
 319 223 l 258
 319 159 365.83 141 413 141 c 256
 496.206 141 525.576 217.905 525.576 295.5 c 256
 525.576 412.094 443 491.75 282 491.75 c 256
 206 491.75 123 478 42 440 c 257
 42 473 l 257
 74 485 124 499 124 508 c 256
 124 520 95 521 95 545 c 256
 95 583 163 629 278 629 c 256
 486 629 560 490 572 356 c 257
 581.166 331.008 588.5 289.347 588.5 247 c 256
 588.5 141.355 547.534 2.86033e-14 422 0 c 256
 372.667 0 333 19.6667 303 59 c 257
 272.333 20.3333 234.672 0 190 0 c 256
 88 0 33 96 33 195 c 256
EndSplineSet
EndChar

StartChar: si_DhI
Encoding: 275 -1 84
GlifName: si_D_hI_
Width: 638
VWidth: 0
GlyphClass: 2
Flags: W
LayerCount: 2
Back
Fore
SplineSet
33 195 m 256
 33 288 86.2482 363.669 152 387 c 256
 172.667 394.333 195.667 398 221 398 c 257
 221 371.5 l 258
 217.651 371.789 214.316 371.937 211 371.937 c 256
 132 371.937 88 307.146 88 242 c 256
 88 186.85 119.567 140 193 140 c 256
 243.911 140 288.5 161 288.5 225 c 258
 288.5 249 l 257
 319.25 249 l 257
 319.25 225 l 258
 319.25 161 362.83 140 412 140 c 256
 506.413 140 525.49 243.576 525.99 291.554 c 256
 525.713 332.528 519.713 378.7 493.5 413.25 c 256
 451.717 468.323 385.769 470.325 284.75 476 c 256
 195.75 481 75 476 75 562 c 256
 75 652 205.75 670 305.75 670 c 256
 441.75 670 551.75 639 551.75 554 c 256
 551.75 504.811 503.43 482.466 469.427 475.115 c 257
 479.647 470.561 489.174 465.237 497.75 459 c 256
 546.803 423.501 589 343.571 588.978 257.012 c 257
 587.866 135.772 546.163 0 422 0 c 256
 372.667 0 333 19.6667 303 59 c 257
 272.333 20.3333 234.672 0 190 0 c 256
 88 0 33 96 33 195 c 256
134 538 m 256
 134 511.059 181.75 508 283.75 504 c 256
 323.924 502.425 375.321 500.883 421.696 490.436 c 257
 453.651 493.086 476.75 506.25 476.75 527 c 256
 476.75 564.309 413.75 581 305.75 581 c 256
 230.094 581 134 573.211 134 538 c 256
EndSplineSet
EndChar

StartChar: si_DhIi
Encoding: 276 -1 85
GlifName: si_D_hI_i
Width: 638
VWidth: 0
GlyphClass: 2
Flags: W
LayerCount: 2
Back
Fore
SplineSet
33 195 m 256
 33 288 86.2482 363.669 152 387 c 256
 172.667 394.333 195.667 398 221 398 c 257
 221 371.5 l 258
 217.651 371.789 214.316 371.937 211 371.937 c 256
 132 371.937 88 307.146 88 242 c 256
 88 186.85 119.567 140 193 140 c 256
 243.911 140 288.5 161 288.5 225 c 258
 288.5 249 l 257
 319.25 249 l 257
 319.25 225 l 258
 319.25 161 362.83 140 412 140 c 256
 506.821 140 525.654 249.627 525.995 297.422 c 256
 525.767 348.987 517.283 383.537 490 416 c 256
 445.523 468.922 386.019 470.325 285 476 c 256
 196 481 75 476 75 562 c 256
 75 652 205.75 670 306 670 c 256
 442 670 552 640.054 552 541.75 c 256
 552 501.621 524.483 474.104 492.019 463.106 c 257
 494.06 461.783 496.054 460.415 498 459 c 256
 545.263 424.626 588.982 350.274 588.977 256.014 c 257
 588.866 136.246 546.164 2.84217e-14 422 0 c 256
 372.667 0 333 19.6667 303 59 c 257
 272.333 20.3333 234.672 0 190 0 c 256
 88 0 33 96 33 195 c 256
400.897 538.75 m 256
 400.897 509.169 427.526 485.377 460 485.377 c 256
 492.474 485.377 519.103 509.169 519.103 538.75 c 256
 519.103 568.331 492.474 592.123 460 592.123 c 256
 427.526 592.123 400.897 568.331 400.897 538.75 c 256
381.386 497.413 m 257
 373.054 509.67 368 524.552 368 541.75 c 256
 368 565.35 378.022 578.984 382 584 c 257
 373.659 585.578 340.481 588.5 304 588.5 c 256
 228.344 588.5 130 580.369 130 540 c 256
 130 510.989 182 508 284 504 c 256
 312.707 502.874 347.145 501.766 381.386 497.413 c 257
EndSplineSet
EndChar

StartChar: si_DhRI
Encoding: 281 -1 86
GlifName: si_D_hR_I_
Width: 638
VWidth: 0
GlyphClass: 2
Flags: W
LayerCount: 2
Back
Fore
SplineSet
55.75 -44 m 257
 85.25 -44 l 257
 122.726 -86.9578 189.667 -114.25 295 -114.25 c 256
 438 -114.25 549 -31.0107 549 63.25 c 256
 549 78.2842 547.438 90.446 542 102 c 257
 555 133 l 257
 573 106.333 582 74.667 582 38 c 256
 582 -123.729 453.75 -219 309.75 -219 c 256
 176.75 -219 93.083 -153.333 55.75 -44 c 257
EndSplineSet
Refer: 84 -1 N 1 0 0 1 0 0 2
EndChar

StartChar: si_DhRIi
Encoding: 282 -1 87
GlifName: si_D_hR_I_i
Width: 638
VWidth: 0
GlyphClass: 2
Flags: W
LayerCount: 2
Back
Fore
SplineSet
55.75 -44 m 257
 85.25 -44 l 257
 122.726 -86.9578 189.667 -114.25 295 -114.25 c 256
 438 -114.25 549 -31.0107 549 63.25 c 256
 549 78.2842 547.438 90.446 542 102 c 257
 555 133 l 257
 573 106.333 582 74.667 582 38 c 256
 582 -123.729 453.75 -219 309.75 -219 c 256
 176.75 -219 93.083 -153.333 55.75 -44 c 257
EndSplineSet
Refer: 85 -1 N 1 0 0 1 0 0 2
EndChar

StartChar: si_DhRa
Encoding: 280 -1 88
GlifName: si_D_hR_a
Width: 638
VWidth: 0
GlyphClass: 2
Flags: W
LayerCount: 2
Back
Fore
SplineSet
55.75 -44 m 257
 85.25 -44 l 257
 122.726 -86.9578 189.667 -114.25 295 -114.25 c 256
 438 -114.25 549 -31.0107 549 63.25 c 256
 549 78.2842 547.438 90.446 542 102 c 257
 555 133 l 257
 573 106.333 582 74.667 582 38 c 256
 582 -123.729 453.75 -219 309.75 -219 c 256
 176.75 -219 93.083 -153.333 55.75 -44 c 257
EndSplineSet
Refer: 460 3504 N 1 0 0 1 0 0 2
EndChar

StartChar: si_DhU
Encoding: 277 -1 89
GlifName: si_D_hU_
Width: 638
VWidth: 0
GlyphClass: 2
Flags: W
LayerCount: 2
Back
Fore
SplineSet
51.5 -142.5 m 256
 51.5 -90.4912 97.793 -50.5 153 -50.5 c 256
 194.906 -50.5 232.25 -74.1416 247 -110 c 257
 214.25 -121.5 l 257
 207.426 -104.358 186 -81.75 153 -81.75 c 256
 116.296 -81.75 87 -109.716 87 -142.5 c 256
 87 -171.663 108.748 -192.5 178.5 -192.5 c 258
 539.75 -192.5 l 257
 539.75 128 l 257
 575 219 l 257
 575 -235 l 257
 157 -235 l 258
 77.457 -235 51.5 -186.092 51.5 -142.5 c 256
EndSplineSet
Refer: 460 3504 N 1 0 0 1 0 0 2
EndChar

StartChar: si_DhUu
Encoding: 278 -1 90
GlifName: si_D_hU_u
Width: 638
VWidth: 0
GlyphClass: 2
Flags: W
LayerCount: 2
Back
Fore
SplineSet
51 -138 m 256
 51 -80 100 -40 153 -40 c 256
 195 -40 227.333 -55 250 -91 c 257
 217 -102 l 257
 205.684 -84.6992 187 -70 158 -70 c 256
 119 -70 94 -95.0762 94 -120 c 256
 94 -151.995 122.815 -167 157 -167 c 256
 233.215 -167 308.327 -114.5 416 -114.5 c 256
 467.082 -114.5 513 -133.75 540 -165.75 c 257
 540 152 l 257
 575 212 l 257
 575 -231 l 257
 549.5 -231 l 257
 534.5 -195 488.949 -146.25 426 -146.25 c 256
 335 -146.25 260 -237 162 -237 c 256
 107 -237 51 -206 51 -138 c 256
EndSplineSet
Refer: 460 3504 N 1 0 0 1 0 0 2
EndChar

StartChar: si_Dha.reph
Encoding: 279 -1 91
GlifName: si_D_ha.reph
Width: 638
VWidth: 0
GlyphClass: 2
Flags: W
LayerCount: 2
Back
Fore
SplineSet
274.4 622 m 256
 274.4 642.146 292.628 658.453 314.5 658.453 c 256
 336.372 658.453 354.6 642.146 354.6 622 c 256
 354.6 601.854 336.372 585.547 314.5 585.547 c 256
 292.628 585.547 274.4 601.854 274.4 622 c 256
171.5 641 m 256
 171.5 585 230.5 556 289.5 556 c 256
 347.5 556 382.5 582 382.5 621 c 256
 382.5 656 354.5 683 313.5 683 c 256
 277.854 683 246.5 658 246.5 623 c 256
 246.5 602 257 588.25 265 582.25 c 257
 247.401 584.688 204.25 601.925 204.25 641 c 256
 204.25 690.99 257.722 713.5 310.5 713.5 c 256
 371.5 713.5 420.5 681.521 420.5 627 c 256
 420.5 599.734 404.92 575.387 391.75 563 c 257
 427.5 563 l 257
 444.167 582.333 452.5 604 452.5 628 c 256
 452.5 699 388.5 742 311.5 742 c 256
 229.62 742 171.5 705 171.5 641 c 256
EndSplineSet
Refer: 460 3504 N 1 0 0 1 0 0 2
EndChar

StartChar: si_DvocR
Encoding: 262 -1 92
GlifName: si_D_vocR_
Width: 703
VWidth: 0
GlyphClass: 2
Flags: W
LayerCount: 2
Back
Fore
SplineSet
422.632 249 m 256
 422.632 329 457.8 393 537.5 393 c 256
 624.396 393 660.5 313.777 660.5 203 c 256
 660.5 144 643.5 52.4365 643.5 23 c 256
 643.5 15.667 643.833 9 644.5 3 c 257
 569.75 3 l 257
 567.083 12.333 562.083 17 554.75 17 c 256
 542.597 17 534.396 -1 505.5 -1 c 256
 446.5 -1 422.75 65.5635 422.75 106 c 256
 422.75 153.333 444.758 188.315 488.75 207 c 256
 510.996 216.448 535.828 220.009 543.25 220.5 c 257
 543.25 310.5 534.286 340 505.75 340 c 256
 472.153 340 448.953 308 448.953 246 c 256
 448.953 244.333 448.964 243.666 449 242 c 257
 422.75 242 l 257
 422.668 244.678 422.632 246.345 422.632 249 c 256
454 107 m 256
 454 76.335 467.87 29.5 507.5 29.5 c 256
 527.696 29.5 534.054 35.7724 542 39.4796 c 256
 544.637 40.71 547.449 41.6578 551 42 c 257
 542.893 47.1436 542.25 75.833 542.25 113.5 c 256
 542.25 144.879 543.407 165 543.407 183 c 256
 543.407 185.996 543.361 189.663 543.25 192 c 257
 539.718 192 520.903 187.953 512.75 185.5 c 256
 476.448 174.578 454 150.545 454 107 c 256
EndSplineSet
Refer: 459 3503 N 1 0 0 1 0 0 2
EndChar

StartChar: si_DvocRr
Encoding: 263 -1 93
GlifName: si_D_vocR_r
Width: 962
VWidth: 0
GlyphClass: 2
Flags: W
LayerCount: 2
Back
Fore
SplineSet
678.382 249 m 256
 678.382 329 713.55 393 793.25 393 c 256
 880.146 393 916.25 313.777 916.25 203 c 256
 916.25 144 899.25 52.4365 899.25 23 c 256
 899.25 15.667 899.583 9 900.25 3 c 257
 825.5 3 l 257
 822.833 12.333 817.833 17 810.5 17 c 256
 798.347 17 790.146 -1 761.25 -1 c 256
 702.25 -1 678.5 65.5635 678.5 106 c 256
 678.5 153.333 700.508 188.315 744.5 207 c 256
 766.746 216.448 791.578 220.009 799 220.5 c 257
 799 310.5 790.036 340 761.5 340 c 256
 727.903 340 704.703 308 704.703 246 c 256
 704.703 244.333 704.714 243.666 704.75 242 c 257
 678.5 242 l 257
 678.418 244.678 678.382 246.345 678.382 249 c 256
709.75 107 m 256
 709.75 76.335 723.62 29.5 763.25 29.5 c 256
 782.806 29.5 789.388 35.3817 797 39.1202 c 256
 799.858 40.5238 802.861 41.6252 806.75 42 c 257
 798.643 47.1436 798 75.833 798 113.5 c 256
 798 144.879 799.157 165 799.157 183 c 256
 799.157 185.996 799.111 189.663 799 192 c 257
 795.468 192 776.653 187.953 768.5 185.5 c 256
 732.198 174.578 709.75 150.545 709.75 107 c 256
422.632 249 m 256
 422.632 329 457.8 393 537.5 393 c 256
 624.396 393 660.5 313.777 660.5 203 c 256
 660.5 144 643.5 52.4365 643.5 23 c 256
 643.5 15.667 643.833 9 644.5 3 c 257
 569.75 3 l 257
 567.083 12.333 562.083 17 554.75 17 c 256
 542.597 17 534.396 -1 505.5 -1 c 256
 446.5 -1 422.75 65.5635 422.75 106 c 256
 422.75 153.333 444.758 188.315 488.75 207 c 256
 510.996 216.448 535.828 220.009 543.25 220.5 c 257
 543.25 310.5 534.286 340 505.75 340 c 256
 472.153 340 448.953 308 448.953 246 c 256
 448.953 244.333 448.964 243.666 449 242 c 257
 422.75 242 l 257
 422.668 244.678 422.632 246.345 422.632 249 c 256
454 107 m 256
 454 76.335 467.87 29.5 507.5 29.5 c 256
 526.842 29.5 533.492 35.2534 541 38.9965 c 256
 543.933 40.4588 546.997 41.6143 551 42 c 257
 542.893 47.1436 542.25 75.833 542.25 113.5 c 256
 542.25 144.879 543.407 165 543.407 183 c 256
 543.407 185.996 543.361 189.663 543.25 192 c 257
 539.718 192 520.903 187.953 512.75 185.5 c 256
 476.448 174.578 454 150.545 454 107 c 256
EndSplineSet
Refer: 459 3503 N 1 0 0 1 0 0 2
EndChar

StartChar: si_F.halant
Encoding: 420 -1 94
GlifName: si_F_.halant
Width: 607
VWidth: 0
GlyphClass: 2
Flags: W
LayerCount: 2
Back
Fore
SplineSet
403.5 423 m 257
 403.5 681 l 257
 457.5 639 555 634 555 542 c 256
 555 498 520.191 468 477 468 c 256
 462.333 468 447.333 471.333 432 478 c 257
 432 410 l 257
 403.5 423 l 257
432.105 504.273 m 257
 440.6 499.699 451.382 497.413 464.448 497.413 c 256
 496.454 497.413 510 521.915 510 545.438 c 256
 510 586.602 478.17 606.203 432.105 636.587 c 257
 432.105 504.273 l 257
EndSplineSet
Refer: 478 3526 N 1 0 0 1 0 0 2
EndChar

StartChar: si_FI
Encoding: 421 -1 95
GlifName: si_F_I_
Width: 607
VWidth: 0
GlyphClass: 2
Flags: W
LayerCount: 2
Back
Fore
SplineSet
64 518 m 256
 64 626.291 176.621 671 296 671 c 256
 415.379 671 528 626.291 528 518 c 256
 528 443.457 461.857 408.074 385 405 c 257
 408 428 l 257
 446.066 436.684 463.25 447.041 463.25 479 c 256
 463.25 521.434 382.438 535.75 296 535.75 c 256
 207.092 535.75 124.5 521.776 124.5 479 c 256
 124.5 450.304 147.54 433.719 187 427.25 c 257
 207 405 l 257
 130.143 408.074 64 443.457 64 518 c 256
EndSplineSet
Refer: 478 3526 N 1 0 0 1 0 0 2
EndChar

StartChar: si_FIi
Encoding: 422 -1 96
GlifName: si_F_I_i
Width: 607
VWidth: 0
GlyphClass: 2
Flags: W
LayerCount: 2
Back
Fore
SplineSet
386.563 514 m 256
 386.563 483.616 415.967 459.114 451.25 459.114 c 256
 486.533 459.114 515.937 483.616 515.937 514 c 256
 515.937 544.384 486.533 568.886 451.25 568.886 c 256
 415.967 568.886 386.563 544.384 386.563 514 c 256
48.25 511.75 m 256
 48.25 623.806 172.196 671 299.25 671 c 256
 415.964 671 552.25 627.399 552.25 524 c 256
 552.25 468.769 507.527 429 451.25 429 c 256
 393.25 429 353.25 470 353.25 515 c 256
 353.25 525.451 356.019 549.089 369.25 562 c 257
 360.401 563.391 319.752 565 287.25 565 c 256
 193.086 565 94.75 542.711 94.75 482 c 256
 94.75 459.935 110.068 436.815 153 426 c 257
 138.25 406 l 257
 85.7639 412.961 48.25 455.368 48.25 511.75 c 256
EndSplineSet
Refer: 478 3526 N 1 0 0 1 0 0 2
EndChar

StartChar: si_FRI
Encoding: 427 -1 97
GlifName: si_F_R_I_
Width: 607
VWidth: 0
GlyphClass: 2
Flags: W
LayerCount: 2
Back
Fore
SplineSet
64 518 m 256
 64 626.291 176.621 671 296 671 c 256
 415.379 671 528 626.291 528 518 c 256
 528 443.457 461.857 408.074 385 405 c 257
 408 428 l 257
 446.066 436.684 463.25 447.041 463.25 479 c 256
 463.25 521.434 382.438 535.75 296 535.75 c 256
 207.092 535.75 124.5 521.776 124.5 479 c 256
 124.5 450.304 147.54 433.719 187 427.25 c 257
 207 405 l 257
 130.143 408.074 64 443.457 64 518 c 256
59.75 -44 m 257
 89.25 -44 l 257
 126.726 -86.958 172.417 -114.25 277.75 -114.25 c 256
 420.75 -114.25 517.25 -31.0107 517.25 63.25 c 256
 517.25 78.2842 511.411 99.6465 501.5 110 c 257
 517.5 140 l 257
 538.89 115.406 550.25 74.667 550.25 38 c 256
 550.25 -123.729 437 -219 293 -219 c 256
 172.53 -219 97.083 -153.333 59.75 -44 c 257
EndSplineSet
Refer: 478 3526 N 1 0 0 1 0 0 2
EndChar

StartChar: si_FRIi
Encoding: 428 -1 98
GlifName: si_F_R_I_i
Width: 607
VWidth: 0
GlyphClass: 2
Flags: W
LayerCount: 2
Back
Fore
SplineSet
386.563 514 m 256
 386.563 483.616 415.967 459.114 451.25 459.114 c 256
 486.533 459.114 515.937 483.616 515.937 514 c 256
 515.937 544.384 486.533 568.886 451.25 568.886 c 256
 415.967 568.886 386.563 544.384 386.563 514 c 256
48.25 511.75 m 256
 48.25 623.806 172.196 671 299.25 671 c 256
 415.964 671 552.25 627.399 552.25 524 c 256
 552.25 468.769 507.527 429 451.25 429 c 256
 393.25 429 353.25 470 353.25 515 c 256
 353.25 525.451 356.019 549.089 369.25 562 c 257
 360.401 563.391 319.752 565 287.25 565 c 256
 193.086 565 94.75 542.711 94.75 482 c 256
 94.75 459.935 110.068 436.815 153 426 c 257
 138.25 406 l 257
 85.7639 412.961 48.25 455.368 48.25 511.75 c 256
59.75 -44 m 257
 89.25 -44 l 257
 126.726 -86.958 172.417 -114.25 277.75 -114.25 c 256
 420.75 -114.25 517.25 -31.0107 517.25 63.25 c 256
 517.25 78.2842 511.411 99.6465 501.5 110 c 257
 517.5 140 l 257
 538.89 115.406 550.25 74.667 550.25 38 c 256
 550.25 -123.729 437 -219 293 -219 c 256
 172.53 -219 97.083 -153.333 59.75 -44 c 257
EndSplineSet
Refer: 478 3526 N 1 0 0 1 0 0 2
EndChar

StartChar: si_FRa
Encoding: 426 -1 99
GlifName: si_F_R_a
Width: 607
VWidth: 0
GlyphClass: 2
Flags: W
LayerCount: 2
Back
Fore
SplineSet
59.75 -44 m 257
 89.25 -44 l 257
 126.726 -86.958 172.417 -114.25 277.75 -114.25 c 256
 420.75 -114.25 517.25 -31.0107 517.25 63.25 c 256
 517.25 78.2842 511.411 99.6465 501.5 110 c 257
 517.5 140 l 257
 538.89 115.406 550.25 74.667 550.25 38 c 256
 550.25 -123.729 437 -219 293 -219 c 256
 172.53 -219 97.083 -153.333 59.75 -44 c 257
EndSplineSet
Refer: 478 3526 N 1 0 0 1 0 0 2
EndChar

StartChar: si_FU
Encoding: 423 -1 100
GlifName: si_F_U_
Width: 607
VWidth: 0
GlyphClass: 2
Flags: W
LayerCount: 2
Back
Fore
SplineSet
53.5 -142.5 m 256
 53.5 -90.4912 99.793 -50.5 155 -50.5 c 256
 196.906 -50.5 234.25 -74.1416 249 -110 c 257
 216.25 -121.5 l 257
 209.426 -104.358 188 -81.75 155 -81.75 c 256
 118.296 -81.75 89 -109.716 89 -142.5 c 256
 89 -171.663 110.748 -192.5 180.5 -192.5 c 258
 510.75 -192.5 l 257
 510.75 128 l 257
 546 219 l 257
 546 -235 l 257
 159 -235 l 258
 79.457 -235 53.5 -186.092 53.5 -142.5 c 256
EndSplineSet
Refer: 478 3526 N 1 0 0 1 0 0 2
EndChar

StartChar: si_FUu
Encoding: 424 -1 101
GlifName: si_F_U_u
Width: 607
VWidth: 0
GlyphClass: 2
Flags: W
LayerCount: 2
Back
Fore
SplineSet
53 -138 m 256
 53 -80 102 -40 155 -40 c 256
 197 -40 217.833 -55 240.5 -91 c 257
 219 -102 l 257
 207.684 -84.6992 189 -70 160 -70 c 256
 121 -70 96 -95.0762 96 -120 c 256
 96 -151.995 124.815 -167 159 -167 c 256
 235.215 -167 293.445 -114.5 392.5 -114.5 c 256
 436.295 -114.5 484 -133.75 511 -165.75 c 257
 511 152 l 257
 546 212 l 257
 546 -231 l 257
 520.5 -231 l 257
 505.5 -195 464.199 -146.25 401.25 -146.25 c 256
 310.25 -146.25 262 -237 164 -237 c 256
 109 -237 53 -206 53 -138 c 256
EndSplineSet
Refer: 478 3526 N 1 0 0 1 0 0 2
EndChar

StartChar: si_Fa.reph
Encoding: 425 -1 102
GlifName: si_F_a.reph
Width: 607
VWidth: 0
GlyphClass: 2
Flags: W
LayerCount: 2
Back
Fore
SplineSet
259.4 511 m 256
 259.4 490.854 277.628 474.547 299.5 474.547 c 256
 321.372 474.547 339.6 490.854 339.6 511 c 256
 339.6 531.146 321.372 547.453 299.5 547.453 c 256
 277.628 547.453 259.4 531.146 259.4 511 c 256
156.5 530 m 256
 156.5 594 214.62 631 296.5 631 c 256
 373.5 631 437.5 588 437.5 517 c 256
 437.5 493 429.167 471.333 412.5 452 c 257
 376.75 452 l 257
 389.92 464.387 405.5 488.734 405.5 516 c 256
 405.5 570.521 356.5 602.5 295.5 602.5 c 256
 242.722 602.5 189.25 579.99 189.25 530 c 256
 189.25 490.925 232.401 473.688 250 471.25 c 257
 242 477.25 231.5 491 231.5 512 c 256
 231.5 547 262.854 572 298.5 572 c 256
 339.5 572 367.5 545 367.5 510 c 256
 367.5 471 332.5 445 274.5 445 c 256
 215.5 445 156.5 474 156.5 530 c 256
EndSplineSet
Refer: 478 3526 N 1 0 0 1 0 0 2
EndChar

StartChar: si_G.halant
Encoding: 109 -1 103
GlifName: si_G_.halant
Width: 636
VWidth: 0
GlyphClass: 2
Flags: W
LayerCount: 2
Back
Fore
SplineSet
434.5 348 m 257
 434.5 681 l 257
 488.5 639 586 634 586 542 c 256
 586 498 551.191 468 508 468 c 256
 493.333 468 478.333 471.333 463 478 c 257
 463 331 l 257
 434.5 348 l 257
463.105 504.273 m 257
 471.6 499.699 482.382 497.413 495.448 497.413 c 256
 527.454 497.413 541 521.915 541 545.438 c 256
 541 586.602 509.17 606.203 463.105 636.587 c 257
 463.105 504.273 l 257
EndSplineSet
Refer: 440 3484 N 1 0 0 1 0 0 2
EndChar

StartChar: si_GDha
Encoding: 437 -1 104
GlifName: si_G_D_ha
Width: 942
VWidth: 0
GlyphClass: 2
Flags: W
LayerCount: 2
Back
Fore
SplineSet
34 207 m 256
 34 330 109 431.5 220 431.5 c 256
 223.953 431.5 228.954 431.25 233 431 c 257
 233 405 l 257
 229.645 405.284 225.311 405.45 222 405.45 c 256
 138 405.45 88 329 88 258 c 256
 88 186 142 140 211 140 c 256
 270 140 294 164 294 191 c 256
 294 216 276 220 269 220 c 256
 258 220 251 217 246 214 c 257
 245 208 244 197.333 244 194 c 257
 214.75 194 l 257
 224.946 318.901 288 431.5 410 431.5 c 256
 466.521 431.5 491.823 420.777 527.75 398 c 257
 514.927 390.982 488.756 394.64 476.75 392 c 257
 455.328 399.842 431.432 402.25 414.5 402.25 c 256
 309.653 402.25 266.733 315.347 251 241.75 c 257
 254.837 244.272 265.252 246 270 246 c 256
 320 246 352 202 352 136 c 256
 352 56 295 -2 208 -2 c 256
 97 -2 34 96 34 207 c 256
EndSplineSet
Refer: 460 3504 N 1 0 0 1 306 0 2
EndChar

StartChar: si_GI
Encoding: 110 -1 105
GlifName: si_G_I_
Width: 636
VWidth: 0
GlyphClass: 2
Flags: W
LayerCount: 2
Back
Fore
SplineSet
150 537 m 256
 150 628 248.984 667 351 667 c 256
 456.344 667 559 618 559 523 c 256
 559 461 520 415 439 409 c 257
 421 431 l 257
 423.693 430.868 426.361 430.806 429 430.806 c 256
 487 430.806 517 465.788 517 498 c 256
 517 552.286 437.674 566 358 566 c 256
 276.527 566 221 537.781 221 503 c 256
 221 453.81 325 431.492 411 431.492 c 256
 412.006 431.492 412.006 431.494 413 431.5 c 257
 397 407.25 l 257
 237 410.583 150 462 150 537 c 256
34 207 m 256
 34 330 112.28 431.5 202.75 431.5 c 256
 206.703 431.5 207.954 431.25 212 431 c 257
 212 405.5 l 257
 208.645 405.784 208.061 405.95 204.75 405.95 c 256
 135.246 405.95 88 334.841 88 258 c 256
 88 186 142 140 211 140 c 256
 270 140 294 164 294 191 c 256
 294 216 276 220 269 220 c 256
 258 220 251 217 246 214 c 257
 245 208 244 197.333 244 194 c 257
 216 194 l 257
 225 321 288 431.5 410 431.5 c 256
 522 431.5 586 332 586 217 c 256
 586 95 500.053 -1 369 -1 c 256
 359 -1 348.667 -0.333333 338 1 c 257
 338 29 l 257
 346 28 354 27 362 27 c 256
 466 27 498 110 498 175 c 256
 498 255 461 320 363 320 c 256
 292 320 257 277 250 241 c 257
 256 244 263.333 246 270 246 c 256
 320 246 352 202 352 136 c 256
 352 56 295 -2 208 -2 c 256
 97 -2 34 96 34 207 c 256
EndSplineSet
EndChar

StartChar: si_GIi
Encoding: 111 -1 106
GlifName: si_G_I_i
Width: 636
VWidth: 0
GlyphClass: 2
Flags: W
LayerCount: 2
Back
Fore
SplineSet
34 207 m 256
 34 330 112.28 431.5 202.75 431.5 c 256
 206.703 431.5 207.954 431.25 212 431 c 257
 212 405.5 l 258
 208.645 405.784 208.061 405.95 204.75 405.95 c 256
 135.246 405.95 88 334.841 88 258 c 256
 88 186 142 140 211 140 c 256
 270 140 294 164 294 191 c 256
 294 216 276 220 269 220 c 256
 258 220 251 217 246 214 c 257
 245 208 244 197.333 244 194 c 258
 216 194 l 257
 222.702 288.578 259.353 374.006 328.017 411.459 c 257
 212.157 426.525 150 473.606 150 537 c 256
 150 628 248.984 667 351 667 c 256
 456.345 667 559 618.415 559 525 c 256
 559 456.817 502.17 431 460 431 c 256
 414.356 431 361 463.284 361 520 c 256
 361 538.988 367.643 554.466 375 565.781 c 257
 369.354 565.931 363.678 566 358 566 c 256
 276.527 566 221 537.781 221 503 c 256
 221 454.126 324.181 431.5 410 431.5 c 256
 522.497 430.608 586 332.351 586 217 c 256
 586 95 500.053 -1 369 -1 c 256
 359 -1 348.667 -0.333333 338 1 c 257
 338 29 l 257
 346 28 354 27 362 27 c 256
 466 27 498 110 498 175 c 256
 498 255 461 320 363 320 c 256
 292 320 257 277 250 241 c 257
 256 244 263.333 246 270 246 c 256
 320 246 352 202 352 136 c 256
 352 56 295 -2 208 -2 c 256
 97 -2 34 96 34 207 c 256
393.546 520 m 256
 393.546 487.107 423.082 460.258 460 460.258 c 256
 496.918 460.258 526.454 487.107 526.454 520 c 256
 526.454 552.893 496.918 579.742 460 579.742 c 256
 423.082 579.742 393.546 552.893 393.546 520 c 256
EndSplineSet
EndChar

StartChar: si_GR.halant
Encoding: 116 -1 107
GlifName: si_G_R_.halant
Width: 636
VWidth: 0
GlyphClass: 2
Flags: W
LayerCount: 2
Back
Fore
SplineSet
55.75 -44 m 257
 85.25 -44 l 257
 118.783 -93.29 175.552 -113.75 288.75 -113.75 c 256
 440.314 -113.75 551.75 -31.0107 551.75 63.25 c 256
 551.75 78.2842 549 90.793 542 102 c 257
 555 133 l 257
 573 106.333 582 74.667 582 38 c 256
 582 -123.729 462.8 -219 311.25 -219 c 256
 171.406 -219 93.083 -153.333 55.75 -44 c 257
EndSplineSet
Refer: 103 -1 N 1 0 0 1 0 0 2
EndChar

StartChar: si_GRI
Encoding: 117 -1 108
GlifName: si_G_R_I_
Width: 636
VWidth: 0
GlyphClass: 2
Flags: W
LayerCount: 2
Back
Fore
SplineSet
55.75 -44 m 257
 85.25 -44 l 257
 118.783 -93.29 175.552 -113.75 288.75 -113.75 c 256
 440.314 -113.75 551.75 -31.0107 551.75 63.25 c 256
 551.75 78.2842 549 90.793 542 102 c 257
 555 133 l 257
 573 106.333 582 74.667 582 38 c 256
 582 -123.729 462.8 -219 311.25 -219 c 256
 171.406 -219 93.083 -153.333 55.75 -44 c 257
EndSplineSet
Refer: 105 -1 N 1 0 0 1 0 0 2
EndChar

StartChar: si_GRIi
Encoding: 118 -1 109
GlifName: si_G_R_I_i
Width: 636
VWidth: 0
GlyphClass: 2
Flags: W
LayerCount: 2
Back
Fore
SplineSet
55.75 -44 m 257
 85.25 -44 l 257
 118.783 -93.29 175.552 -113.75 288.75 -113.75 c 256
 440.314 -113.75 551.75 -31.0107 551.75 63.25 c 256
 551.75 78.2842 549 90.793 542 102 c 257
 555 133 l 257
 573 106.333 582 74.667 582 38 c 256
 582 -123.729 462.8 -219 311.25 -219 c 256
 171.406 -219 93.083 -153.333 55.75 -44 c 257
EndSplineSet
Refer: 106 -1 N 1 0 0 1 0 0 2
EndChar

StartChar: si_GRa
Encoding: 115 -1 110
GlifName: si_G_R_a
Width: 636
VWidth: 0
GlyphClass: 2
Flags: W
LayerCount: 2
Back
Fore
SplineSet
55.75 -44 m 257
 85.25 -44 l 257
 118.783 -93.29 175.552 -113.75 288.75 -113.75 c 256
 440.314 -113.75 551.75 -31.0107 551.75 63.25 c 256
 551.75 78.2842 549 90.793 542 102 c 257
 555 133 l 257
 573 106.333 582 74.667 582 38 c 256
 582 -123.729 462.8 -219 311.25 -219 c 256
 171.406 -219 93.083 -153.333 55.75 -44 c 257
EndSplineSet
Refer: 440 3484 N 1 0 0 1 0 0 2
EndChar

StartChar: si_GU
Encoding: 112 -1 111
GlifName: si_G_U_
Width: 636
VWidth: 0
GlyphClass: 2
Flags: W
LayerCount: 2
Back
Fore
SplineSet
306.065 -80 m 256
 306.065 -24.6569 331.817 6.66504 371.565 23 c 257
 381 -5.5 l 257
 365.994 -11.1514 351.065 -26.0908 351.065 -48.25 c 256
 351.065 -84.6162 394.113 -105 445.565 -105 c 256
 506.565 -105 553.758 -82.5625 553.758 -45 c 256
 553.758 -42.0391 553.484 -39.0381 553.065 -36 c 257
 583.065 -36 l 257
 585.42 -45.416 585.5 -60.29 585.5 -69.5 c 256
 585.5 -122.146 541.767 -191.5 441.065 -191.5 c 256
 373.327 -191.5 306.065 -149.233 306.065 -80 c 256
34 207 m 256
 34 330 109 431.5 220 431.5 c 256
 223.953 431.5 228.954 431.25 233 431 c 257
 233 405 l 257
 229.645 405.284 225.311 405.45 222 405.45 c 256
 138 405.45 88 329 88 258 c 256
 88 186 142 140 211 140 c 256
 270 140 294 164 294 191 c 256
 294 216 276 220 269 220 c 256
 258 220 251 217 246 214 c 257
 245 208 244 197.333 244 194 c 257
 216 194 l 257
 225 321 288 431.5 410 431.5 c 256
 522 431.5 586 332 586 217 c 256
 586 95 508.194 -1 417 -1 c 256
 396.65 -1 385.123 -3.65234 377.25 -7 c 257
 368.25 21.5 l 257
 374.127 24.8438 391.462 29 404.75 29 c 256
 465.888 29 498 110 498 175 c 256
 498 255 461 320 363 320 c 256
 292 320 257 277 250 241 c 257
 256 244 263.333 246 270 246 c 256
 320 246 352 202 352 136 c 256
 352 56 295 -2 208 -2 c 256
 97 -2 34 96 34 207 c 256
EndSplineSet
EndChar

StartChar: si_GUu
Encoding: 113 -1 112
GlifName: si_G_U_u
Width: 636
VWidth: 0
GlyphClass: 2
Flags: W
LayerCount: 2
Back
Fore
SplineSet
335.946 -129 m 256
 335.946 -93.3486 362.946 -72 399.946 -67 c 257
 344.946 -39 l 257
 430.196 -14.5 l 257
 338.5 1 l 257
 393 14 l 257
 515 -6 l 257
 407.696 -43.25 l 257
 467.946 -76 l 257
 439.946 -83 385.946 -83.4658 385.946 -104.5 c 256
 385.946 -120.922 417.87 -129 459.946 -129 c 256
 513.946 -129 558.175 -112.984 558.175 -82 c 256
 558.175 -77 557.442 -66.9287 552.196 -59 c 257
 586.946 -59 l 257
 590.537 -71.1182 591.25 -82.833 591.25 -94 c 256
 591.25 -161 539.946 -205 457.946 -205 c 256
 399.946 -205 335.946 -187.466 335.946 -129 c 256
EndSplineSet
Refer: 440 3484 N 1 0 0 1 0 0 2
EndChar

StartChar: si_Gh.halant
Encoding: 119 -1 114
GlifName: si_G_h.halant
Width: 677
VWidth: 0
GlyphClass: 2
Flags: W
LayerCount: 2
Back
Fore
SplineSet
476.5 406 m 257
 476.5 681 l 257
 530.5 639 628 634 628 542 c 256
 628 498 593.191 468 550 468 c 256
 535.333 468 520.333 471.333 505 478 c 257
 505 389 l 257
 476.5 406 l 257
505.105 504.273 m 257
 513.6 499.699 524.382 497.413 537.448 497.413 c 256
 569.454 497.413 583 521.915 583 545.438 c 256
 583 586.602 551.17 606.203 505.105 636.587 c 257
 505.105 504.273 l 257
EndSplineSet
Refer: 441 3485 N 1 0 0 1 0 0 2
EndChar

StartChar: si_GhI
Encoding: 120 -1 115
GlifName: si_G_hI_
Width: 677
VWidth: 0
GlyphClass: 2
Flags: W
LayerCount: 2
Back
Fore
SplineSet
102.5 517 m 256
 102.5 625.291 215.121 670 334.5 670 c 256
 453.879 670 566.5 625.291 566.5 517 c 256
 566.5 442.457 500.357 407.074 423.5 404 c 257
 452 429.75 l 257
 476.122 433.134 515 449.858 515 488 c 256
 515 540.418 423.408 558.75 334.5 558.75 c 256
 245.592 558.75 154.25 540.924 154.25 488.25 c 256
 154.25 454.576 190.272 433.937 216 429 c 257
 245.5 404 l 257
 168.643 407.074 102.5 442.457 102.5 517 c 256
EndSplineSet
Refer: 441 3485 N 1 0 0 1 0 0 2
EndChar

StartChar: si_GhIi
Encoding: 121 -1 116
GlifName: si_G_hI_i
Width: 677
VWidth: 0
GlyphClass: 2
Flags: W
LayerCount: 2
Back
Fore
SplineSet
423.813 492 m 256
 423.813 461.616 453.217 437.114 488.5 437.114 c 256
 523.783 437.114 553.187 461.616 553.187 492 c 256
 553.187 522.384 523.783 546.886 488.5 546.886 c 256
 453.217 546.886 423.813 522.384 423.813 492 c 256
85.5 517 m 256
 85.5 624.211 209.446 671 336.5 671 c 256
 453.214 671 589.5 629.173 589.5 502 c 256
 589.5 446.769 544.777 407 488.5 407 c 256
 430.5 407 390.5 448 390.5 493 c 256
 390.5 528.452 409.456 550.949 426 560 c 257
 415 561.688 367.712 566 337.5 566 c 256
 243.336 566 134 542.524 134 482 c 256
 134 459.175 146.684 437.884 184 427.25 c 257
 175.5 406 l 257
 122.255 410.733 85.5 456 85.5 517 c 256
EndSplineSet
Refer: 441 3485 N 1 0 0 1 0 0 2
EndChar

StartChar: si_GhRI
Encoding: 125 -1 117
GlifName: si_G_hR_I_
Width: 677
VWidth: 0
GlyphClass: 2
Flags: W
LayerCount: 2
Back
Fore
SplineSet
63.25 -44 m 257
 92.75 -44 l 257
 128.832 -87.3613 197.552 -115.5 310.75 -115.5 c 256
 462.314 -115.5 597.25 -31.0107 597.25 63.25 c 256
 597.25 78.2842 594.5 90.793 587.5 102 c 257
 600.5 133 l 257
 618.5 106.333 627.5 74.667 627.5 38 c 256
 627.5 -123.729 484.8 -219 333.25 -219 c 256
 193.406 -219 100.583 -153.333 63.25 -44 c 257
EndSplineSet
Refer: 115 -1 N 1 0 0 1 0 0 2
EndChar

StartChar: si_GhRIi
Encoding: 126 -1 118
GlifName: si_G_hR_I_i
Width: 677
VWidth: 0
GlyphClass: 2
Flags: W
LayerCount: 2
Back
Fore
SplineSet
63.25 -44 m 257
 92.75 -44 l 257
 128.832 -87.3613 197.552 -115.5 310.75 -115.5 c 256
 462.314 -115.5 597.25 -31.0107 597.25 63.25 c 256
 597.25 78.2842 594.5 90.793 587.5 102 c 257
 600.5 133 l 257
 618.5 106.333 627.5 74.667 627.5 38 c 256
 627.5 -123.729 484.8 -219 333.25 -219 c 256
 193.406 -219 100.583 -153.333 63.25 -44 c 257
EndSplineSet
Refer: 116 -1 N 1 0 0 1 0 0 2
EndChar

StartChar: si_GhRa
Encoding: 127 -1 119
GlifName: si_G_hR_a
Width: 677
VWidth: 0
GlyphClass: 2
Flags: W
LayerCount: 2
Back
Fore
SplineSet
63.25 -44 m 257
 92.75 -44 l 257
 128.832 -87.3613 197.552 -115.5 310.75 -115.5 c 256
 462.314 -115.5 597.25 -31.0107 597.25 63.25 c 256
 597.25 78.2842 594.5 90.793 587.5 102 c 257
 600.5 133 l 257
 618.5 106.333 627.5 74.667 627.5 38 c 256
 627.5 -123.729 484.8 -219 333.25 -219 c 256
 193.406 -219 100.583 -153.333 63.25 -44 c 257
EndSplineSet
Refer: 441 3485 N 1 0 0 1 0 0 2
EndChar

StartChar: si_GhU
Encoding: 122 -1 120
GlifName: si_G_hU_
Width: 677
VWidth: 0
GlyphClass: 2
Flags: W
LayerCount: 2
Back
Fore
SplineSet
66.5 -142.5 m 256
 66.5 -90.4912 112.793 -50.5 168 -50.5 c 256
 209.906 -50.5 247.25 -74.1416 262 -110 c 257
 229.25 -121.5 l 257
 222.426 -104.358 201 -81.75 168 -81.75 c 256
 131.296 -81.75 102 -109.716 102 -142.5 c 256
 102 -171.663 123.748 -192.5 193.5 -192.5 c 258
 580.75 -192.5 l 257
 580.75 128 l 257
 616 219 l 257
 616 -235 l 257
 172 -235 l 258
 92.457 -235 66.5 -186.092 66.5 -142.5 c 256
EndSplineSet
Refer: 441 3485 N 1 0 0 1 0 0 2
EndChar

StartChar: si_GhUu
Encoding: 123 -1 121
GlifName: si_G_hU_u
Width: 677
VWidth: 0
GlyphClass: 2
Flags: W
LayerCount: 2
Back
Fore
SplineSet
67.5 -138 m 256
 67.5 -80 116.5 -40 169.5 -40 c 256
 211.5 -40 243.833 -55 266.5 -91 c 257
 233.5 -102 l 257
 222.184 -84.6992 203.5 -70 174.5 -70 c 256
 135.5 -70 110.5 -95.0762 110.5 -120 c 256
 110.5 -151.995 144.815 -167 179 -167 c 256
 293.746 -167 350.077 -114.5 457.75 -114.5 c 256
 508.832 -114.5 554.75 -133.75 581.75 -165.75 c 257
 581.75 152 l 257
 616.75 212 l 257
 616.75 -231 l 257
 591.25 -231 l 257
 576.25 -195 530.699 -146.25 467.75 -146.25 c 256
 376.75 -146.25 306.052 -237 184 -237 c 256
 129 -237 67.5 -206 67.5 -138 c 256
EndSplineSet
Refer: 441 3485 N 1 0 0 1 0 0 2
EndChar

StartChar: si_Gha.reph
Encoding: 124 -1 122
GlifName: si_G_ha.reph
Width: 677
VWidth: 0
GlyphClass: 2
Flags: W
LayerCount: 2
Back
Fore
SplineSet
296.9 511 m 256
 296.9 490.854 315.128 474.547 337 474.547 c 256
 358.872 474.547 377.1 490.854 377.1 511 c 256
 377.1 531.146 358.872 547.453 337 547.453 c 256
 315.128 547.453 296.9 531.146 296.9 511 c 256
194 530 m 256
 194 594 252.12 631 334 631 c 256
 411 631 475 588 475 517 c 256
 475 493 466.667 471.333 450 452 c 257
 414.25 452 l 257
 427.42 464.387 443 488.734 443 516 c 256
 443 570.521 394 602.5 333 602.5 c 256
 280.222 602.5 226.75 579.99 226.75 530 c 256
 226.75 490.925 269.901 473.688 287.5 471.25 c 257
 279.5 477.25 269 491 269 512 c 256
 269 547 300.354 572 336 572 c 256
 377 572 405 545 405 510 c 256
 405 471 370 445 312 445 c 256
 253 445 194 474 194 530 c 256
EndSplineSet
Refer: 441 3485 N 1 0 0 1 0 0 2
EndChar

StartChar: si_H.halant
Encoding: 407 -1 123
GlifName: si_H_.halant
Width: 653
VWidth: 0
GlyphClass: 2
Flags: W
LayerCount: 2
Back
Fore
SplineSet
451.5 413 m 257
 451.5 681 l 257
 505.5 639 603 634 603 542 c 256
 603 498 568.191 468 525 468 c 256
 510.333 468 495.333 471.333 480 478 c 257
 480 407 l 257
 451.5 413 l 257
480.105 504.273 m 257
 488.6 499.699 499.382 497.413 512.448 497.413 c 256
 544.454 497.413 558 521.915 558 545.438 c 256
 558 586.602 526.17 606.203 480.105 636.587 c 257
 480.105 504.273 l 257
EndSplineSet
Refer: 476 3524 N 1 0 0 1 0 0 2
EndChar

StartChar: si_HI
Encoding: 408 -1 124
GlifName: si_H_I_
Width: 653
VWidth: 0
GlyphClass: 2
Flags: W
LayerCount: 2
Back
Fore
SplineSet
150 537 m 256
 150 628 248.984 667 351 667 c 256
 456.345 667 559 618 559 523 c 256
 559 461 520 413 439 407 c 257
 417 431 l 257
 419.693 430.867 426.36 430.806 429 430.806 c 256
 487 430.806 517 465.788 517 498 c 256
 517 552.286 437.674 566 358 566 c 256
 276.527 566 221 537.781 221 503 c 256
 221 453.811 325 431.492 411 431.492 c 256
 412.006 431.492 412.006 431.494 413 431.5 c 257
 397 407.5 l 257
 237 410.833 150 462 150 537 c 256
EndSplineSet
Refer: 476 3524 N 1 0 0 1 0 0 2
EndChar

StartChar: si_HIi
Encoding: 409 -1 125
GlifName: si_H_I_i
Width: 653
VWidth: 0
GlyphClass: 2
Flags: W
LayerCount: 2
Back
Fore
SplineSet
393.546 520 m 256
 393.546 487.107 423.082 460.258 460 460.258 c 256
 496.918 460.258 526.454 487.107 526.454 520 c 256
 526.454 552.893 496.918 579.742 460 579.742 c 256
 423.082 579.742 393.546 552.893 393.546 520 c 256
150 537 m 256
 150 628 248.984 667 351 667 c 256
 456.345 667 559 618.415 559 525 c 256
 559 456.817 502.17 431 460 431 c 256
 414.356 431 361 463.284 361 520 c 256
 361 538.988 367.643 554.466 375 565.781 c 257
 369.354 565.931 363.678 566 358 566 c 256
 276.527 566 221 537.781 221 503 c 256
 221 453.811 325 431.492 411 431.492 c 256
 412.006 431.492 412.006 431.494 413 431.5 c 257
 397 409.5 l 257
 237 412.833 150 462 150 537 c 256
EndSplineSet
Refer: 476 3524 N 1 0 0 1 0 0 2
EndChar

StartChar: si_HRIi
Encoding: 414 -1 126
GlifName: si_H_R_I_i
Width: 653
VWidth: 0
GlyphClass: 2
Flags: W
LayerCount: 2
Back
Fore
SplineSet
393.546 520 m 256
 393.546 487.107 423.082 460.258 460 460.258 c 256
 496.918 460.258 526.454 487.107 526.454 520 c 256
 526.454 552.893 496.918 579.742 460 579.742 c 256
 423.082 579.742 393.546 552.893 393.546 520 c 256
150 537 m 256
 150 628 248.984 667 351 667 c 256
 456.345 667 559 618.415 559 525 c 256
 559 456.817 502.17 431 460 431 c 256
 414.356 431 361 463.284 361 520 c 256
 361 538.988 367.643 554.466 375 565.781 c 257
 369.354 565.931 363.678 566 358 566 c 256
 276.527 566 221 537.781 221 503 c 256
 221 453.811 325 431.492 411 431.492 c 256
 412.006 431.492 412.006 431.494 413 431.5 c 257
 397 409.5 l 257
 237 412.833 150 462 150 537 c 256
61.25 -44 m 257
 90.75 -44 l 257
 124.283 -93.29 184.302 -113.75 297.5 -113.75 c 256
 449.064 -113.75 572.25 -31.0107 572.25 63.25 c 256
 572.25 78.2842 569.5 90.793 562.5 102 c 257
 575.5 133 l 257
 593.5 106.333 602.5 74.667 602.5 38 c 256
 602.5 -123.729 471.55 -219 320 -219 c 256
 180.156 -219 98.583 -153.333 61.25 -44 c 257
EndSplineSet
Refer: 476 3524 N 1 0 0 1 0 0 2
EndChar

StartChar: si_HRa
Encoding: 413 -1 127
GlifName: si_H_R_a
Width: 653
VWidth: 0
GlyphClass: 2
Flags: W
LayerCount: 2
Back
Fore
SplineSet
61.25 -44 m 257
 90.75 -44 l 257
 124.283 -93.29 184.302 -113.75 297.5 -113.75 c 256
 449.064 -113.75 572.25 -31.0107 572.25 63.25 c 256
 572.25 78.2842 569.5 90.793 562.5 102 c 257
 575.5 133 l 257
 593.5 106.333 602.5 74.667 602.5 38 c 256
 602.5 -123.729 471.55 -219 320 -219 c 256
 180.156 -219 98.583 -153.333 61.25 -44 c 257
EndSplineSet
Refer: 476 3524 N 1 0 0 1 0 0 2
EndChar

StartChar: si_HU
Encoding: 410 -1 128
GlifName: si_H_U_
Width: 653
VWidth: 0
GlyphClass: 2
Flags: W
LayerCount: 2
Back
Fore
SplineSet
45.25 -142.5 m 256
 45.25 -90.4912 91.543 -50.5 146.75 -50.5 c 256
 188.656 -50.5 226 -74.1416 240.75 -110 c 257
 208 -121.5 l 257
 201.176 -104.358 179.75 -81.75 146.75 -81.75 c 256
 110.046 -81.75 80.75 -109.716 80.75 -142.5 c 256
 80.75 -171.663 102.498 -192.5 172.25 -192.5 c 258
 562.75 -192.5 l 257
 562.75 128 l 257
 598 219 l 257
 598 -235 l 257
 150.75 -235 l 258
 71.207 -235 45.25 -186.092 45.25 -142.5 c 256
EndSplineSet
Refer: 476 3524 N 1 0 0 1 0 0 2
EndChar

StartChar: si_HUu
Encoding: 411 -1 129
GlifName: si_H_U_u
Width: 653
VWidth: 0
GlyphClass: 2
Flags: W
LayerCount: 2
Back
Fore
SplineSet
45 -138 m 256
 45 -80 94 -40 147 -40 c 256
 189 -40 221.333 -55 244 -91 c 257
 211 -102 l 257
 199.684 -84.6992 181 -70 152 -70 c 256
 113 -70 88 -95.0762 88 -120 c 256
 88 -151.995 116.815 -167 151 -167 c 256
 227.215 -167 331.327 -114.5 439 -114.5 c 256
 490.082 -114.5 536 -133.75 563 -165.75 c 257
 563 152 l 257
 598 212 l 257
 598 -231 l 257
 572.5 -231 l 257
 557.5 -195 511.949 -146.25 449 -146.25 c 256
 358 -146.25 254 -237 156 -237 c 256
 101 -237 45 -206 45 -138 c 256
EndSplineSet
Refer: 476 3524 N 1 0 0 1 0 0 2
EndChar

StartChar: si_Ha.reph
Encoding: 412 -1 130
GlifName: si_H_a.reph
Width: 653
VWidth: 0
GlyphClass: 2
Flags: W
LayerCount: 2
Back
Fore
SplineSet
271.15 511 m 256
 271.15 490.854 289.378 474.547 311.25 474.547 c 256
 333.122 474.547 351.35 490.854 351.35 511 c 256
 351.35 531.146 333.122 547.453 311.25 547.453 c 256
 289.378 547.453 271.15 531.146 271.15 511 c 256
168.25 530 m 256
 168.25 594 226.37 631 308.25 631 c 256
 385.25 631 449.25 588 449.25 517 c 256
 449.25 493 440.917 471.333 424.25 452 c 257
 388.5 452 l 257
 401.67 464.387 417.25 488.734 417.25 516 c 256
 417.25 570.521 368.25 602.5 307.25 602.5 c 256
 254.472 602.5 201 579.99 201 530 c 256
 201 490.925 244.151 473.688 261.75 471.25 c 257
 253.75 477.25 243.25 491 243.25 512 c 256
 243.25 547 274.604 572 310.25 572 c 256
 351.25 572 379.25 545 379.25 510 c 256
 379.25 471 344.25 445 286.25 445 c 256
 227.25 445 168.25 474 168.25 530 c 256
EndSplineSet
Refer: 476 3524 N 1 0 0 1 0 0 2
EndChar

StartChar: si_J.halant
Encoding: 150 -1 131
GlifName: si_J_.halant
Width: 598
VWidth: 0
GlyphClass: 2
Flags: W
LayerCount: 2
Back
Fore
SplineSet
294 336 m 257
 294 756.5 l 257
 348 714.5 445.5 709.5 445.5 617.5 c 256
 445.5 573.5 410.691 543.5 367.5 543.5 c 256
 352.833 543.5 337.833 546.833 322.5 553.5 c 257
 322.5 400 l 257
 294 336 l 257
322.605 579.773 m 257
 331.1 575.199 341.882 572.913 354.948 572.913 c 256
 386.954 572.913 400.5 597.415 400.5 620.938 c 256
 400.5 662.102 368.67 681.703 322.605 712.087 c 257
 322.605 579.773 l 257
EndSplineSet
Refer: 446 3490 N 1 0 0 1 0 0 2
EndChar

StartChar: si_JI
Encoding: 151 -1 132
GlifName: si_J_I_
Width: 598
VWidth: 0
GlyphClass: 2
Flags: W
LayerCount: 2
Back
Fore
SplineSet
233 489.5 m 256
 233 576.568 303.321 657 382 657 c 256
 428.882 657 460.703 626.416 460.705 583 c 256
 460.705 579.106 460.496 576.102 460 572 c 257
 459.982 571.995 430 544.016 430 544 c 257
 432.45 549.302 435.181 564.622 435.181 575.5 c 256
 435.181 599.068 423.688 609 406 609 c 256
 348.62 609 295 546.291 295 482 c 256
 295 450.191 309.158 430.75 340 430.75 c 256
 349.467 430.75 357.154 431.185 374 436 c 257
 373.999 435.978 370.001 425.001 370 425 c 257
 357.178 416.842 329.23 407.635 327 407 c 257
 325.947 406.999 324.051 406.952 323 406.952 c 256
 260.125 406.952 233 439.49 233 489.5 c 256
EndSplineSet
Refer: 446 3490 N 1 0 0 1 0 0 2
EndChar

StartChar: si_JIi
Encoding: 152 -1 133
GlifName: si_J_I_i
Width: 598
VWidth: 0
GlyphClass: 2
Flags: W
LayerCount: 2
Back
Fore
SplineSet
338.691 579 m 256
 338.691 552.372 359.872 531.191 386.5 531.191 c 256
 413.128 531.191 434.309 552.372 434.309 579 c 256
 434.309 605.628 413.128 626.809 386.5 626.809 c 256
 359.872 626.809 338.691 605.628 338.691 579 c 256
233 489.5 m 256
 233 576.568 303.261 656.5 386.75 656.5 c 256
 431.64 656.5 463.955 619.452 463.955 579 c 256
 463.955 540.549 433.976 501.5 386.75 501.5 c 256
 338.253 501.5 314.75 542.459 314.75 557.75 c 256
 314.75 558.25 314.827 559.5 314.865 560.25 c 257
 303.979 540.937 295 515.524 295 488 c 256
 295 452.645 317.348 429.25 343.25 429.25 c 256
 352.422 429.25 363.684 431.481 372.25 436.25 c 257
 372.249 436.228 370.001 425.001 370 425 c 257
 357.178 416.842 329.23 407.635 327 407 c 257
 325.947 406.999 324.051 406.952 323 406.952 c 256
 260.125 406.952 233 439.49 233 489.5 c 256
EndSplineSet
Refer: 446 3490 N 1 0 0 1 0 0 2
EndChar

StartChar: si_JRI
Encoding: 157 -1 134
GlifName: si_J_R_I_
Width: 598
VWidth: 0
GlyphClass: 2
Flags: W
LayerCount: 2
Back
Fore
SplineSet
40.5 -44 m 257
 70 -44 l 257
 107.476 -86.958 170.167 -114.25 275.5 -114.25 c 256
 418.5 -114.25 518 -31.0107 518 63.25 c 256
 518 78.2842 516.438 90.4463 511 102 c 257
 524 133 l 257
 542 106.333 551 74.667 551 38 c 256
 551 -123.729 432.75 -219 288.75 -219 c 256
 155.75 -219 77.833 -153.333 40.5 -44 c 257
233 489.5 m 256
 233 576.568 303.321 657 382 657 c 256
 428.882 657 460.703 626.416 460.705 583 c 256
 460.705 579.106 460.496 576.102 460 572 c 257
 459.982 571.995 430 544.016 430 544 c 257
 432.45 549.302 435.181 564.622 435.181 575.5 c 256
 435.181 599.068 423.688 609 406 609 c 256
 348.62 609 295 546.291 295 482 c 256
 295 450.191 309.158 430.75 340 430.75 c 256
 349.467 430.75 357.154 431.185 374 436 c 257
 373.999 435.978 370.001 425.001 370 425 c 257
 327 407 l 257
 325.947 406.999 324.051 406.952 323 406.952 c 256
 260.125 406.952 233 439.49 233 489.5 c 256
EndSplineSet
Refer: 446 3490 N 1 0 0 1 0 0 2
EndChar

StartChar: si_JRIi
Encoding: 158 -1 135
GlifName: si_J_R_I_i
Width: 598
VWidth: 0
GlyphClass: 2
Flags: W
LayerCount: 2
Back
Fore
SplineSet
40.5 -44 m 257
 70 -44 l 257
 107.476 -86.958 170.167 -114.25 275.5 -114.25 c 256
 418.5 -114.25 518 -31.0107 518 63.25 c 256
 518 78.2842 516.438 90.4463 511 102 c 257
 524 133 l 257
 542 106.333 551 74.667 551 38 c 256
 551 -123.729 432.75 -219 288.75 -219 c 256
 155.75 -219 77.833 -153.333 40.5 -44 c 257
338.691 579 m 256
 338.691 552.372 359.872 531.191 386.5 531.191 c 256
 413.128 531.191 434.309 552.372 434.309 579 c 256
 434.309 605.628 413.128 626.809 386.5 626.809 c 256
 359.872 626.809 338.691 605.628 338.691 579 c 256
233 489.5 m 256
 233 576.568 303.261 656.5 386.75 656.5 c 256
 431.64 656.5 463.955 619.452 463.955 579 c 256
 463.955 540.549 433.976 501.5 386.75 501.5 c 256
 338.253 501.5 314.75 542.459 314.75 557.75 c 256
 314.75 558.25 314.827 559.5 314.865 560.25 c 257
 303.979 540.937 295 515.524 295 488 c 256
 295 452.645 317.348 429.25 343.25 429.25 c 256
 352.422 429.25 363.684 431.481 372.25 436.25 c 257
 372.249 436.228 370.001 425.001 370 425 c 257
 327 407 l 257
 325.947 406.999 324.051 406.952 323 406.952 c 256
 260.125 406.952 233 439.49 233 489.5 c 256
EndSplineSet
Refer: 446 3490 N 1 0 0 1 0 0 2
EndChar

StartChar: si_JRa
Encoding: 156 -1 136
GlifName: si_J_R_a
Width: 598
VWidth: 0
GlyphClass: 2
Flags: W
LayerCount: 2
Back
Fore
SplineSet
40.5 -44 m 257
 70 -44 l 257
 107.476 -86.958 170.167 -114.25 275.5 -114.25 c 256
 418.5 -114.25 518 -31.0107 518 63.25 c 256
 518 78.2842 516.438 90.4463 511 102 c 257
 524 133 l 257
 542 106.333 551 74.667 551 38 c 256
 551 -123.729 432.75 -219 288.75 -219 c 256
 155.75 -219 77.833 -153.333 40.5 -44 c 257
EndSplineSet
Refer: 446 3490 N 1 0 0 1 0 0 2
EndChar

StartChar: si_JU
Encoding: 153 -1 137
GlifName: si_J_U_
Width: 598
VWidth: 0
GlyphClass: 2
Flags: W
LayerCount: 2
Back
Fore
SplineSet
38.75 -142.5 m 256
 38.75 -90.4912 85.043 -50.5 140.25 -50.5 c 256
 182.156 -50.5 219.5 -74.1416 234.25 -110 c 257
 201.5 -121.5 l 257
 194.676 -104.358 173.25 -81.75 140.25 -81.75 c 256
 103.546 -81.75 74.25 -109.716 74.25 -142.5 c 256
 74.25 -171.663 95.998 -192.5 165.75 -192.5 c 258
 505.25 -192.5 l 257
 505.25 128 l 257
 540.5 219 l 257
 540.5 -235 l 257
 144.25 -235 l 258
 64.707 -235 38.75 -186.092 38.75 -142.5 c 256
EndSplineSet
Refer: 446 3490 N 1 0 0 1 0 0 2
EndChar

StartChar: si_JUu
Encoding: 154 -1 138
GlifName: si_J_U_u
Width: 598
VWidth: 0
GlyphClass: 2
Flags: W
LayerCount: 2
Back
Fore
SplineSet
39 -138 m 256
 39 -80 88 -40 141 -40 c 256
 183 -40 215.333 -55 238 -91 c 257
 205 -102 l 257
 193.684 -84.6992 175 -70 146 -70 c 256
 107 -70 82 -95.0762 82 -120 c 256
 82 -151.995 110.815 -167 145 -167 c 256
 221.215 -167 276.327 -114.5 384 -114.5 c 256
 435.082 -114.5 478.75 -133.75 505.75 -165.75 c 257
 505.75 152 l 257
 540.75 212 l 257
 540.75 -231 l 257
 515.25 -231 l 257
 500.25 -195 456.949 -146.25 394 -146.25 c 256
 303 -146.25 248 -237 150 -237 c 256
 95 -237 39 -206 39 -138 c 256
EndSplineSet
Refer: 446 3490 N 1 0 0 1 0 0 2
EndChar

StartChar: si_Ja.reph
Encoding: 155 -1 139
GlifName: si_J_a.reph
Width: 598
VWidth: 0
GlyphClass: 2
Flags: W
LayerCount: 2
Back
Fore
SplineSet
203.15 511 m 256
 203.15 490.854 221.378 474.547 243.25 474.547 c 256
 265.122 474.547 283.35 490.854 283.35 511 c 256
 283.35 531.146 265.122 547.453 243.25 547.453 c 256
 221.378 547.453 203.15 531.146 203.15 511 c 256
100.25 530 m 256
 100.25 594 158.37 631 240.25 631 c 256
 317.25 631 381.25 588 381.25 517 c 256
 381.25 493 372.917 471.333 356.25 452 c 257
 320.5 452 l 257
 333.67 464.387 349.25 488.734 349.25 516 c 256
 349.25 570.521 300.25 602.5 239.25 602.5 c 256
 186.472 602.5 133 579.99 133 530 c 256
 133 490.925 176.151 473.688 193.75 471.25 c 257
 185.75 477.25 175.25 491 175.25 512 c 256
 175.25 547 206.604 572 242.25 572 c 256
 283.25 572 311.25 545 311.25 510 c 256
 311.25 471 276.25 445 218.25 445 c 256
 159.25 445 100.25 474 100.25 530 c 256
EndSplineSet
Refer: 446 3490 N 1 0 0 1 0 0 2
EndChar

StartChar: si_Jh.halant
Encoding: 159 -1 140
GlifName: si_J_h.halant
Width: 1087
VWidth: 0
GlyphClass: 2
Flags: W
LayerCount: 2
Back
Fore
SplineSet
91 143 m 257
 103 153 115 160 129 160 c 256
 161 160 172 140 212 140 c 256
 258 140 280 157 280 214 c 256
 280 216.209 280.041 214.305 280 216 c 257
 308 216 l 257
 307.964 214.664 308 216.33 308 215 c 256
 308 154 332 140 377 140 c 256
 418 140 443 169 443 204 c 256
 443 246 402 287 301 287 c 256
 244.333 287 204.667 280 180 268 c 257
 162.667 253.333 146.522 234.996 131 212 c 256
 104 172 101 163 91 143 c 257
21 22 m 257
 28.6963 91.2695 74.4521 184.165 109 232 c 256
 135 268 148 280 171 304 c 257
 180 314 191.75 331 191.75 352 c 256
 191.75 371 182 386 158 386 c 256
 144 386 128.438 378.533 124 363 c 256
 118 342 122 342 113 323 c 256
 104.732 305.546 87 297 72 297 c 256
 35 297 29 328 29 340 c 256
 29 394.099 79.3633 433 136 433 c 256
 188.348 433 220 399 220 358 c 256
 220 352 220 349 219 341 c 257
 278 396 377 431.5 464 431.5 c 256
 569.164 431.5 649.122 403.737 671 398 c 257
 663.517 397.319 615.758 385.376 603.25 384.5 c 257
 563.635 395.022 515.625 402 471 402 c 256
 331.959 402 252.756 335.149 216.5 304.5 c 257
 246.5 312.5 277.667 314 305 314 c 256
 425 314 515 250 515 126 c 256
 515 67.8477 482 -1 397 -1 c 256
 351 -1 317.333 20.333 296 63 c 257
 278.667 21.667 246.021 -1 204 -1 c 256
 117 -1 120 73 87 73 c 256
 64.6748 73 52 51 49 11 c 257
 21 22 l 257
594 536 m 256
 594 527 613 526 613 515 c 256
 613 513 612 510 610 508 c 257
 643 514 682.675 519 729 519 c 256
 835 519 920 492 978 424 c 257
 943 538 850 574 734 574 c 256
 667 574 594 560 594 536 c 256
483 195 m 256
 483 288 536.248 363.669 602 387 c 256
 622.667 394.333 645.667 398 671 398 c 257
 671 371 l 258
 667.651 371.289 664.316 371.437 661 371.437 c 256
 582 371.437 538 312 538 234 c 256
 538 197.558 564.567 140 638 140 c 256
 690.911 140 738 159 738 223 c 258
 738 249 l 257
 769 249 l 257
 769 223 l 258
 769 159 815.83 141 863 141 c 256
 946.206 141 975.576 217.905 975.576 295.5 c 256
 975.576 412.094 893 491.75 732 491.75 c 256
 656 491.75 572 475.391 492 449 c 257
 492 483 l 257
 524 488.687 574 501.571 574 508 c 256
 574 520 545 521 545 545 c 256
 545 583 613 629 728 629 c 256
 936 629 1010 490 1022 356 c 257
 1031.17 331.008 1038.5 289.347 1038.5 247 c 256
 1038.5 141.355 997.534 2.84217e-14 872 0 c 256
 822.667 0 783 19.6667 753 59 c 257
 722.333 20.3333 684.672 0 640 0 c 256
 538 0 483 96 483 195 c 256
EndSplineSet
EndChar

StartChar: si_JhI
Encoding: 160 -1 141
GlifName: si_J_hI_
Width: 1087
VWidth: 0
GlyphClass: 2
Flags: W
LayerCount: 2
Back
Fore
SplineSet
91 143 m 257
 103 153 115 160 129 160 c 256
 161 160 172 140 212 140 c 256
 258 140 280 157 280 214 c 256
 280 216.209 280.041 214.305 280 216 c 257
 308 216 l 257
 307.964 214.664 308 216.33 308 215 c 256
 308 154 332 140 377 140 c 256
 418 140 443 169 443 204 c 256
 443 246 402 287 301 287 c 256
 244.333 287 204.667 280 180 268 c 257
 162.667 253.333 146.522 234.996 131 212 c 256
 104 172 101 163 91 143 c 257
21 22 m 257
 28.6963 91.2695 74.4521 184.165 109 232 c 256
 135 268 148 280 171 304 c 257
 180 314 191.75 331 191.75 352 c 256
 191.75 371 182 386 158 386 c 256
 144 386 128.438 378.533 124 363 c 256
 118 342 122 342 113 323 c 256
 104.732 305.546 87 297 72 297 c 256
 35 297 29 328 29 340 c 256
 29 394.099 79.3633 433 136 433 c 256
 188.348 433 220 399 220 358 c 256
 220 352 220 349 219 341 c 257
 278 396 377 431.5 464 431.5 c 256
 569.164 431.5 649.122 403.737 671 398 c 257
 663.517 397.319 615.758 385.376 603.25 384.5 c 257
 563.635 395.022 515.625 402 471 402 c 256
 331.959 402 252.756 335.149 216.5 304.5 c 257
 246.5 312.5 277.667 314 305 314 c 256
 425 314 515 250 515 126 c 256
 515 67.8477 482 -1 397 -1 c 256
 351 -1 317.333 20.333 296 63 c 257
 278.667 21.667 246.021 -1 204 -1 c 256
 117 -1 120 73 87 73 c 256
 64.6748 73 52 51 49 11 c 257
 21 22 l 257
EndSplineSet
Refer: 84 -1 N 1 0 0 1 450 0 2
EndChar

StartChar: si_JhIi
Encoding: 161 -1 142
GlifName: si_J_hI_i
Width: 1087
VWidth: 0
GlyphClass: 2
Flags: W
LayerCount: 2
Back
Fore
SplineSet
91 143 m 257
 103 153 115 160 129 160 c 256
 161 160 172 140 212 140 c 256
 258 140 280 157 280 214 c 256
 280 216.209 280.041 214.305 280 216 c 257
 308 216 l 257
 307.964 214.664 308 216.33 308 215 c 256
 308 154 332 140 377 140 c 256
 418 140 443 169 443 204 c 256
 443 246 402 287 301 287 c 256
 244.333 287 204.667 280 180 268 c 257
 162.667 253.333 146.522 234.996 131 212 c 256
 104 172 101 163 91 143 c 257
21 22 m 257
 28.6963 91.2695 74.4521 184.165 109 232 c 256
 135 268 148 280 171 304 c 257
 180 314 191.75 331 191.75 352 c 256
 191.75 371 182 386 158 386 c 256
 144 386 128.438 378.533 124 363 c 256
 118 342 122 342 113 323 c 256
 104.732 305.546 87 297 72 297 c 256
 35 297 29 328 29 340 c 256
 29 394.099 79.3633 433 136 433 c 256
 188.348 433 220 399 220 358 c 256
 220 352 220 349 219 341 c 257
 278 396 377 431.5 464 431.5 c 256
 569.164 431.5 649.122 403.737 671 398 c 257
 663.517 397.319 615.758 385.376 603.25 384.5 c 257
 563.635 395.022 515.625 402 471 402 c 256
 331.959 402 252.756 335.149 216.5 304.5 c 257
 246.5 312.5 277.667 314 305 314 c 256
 425 314 515 250 515 126 c 256
 515 67.8477 482 -1 397 -1 c 256
 351 -1 317.333 20.333 296 63 c 257
 278.667 21.667 246.021 -1 204 -1 c 256
 117 -1 120 73 87 73 c 256
 64.6748 73 52 51 49 11 c 257
 21 22 l 257
EndSplineSet
Refer: 85 -1 N 1 0 0 1 450 0 2
EndChar

StartChar: si_JhRI
Encoding: 168 -1 143
GlifName: si_J_hR_I_
Width: 1087
VWidth: 0
GlyphClass: 2
Flags: W
LayerCount: 2
Back
Fore
SplineSet
505.75 -44 m 257
 535.25 -44 l 257
 572.726 -86.958 639.667 -114.25 745 -114.25 c 256
 888 -114.25 999 -31.0107 999 63.25 c 256
 999 78.2842 997.438 90.4463 992 102 c 257
 1005 133 l 257
 1023 106.333 1032 74.667 1032 38 c 256
 1032 -123.729 903.75 -219 759.75 -219 c 256
 626.75 -219 543.083 -153.333 505.75 -44 c 257
EndSplineSet
Refer: 141 -1 N 1 0 0 1 0 0 2
EndChar

StartChar: si_JhRIi
Encoding: 169 -1 144
GlifName: si_J_hR_I_i
Width: 1087
VWidth: 0
GlyphClass: 2
Flags: W
LayerCount: 2
Back
Fore
SplineSet
505.75 -44 m 257
 535.25 -44 l 257
 572.726 -86.958 639.667 -114.25 745 -114.25 c 256
 888 -114.25 999 -31.0107 999 63.25 c 256
 999 78.2842 997.438 90.4463 992 102 c 257
 1005 133 l 257
 1023 106.333 1032 74.667 1032 38 c 256
 1032 -123.729 903.75 -219 759.75 -219 c 256
 626.75 -219 543.083 -153.333 505.75 -44 c 257
EndSplineSet
Refer: 142 -1 N 1 0 0 1 0 0 2
EndChar

StartChar: si_JhRa
Encoding: 167 -1 145
GlifName: si_J_hR_a
Width: 1087
VWidth: 0
GlyphClass: 2
Flags: W
LayerCount: 2
Back
Fore
SplineSet
505.75 -44 m 257
 535.25 -44 l 257
 572.726 -86.958 639.667 -114.25 745 -114.25 c 256
 888 -114.25 999 -31.0107 999 63.25 c 256
 999 78.2842 997.438 90.4463 992 102 c 257
 1005 133 l 257
 1023 106.333 1032 74.667 1032 38 c 256
 1032 -123.729 903.75 -219 759.75 -219 c 256
 626.75 -219 543.083 -153.333 505.75 -44 c 257
EndSplineSet
Refer: 447 3491 N 1 0 0 1 0 0 2
EndChar

StartChar: si_JhU
Encoding: 162 -1 146
GlifName: si_J_hU_
Width: 1087
VWidth: 0
GlyphClass: 2
Flags: W
LayerCount: 2
Back
Fore
SplineSet
501.5 -142.5 m 256
 501.5 -90.4912 547.793 -50.5 603 -50.5 c 256
 644.906 -50.5 682.25 -74.1416 697 -110 c 257
 664.25 -121.5 l 257
 657.426 -104.358 636 -81.75 603 -81.75 c 256
 566.296 -81.75 537 -109.716 537 -142.5 c 256
 537 -171.663 558.748 -192.5 628.5 -192.5 c 258
 989.75 -192.5 l 257
 989.75 128 l 257
 1025 219 l 257
 1025 -235 l 257
 607 -235 l 258
 527.457 -235 501.5 -186.092 501.5 -142.5 c 256
EndSplineSet
Refer: 447 3491 N 1 0 0 1 0 0 2
EndChar

StartChar: si_JhU.reph
Encoding: 165 -1 147
GlifName: si_J_hU_.reph
Width: 1087
VWidth: 0
GlyphClass: 2
Flags: W
LayerCount: 2
Back
Fore
SplineSet
724.4 622 m 256
 724.4 601.854 742.628 585.547 764.5 585.547 c 256
 786.372 585.547 804.6 601.854 804.6 622 c 256
 804.6 642.146 786.372 658.453 764.5 658.453 c 256
 742.628 658.453 724.4 642.146 724.4 622 c 256
621.5 641 m 256
 621.5 705 679.62 742 761.5 742 c 256
 838.5 742 902.5 699 902.5 628 c 256
 902.5 604 894.167 582.333 877.5 563 c 257
 841.75 563 l 257
 854.92 575.387 870.5 599.734 870.5 627 c 256
 870.5 681.521 821.5 713.5 760.5 713.5 c 256
 707.722 713.5 654.25 690.99 654.25 641 c 256
 654.25 601.925 697.401 584.688 715 582.25 c 257
 707 588.25 696.5 602 696.5 623 c 256
 696.5 658 727.854 683 763.5 683 c 256
 804.5 683 832.5 656 832.5 621 c 256
 832.5 582 797.5 556 739.5 556 c 256
 680.5 556 621.5 585 621.5 641 c 256
EndSplineSet
Refer: 146 -1 N 1 0 0 1 0 0 2
EndChar

StartChar: si_JhUu
Encoding: 163 -1 148
GlifName: si_J_hU_u
Width: 1087
VWidth: 0
GlyphClass: 2
Flags: W
LayerCount: 2
Back
Fore
SplineSet
501 -138 m 256
 501 -80 550 -40 603 -40 c 256
 645 -40 677.333 -55 700 -91 c 257
 667 -102 l 257
 655.684 -84.6992 637 -70 608 -70 c 256
 569 -70 544 -95.0762 544 -120 c 256
 544 -151.995 572.815 -167 607 -167 c 256
 683.215 -167 758.327 -114.5 866 -114.5 c 256
 917.082 -114.5 963 -133.75 990 -165.75 c 257
 990 152 l 257
 1025 212 l 257
 1025 -231 l 257
 999.5 -231 l 257
 984.5 -195 938.949 -146.25 876 -146.25 c 256
 785 -146.25 710 -237 612 -237 c 256
 557 -237 501 -206 501 -138 c 256
EndSplineSet
Refer: 447 3491 N 1 0 0 1 0 0 2
EndChar

StartChar: si_JhUu.reph
Encoding: 166 -1 149
GlifName: si_J_hU_u.reph
Width: 1087
VWidth: 0
GlyphClass: 2
Flags: W
LayerCount: 2
Back
Fore
SplineSet
724.4 622 m 256
 724.4 601.854 742.628 585.547 764.5 585.547 c 256
 786.372 585.547 804.6 601.854 804.6 622 c 256
 804.6 642.146 786.372 658.453 764.5 658.453 c 256
 742.628 658.453 724.4 642.146 724.4 622 c 256
621.5 641 m 256
 621.5 705 679.62 742 761.5 742 c 256
 838.5 742 902.5 699 902.5 628 c 256
 902.5 604 894.167 582.333 877.5 563 c 257
 841.75 563 l 257
 854.92 575.387 870.5 599.734 870.5 627 c 256
 870.5 681.521 821.5 713.5 760.5 713.5 c 256
 707.722 713.5 654.25 690.99 654.25 641 c 256
 654.25 601.925 697.401 584.688 715 582.25 c 257
 707 588.25 696.5 602 696.5 623 c 256
 696.5 658 727.854 683 763.5 683 c 256
 804.5 683 832.5 656 832.5 621 c 256
 832.5 582 797.5 556 739.5 556 c 256
 680.5 556 621.5 585 621.5 641 c 256
501 -138 m 256
 501 -80 550 -40 603 -40 c 256
 645 -40 677.333 -55 700 -91 c 257
 667 -102 l 257
 655.684 -84.6992 637 -70 608 -70 c 256
 569 -70 544 -95.0762 544 -120 c 256
 544 -151.995 572.815 -167 607 -167 c 256
 683.215 -167 758.327 -114.5 866 -114.5 c 256
 917.082 -114.5 963 -133.75 990 -165.75 c 257
 990 152 l 257
 1025 212 l 257
 1025 -231 l 257
 999.5 -231 l 257
 984.5 -195 938.949 -146.25 876 -146.25 c 256
 785 -146.25 710 -237 612 -237 c 256
 557 -237 501 -206 501 -138 c 256
EndSplineSet
Refer: 447 3491 N 1 0 0 1 0 0 2
EndChar

StartChar: si_Jha.reph
Encoding: 164 -1 150
GlifName: si_J_ha.reph
Width: 1087
VWidth: 0
GlyphClass: 2
Flags: W
LayerCount: 2
Back
Fore
SplineSet
724.4 622 m 256
 724.4 601.854 742.628 585.547 764.5 585.547 c 256
 786.372 585.547 804.6 601.854 804.6 622 c 256
 804.6 642.146 786.372 658.453 764.5 658.453 c 256
 742.628 658.453 724.4 642.146 724.4 622 c 256
621.5 641 m 256
 621.5 705 679.62 742 761.5 742 c 256
 838.5 742 902.5 699 902.5 628 c 256
 902.5 604 894.167 582.333 877.5 563 c 257
 841.75 563 l 257
 854.92 575.387 870.5 599.734 870.5 627 c 256
 870.5 681.521 821.5 713.5 760.5 713.5 c 256
 707.722 713.5 654.25 690.99 654.25 641 c 256
 654.25 601.925 697.401 584.688 715 582.25 c 257
 707 588.25 696.5 602 696.5 623 c 256
 696.5 658 727.854 683 763.5 683 c 256
 804.5 683 832.5 656 832.5 621 c 256
 832.5 582 797.5 556 739.5 556 c 256
 680.5 556 621.5 585 621.5 641 c 256
EndSplineSet
Refer: 447 3491 N 1 0 0 1 0 0 2
EndChar

StartChar: si_Jny.halant
Encoding: 182 -1 151
GlifName: si_J_ny.halant
Width: 842
VWidth: 0
GlyphClass: 2
Flags: W
LayerCount: 2
Back
Fore
SplineSet
654.5 401 m 257
 654.5 681 l 257
 708.5 639 806 634 806 542 c 256
 806 498 771.191 468 728 468 c 256
 713.333 468 698.333 471.333 683 478 c 257
 683 395 l 257
 654.5 401 l 257
683.105 504.273 m 257
 691.6 499.699 702.382 497.413 715.448 497.413 c 256
 747.454 497.413 761 521.915 761 545.438 c 256
 761 586.602 729.17 606.203 683.105 636.587 c 257
 683.105 504.273 l 257
EndSplineSet
Refer: 449 3493 N 1 0 0 1 0 0 2
EndChar

StartChar: si_JnyAa
Encoding: 183 -1 152
GlifName: si_J_nyA_a
Width: 842
VWidth: 0
GlyphClass: 2
Flags: W
LayerCount: 2
Back
Fore
SplineSet
421.25 169 m 256
 421.25 274 494.25 317 613.25 317 c 258
 730.5 317 l 257
 720.776 363.186 690.765 390 658.25 390 c 256
 639.25 390 624.799 378.911 616.25 361 c 256
 605.75 339 588.829 333 569 333 c 256
 544 333 526.25 349.75 526.25 370.75 c 256
 526.25 407.033 567.25 433 622.25 433 c 256
 707.989 433 751.99 388.542 769.25 291 c 257
 707.5 291 l 258
 619.5 291 574.5 257 574.5 173 c 256
 574.5 89 626.239 44 675.75 44 c 256
 706.099 44 731 48.25 771 94.25 c 257
 802.75 75 l 257
 782.75 58.333 766.367 41.1865 751 32.75 c 257
 754.333 33.417 752.5 33.5 756.5 33.5 c 256
 804.771 33.5 837.25 -17.8018 837.25 -87 c 256
 837.25 -175 799.905 -212.5 732 -212.5 c 256
 682.845 -212.5 665.25 -187.083 665.25 -166 c 257
 699.75 -166 l 257
 699.754 -173.44 706.397 -176 714.25 -176 c 256
 738.699 -176 750.25 -151.479 750.25 -90 c 256
 750.25 -45.0967 736.908 -17 718.25 -17 c 256
 700.582 -17 694.568 -29.2295 694.5 -45 c 257
 661.75 -45 l 257
 661.797 -29.335 669.425 -8.01855 680.25 2 c 257
 668.7 0.592773 651.583 -1 624.25 -1 c 256
 493.25 -1 421.25 69 421.25 169 c 256
134 207 m 256
 134 330 209 431.5 320 431.5 c 256
 323.953 431.5 328.954 431.25 333 431 c 257
 333 405.5 l 257
 329.645 405.784 325.311 405.95 322 405.95 c 256
 236 405.95 187.75 327.458 187.75 258.25 c 256
 187.75 202.544 227.27 140 308 140 c 256
 367 140 394 160.486 394 190.5 c 256
 394 201.482 388.872 219.75 367 219.75 c 256
 359.667 219.75 350.75 216.75 345.75 212.75 c 257
 344.75 206.75 343.5 197.333 343.5 194 c 257
 314.5 194 l 257
 328.178 354.298 406.221 438 560 438 c 256
 591 438 640.988 436.425 674 426 c 257
 553 408.5 l 257
 547.395 408.655 545.467 408.75 539.75 408.75 c 256
 442.528 408.75 370.746 347.596 349.75 240.75 c 257
 357.75 244.75 363.333 245.75 370 245.75 c 256
 418 245.75 452 202 452 136 c 256
 452 56 395 -2 308 -2 c 256
 197 -2 134 96 134 207 c 256
27 221 m 256
 27 352.7 99.7562 433 239 433 c 256
 248 433 299.296 432.309 326 431.25 c 257
 305 420.25 253.84 413.676 238.25 405.5 c 257
 135.583 405.5 59 347.259 59 218 c 256
 59 137.333 86 78 135 34 c 257
 135 0 l 257
 68.5828 33.2086 27 120.07 27 221 c 256
EndSplineSet
EndChar

StartChar: si_JnyI
Encoding: 187 -1 153
GlifName: si_J_nyI_
Width: 842
VWidth: 0
GlyphClass: 2
Flags: W
LayerCount: 2
Back
Fore
SplineSet
424.91 518 m 256
 424.91 618.564 516.133 671 612.83 671 c 256
 709.527 671 800.75 617.064 800.75 518 c 256
 800.75 443.457 737.414 406.19 684.92 405 c 257
 648 428 l 257
 667.42 427.25 l 257
 723.531 427.251 743.83 458.508 743.83 488 c 256
 743.83 534.694 684.846 554 612.83 554 c 256
 540.814 554 479.83 536.646 479.83 488 c 256
 479.83 465.812 496.549 438 554 438 c 257
 500 424 l 257
 484.693 427.02 424.91 450.955 424.91 518 c 256
EndSplineSet
Refer: 449 3493 N 1 0 0 1 0 0 2
EndChar

StartChar: si_JnyIi
Encoding: 188 -1 154
GlifName: si_J_nyI_i
Width: 842
VWidth: 0
GlyphClass: 2
Flags: W
LayerCount: 2
Back
Fore
SplineSet
639.194 492.5 m 256
 639.194 462.728 668.006 438.718 702.58 438.718 c 256
 737.154 438.718 765.966 462.728 765.966 492.5 c 256
 765.966 522.272 737.154 546.282 702.58 546.282 c 256
 668.006 546.282 639.194 522.272 639.194 492.5 c 256
424.91 522.25 m 256
 424.91 614.278 516.133 671 612.83 671 c 256
 709.527 671 801.75 619.928 801.75 511.25 c 256
 801.75 440.185 753.294 407.5 702.08 407.5 c 256
 642.405 407.5 604.58 448.5 604.58 493.5 c 256
 604.58 535.516 636.982 555.592 643.83 560 c 257
 637.12 560.581 629.242 561.25 613.83 561.25 c 256
 555.183 561.25 472 545.835 472 490 c 256
 472 462.223 500.864 437.75 550 437.75 c 257
 498 423 l 257
 473.658 429.052 424.91 462.996 424.91 522.25 c 256
EndSplineSet
Refer: 449 3493 N 1 0 0 1 0 0 2
EndChar

StartChar: si_JnyRI
Encoding: 192 -1 155
GlifName: si_J_nyR_I_
Width: 842
VWidth: 0
GlyphClass: 2
Flags: W
LayerCount: 2
Back
Fore
SplineSet
421 169 m 256
 421 274 494 317 613 317 c 258
 730.25 317 l 257
 720.526 363.186 690.515 390 658 390 c 256
 639 390 624.549 378.911 616 361 c 256
 605.5 339 588.579 333 568.75 333 c 256
 543.75 333 526 349.75 526 370.75 c 256
 526 407.033 567 433 622 433 c 256
 707.739 433 751.74 388.542 769 291 c 257
 707.25 291 l 258
 619.25 291 574.25 257 574.25 173 c 256
 574.25 89 625.989 44 675.5 44 c 256
 705.849 44 730.75 48.25 770.75 94.25 c 257
 797 78.75 l 257
 756.378 30.0625 712.708 -1 624 -1 c 256
 493 -1 421 69 421 169 c 256
424.91 518 m 256
 424.91 618.564 516.133 671 612.83 671 c 256
 709.527 671 800.75 617.064 800.75 518 c 256
 800.75 443.457 737.414 406.19 684.92 405 c 257
 646 427 l 257
 667.42 427.25 l 257
 723.531 427.251 743.83 458.508 743.83 488 c 256
 743.83 534.694 684.846 554 612.83 554 c 256
 540.814 554 479.83 536.646 479.83 488 c 256
 479.83 465.812 496.549 438 554 438 c 257
 500 424 l 257
 484.693 427.02 424.91 450.955 424.91 518 c 256
423.661 -43 m 257
 450.844 -43 l 257
 478.138 -84.4014 516.962 -103.25 593.75 -103.25 c 256
 683.528 -103.25 769.654 -38.4434 769.654 51 c 256
 769.654 72 769.189 66.0068 768.25 74 c 257
 797 78.75 l 257
 797.004 58.4795 797.25 75.667 797.25 39 c 256
 797.25 -108.6 709.976 -204.25 605 -204.25 c 256
 499.809 -204.25 443.283 -144.604 423.661 -43 c 257
27 221 m 256
 27 352.7 99.7562 433 239 433 c 256
 248 433 299.296 432.309 326 431.25 c 257
 305 420.25 253.84 413.676 238.25 405.5 c 257
 135.583 405.5 59 347.259 59 218 c 256
 59 137.333 86 78 135 34 c 257
 135 0 l 257
 68.5828 33.2086 27 120.07 27 221 c 256
134 207 m 256
 134 330 209 431.5 320 431.5 c 256
 323.953 431.5 328.954 431.25 333 431 c 257
 333 405.5 l 257
 329.645 405.784 325.311 405.95 322 405.95 c 256
 236 405.95 187.75 327.458 187.75 258.25 c 256
 187.75 202.544 227.27 140 308 140 c 256
 367 140 394 160.486 394 190.5 c 256
 394 201.482 388.872 219.75 367 219.75 c 256
 359.667 219.75 350.75 216.75 345.75 212.75 c 257
 344.75 206.75 343.5 197.333 343.5 194 c 257
 314.5 194 l 257
 328.178 354.298 406.221 438 560 438 c 256
 591 438 640.988 436.425 674 426 c 257
 553 408.5 l 257
 547.395 408.655 545.467 408.75 539.75 408.75 c 256
 442.528 408.75 370.746 347.596 349.75 240.75 c 257
 357.75 244.75 363.333 245.75 370 245.75 c 256
 418 245.75 452 202 452 136 c 256
 452 56 395 -2 308 -2 c 256
 197 -2 134 96 134 207 c 256
EndSplineSet
EndChar

StartChar: si_JnyRIi
Encoding: 193 -1 156
GlifName: si_J_nyR_I_i
Width: 842
VWidth: 0
GlyphClass: 2
Flags: W
LayerCount: 2
Back
Fore
SplineSet
639.364 492.5 m 256
 639.364 462.728 668.176 438.718 702.75 438.718 c 256
 737.324 438.718 766.136 462.728 766.136 492.5 c 256
 766.136 522.272 737.324 546.282 702.75 546.282 c 256
 668.176 546.282 639.364 522.272 639.364 492.5 c 256
425.08 518 m 256
 425.08 618.564 516.303 671 613 671 c 256
 709.697 671 801.92 619.928 801.92 511.25 c 256
 801.92 440.185 753.464 407.5 702.25 407.5 c 256
 642.575 407.5 604.75 448.5 604.75 493.5 c 256
 604.75 535.516 637.152 555.592 644 560 c 257
 637.29 560.581 629.412 561.25 614 561.25 c 256
 555.353 561.25 478 547.335 478 491.5 c 256
 478 463.723 503.389 431.5 565 431.5 c 257
 546 412 l 257
 480.041 421.727 425.08 450.955 425.08 518 c 256
423.661 -43 m 257
 450.844 -43 l 257
 478.138 -84.4014 516.962 -103.25 593.75 -103.25 c 256
 683.528 -103.25 769.654 -38.4434 769.654 51 c 256
 769.654 72 769.189 66.0068 768.25 74 c 257
 797 78.75 l 257
 797.004 58.4795 797.25 75.667 797.25 39 c 256
 797.25 -108.6 709.976 -204.25 605 -204.25 c 256
 499.809 -204.25 443.283 -144.604 423.661 -43 c 257
421 169 m 256
 421 274 494 317 613 317 c 258
 730.25 317 l 257
 720.526 363.186 690.515 390 658 390 c 256
 639 390 624.549 378.911 616 361 c 256
 605.5 339 588.579 333 568.75 333 c 256
 543.75 333 526 349.75 526 370.75 c 256
 526 407.033 567 433 622 433 c 256
 707.739 433 751.74 388.542 769 291 c 257
 707.25 291 l 258
 619.25 291 574.25 257 574.25 173 c 256
 574.25 89 625.989 44 675.5 44 c 256
 705.849 44 730.75 48.25 770.75 94.25 c 257
 797 78.75 l 257
 756.378 30.0625 712.708 -1 624 -1 c 256
 493 -1 421 69 421 169 c 256
134 207 m 256
 134 330 209 431.5 320 431.5 c 256
 323.953 431.5 328.954 431.25 333 431 c 257
 333 405.5 l 257
 329.645 405.784 325.311 405.95 322 405.95 c 256
 236 405.95 187.75 327.458 187.75 258.25 c 256
 187.75 202.544 227.27 140 308 140 c 256
 367 140 394 160.486 394 190.5 c 256
 394 201.482 388.872 219.75 367 219.75 c 256
 359.667 219.75 350.75 216.75 345.75 212.75 c 257
 344.75 206.75 343.5 197.333 343.5 194 c 257
 314.5 194 l 257
 328.178 354.298 406.221 438 560 438 c 256
 591 438 640.988 436.425 674 426 c 257
 553 408.5 l 257
 547.395 408.655 545.467 408.75 539.75 408.75 c 256
 442.528 408.75 370.746 347.596 349.75 240.75 c 257
 357.75 244.75 363.333 245.75 370 245.75 c 256
 418 245.75 452 202 452 136 c 256
 452 56 395 -2 308 -2 c 256
 197 -2 134 96 134 207 c 256
27 221 m 256
 27 352.7 99.7562 433 239 433 c 256
 248 433 299.296 432.309 326 431.25 c 257
 305 420.25 253.84 413.676 238.25 405.5 c 257
 135.583 405.5 59 347.259 59 218 c 256
 59 137.333 86 78 135 34 c 257
 135 0 l 257
 68.5828 33.2086 27 120.07 27 221 c 256
EndSplineSet
EndChar

StartChar: si_JnyRa
Encoding: 191 -1 157
GlifName: si_J_nyR_a
Width: 842
VWidth: 0
GlyphClass: 2
Flags: W
LayerCount: 2
Back
Fore
SplineSet
423.661 -43 m 257
 450.844 -43 l 257
 478.138 -84.4014 516.962 -103.25 593.75 -103.25 c 256
 683.528 -103.25 769.654 -38.4434 769.654 51 c 256
 769.654 72 769.189 66.0068 768.25 74 c 257
 797 78.75 l 257
 797.004 58.4795 797.25 75.667 797.25 39 c 256
 797.25 -108.6 709.976 -204.25 605 -204.25 c 256
 499.809 -204.25 443.283 -144.604 423.661 -43 c 257
421 169 m 256
 421 274 494 317 613 317 c 258
 730.25 317 l 257
 720.526 363.186 690.515 390 658 390 c 256
 639 390 624.549 378.911 616 361 c 256
 605.5 339 588.579 333 568.75 333 c 256
 543.75 333 526 349.75 526 370.75 c 256
 526 407.033 567 433 622 433 c 256
 707.739 433 751.74 388.542 769 291 c 257
 707.25 291 l 258
 619.25 291 574.25 257 574.25 173 c 256
 574.25 89 625.989 44 675.5 44 c 256
 705.849 44 730.75 48.25 770.75 94.25 c 257
 797 78.75 l 257
 756.378 30.0625 712.708 -1 624 -1 c 256
 493 -1 421 69 421 169 c 256
27 221 m 256
 27 352.7 99.7562 433 239 433 c 256
 248 433 299.296 432.309 326 431.25 c 257
 305 420.25 253.84 413.676 238.25 405.5 c 257
 135.583 405.5 59 347.259 59 218 c 256
 59 137.333 86 78 135 34 c 257
 135 0 l 257
 68.5828 33.2086 27 120.07 27 221 c 256
134 207 m 256
 134 330 209 431.5 320 431.5 c 256
 323.953 431.5 328.954 431.25 333 431 c 257
 333 405.5 l 257
 329.645 405.784 325.311 405.95 322 405.95 c 256
 236 405.95 187.75 327.458 187.75 258.25 c 256
 187.75 202.544 227.27 140 308 140 c 256
 367 140 394 160.486 394 190.5 c 256
 394 201.482 388.872 219.75 367 219.75 c 256
 359.667 219.75 350.75 216.75 345.75 212.75 c 257
 344.75 206.75 343.5 197.333 343.5 194 c 257
 314.5 194 l 257
 328.178 354.298 406.221 438 560 438 c 256
 591 438 640.988 436.425 674 426 c 257
 553 408.5 l 257
 547.395 408.655 545.467 408.75 539.75 408.75 c 256
 442.528 408.75 370.746 347.596 349.75 240.75 c 257
 357.75 244.75 363.333 245.75 370 245.75 c 256
 418 245.75 452 202 452 136 c 256
 452 56 395 -2 308 -2 c 256
 197 -2 134 96 134 207 c 256
EndSplineSet
EndChar

StartChar: si_JnyU
Encoding: 189 -1 158
GlifName: si_J_nyU_
Width: 842
VWidth: 0
GlyphClass: 2
Flags: W
LayerCount: 2
Back
Fore
SplineSet
422.75 -142.5 m 256
 422.75 -90.4912 469.043 -50.5 524.25 -50.5 c 256
 566.156 -50.5 603.5 -74.1416 618.25 -110 c 257
 585.5 -121.5 l 257
 578.676 -104.358 557.25 -81.75 524.25 -81.75 c 256
 487.546 -81.75 458.25 -109.716 458.25 -142.5 c 256
 458.25 -171.663 479.998 -192.5 549.75 -192.5 c 258
 761.5 -192.5 l 257
 761.5 71 l 257
 796.75 79 l 257
 796.75 -235 l 257
 528.25 -235 l 258
 448.707 -235 422.75 -186.092 422.75 -142.5 c 256
421 169 m 256
 421 274 494 317 613 317 c 258
 730.25 317 l 257
 720.526 363.186 690.515 390 658 390 c 256
 639 390 624.549 378.911 616 361 c 256
 605.5 339 588.579 333 568.75 333 c 256
 543.75 333 526 349.75 526 370.75 c 256
 526 407.033 567 433 622 433 c 256
 707.739 433 751.74 388.542 769 291 c 257
 707.25 291 l 258
 619.25 291 574.25 257 574.25 173 c 256
 574.25 89 625.989 44 675.5 44 c 256
 705.849 44 730.75 48.25 770.75 94.25 c 257
 796.5 79 l 257
 759.867 31.4551 712.708 -1 624 -1 c 256
 493 -1 421 69 421 169 c 256
27 221 m 256
 27 352.7 99.7562 433 239 433 c 256
 248 433 299.296 432.309 326 431.25 c 257
 305 420.25 253.84 413.676 238.25 405.5 c 257
 135.583 405.5 59 347.259 59 218 c 256
 59 137.333 86 78 135 34 c 257
 135 0 l 257
 68.5828 33.2086 27 120.07 27 221 c 256
134 207 m 256
 134 330 209 431.5 320 431.5 c 256
 323.953 431.5 328.954 431.25 333 431 c 257
 333 405.5 l 257
 329.645 405.784 325.311 405.95 322 405.95 c 256
 236 405.95 187.75 327.458 187.75 258.25 c 256
 187.75 202.544 227.27 140 308 140 c 256
 367 140 394 160.486 394 190.5 c 256
 394 201.482 388.872 219.75 367 219.75 c 256
 359.667 219.75 350.75 216.75 345.75 212.75 c 257
 344.75 206.75 343.5 197.333 343.5 194 c 257
 314.5 194 l 257
 328.178 354.298 406.221 438 560 438 c 256
 591 438 640.988 436.425 674 426 c 257
 553 408.5 l 257
 547.395 408.655 545.467 408.75 539.75 408.75 c 256
 442.528 408.75 370.746 347.596 349.75 240.75 c 257
 357.75 244.75 363.333 245.75 370 245.75 c 256
 418 245.75 452 202 452 136 c 256
 452 56 395 -2 308 -2 c 256
 197 -2 134 96 134 207 c 256
EndSplineSet
EndChar

StartChar: si_JnyUu
Encoding: 190 -1 159
GlifName: si_J_nyU_u
Width: 842
VWidth: 0
GlyphClass: 2
Flags: W
LayerCount: 2
Back
Fore
SplineSet
423 -138 m 256
 423 -80 472 -40 525 -40 c 256
 567 -40 599.333 -55 622 -91 c 257
 589 -102 l 257
 577.684 -84.6992 559 -70 530 -70 c 256
 491 -70 466 -95.0762 466 -120 c 256
 466 -151.995 494.815 -167 529 -167 c 256
 595.98 -167 616.906 -127.5 685.5 -127.5 c 256
 712.705 -127.5 741.938 -138.36 762 -157.25 c 257
 762 69 l 257
 797 78.75 l 257
 797 -233.25 l 257
 771.5 -231 l 257
 756.5 -195 730.226 -159.25 686 -159.25 c 256
 631.912 -159.25 611.979 -237 524.75 -237 c 256
 469.75 -237 423 -206 423 -138 c 256
421 169 m 256
 421 274 494 317 613 317 c 258
 730.25 317 l 257
 720.526 363.186 690.515 390 658 390 c 256
 639 390 624.549 378.911 616 361 c 256
 605.5 339 588.579 333 568.75 333 c 256
 543.75 333 526 349.75 526 370.75 c 256
 526 407.033 567 433 622 433 c 256
 707.739 433 751.74 388.542 769 291 c 257
 707.25 291 l 258
 619.25 291 574.25 257 574.25 173 c 256
 574.25 89 625.989 44 675.5 44 c 256
 705.849 44 730.75 48.25 770.75 94.25 c 257
 797 78.75 l 257
 756.378 30.0625 712.708 -1 624 -1 c 256
 493 -1 421 69 421 169 c 256
27 221 m 256
 27 352.7 99.7562 433 239 433 c 256
 248 433 299.296 432.309 326 431.25 c 257
 305 420.25 253.84 413.676 238.25 405.5 c 257
 135.583 405.5 59 347.259 59 218 c 256
 59 137.333 86 78 135 34 c 257
 135 0 l 257
 68.5828 33.2086 27 120.07 27 221 c 256
134 207 m 256
 134 330 209 431.5 320 431.5 c 256
 323.953 431.5 328.954 431.25 333 431 c 257
 333 405.5 l 257
 329.645 405.784 325.311 405.95 322 405.95 c 256
 236 405.95 187.75 327.458 187.75 258.25 c 256
 187.75 202.544 227.27 140 308 140 c 256
 367 140 394 160.486 394 190.5 c 256
 394 201.482 388.872 219.75 367 219.75 c 256
 359.667 219.75 350.75 216.75 345.75 212.75 c 257
 344.75 206.75 343.5 197.333 343.5 194 c 257
 314.5 194 l 257
 328.178 354.298 406.221 438 560 438 c 256
 591 438 640.988 436.425 674 426 c 257
 553 408.5 l 257
 547.395 408.655 545.467 408.75 539.75 408.75 c 256
 442.528 408.75 370.746 347.596 349.75 240.75 c 257
 357.75 244.75 363.333 245.75 370 245.75 c 256
 418 245.75 452 202 452 136 c 256
 452 56 395 -2 308 -2 c 256
 197 -2 134 96 134 207 c 256
EndSplineSet
EndChar

StartChar: si_K.halant
Encoding: 90 -1 160
GlifName: si_K_.halant
Width: 746
VWidth: 0
GlyphClass: 2
Flags: W
LayerCount: 2
Back
Fore
SplineSet
549.5 348 m 257
 549.5 681 l 257
 603.5 639 701 634 701 542 c 256
 701 498 666.191 468 623 468 c 256
 608.333 468 593.333 471.333 578 478 c 257
 578 331 l 257
 549.5 348 l 257
578.105 504.273 m 257
 586.6 499.699 597.382 497.413 610.448 497.413 c 256
 642.454 497.413 656 521.915 656 545.438 c 256
 656 586.602 624.17 606.203 578.105 636.587 c 257
 578.105 504.273 l 257
EndSplineSet
Refer: 438 3482 N 1 0 0 1 0 0 2
EndChar

StartChar: si_KI
Encoding: 91 -1 161
GlifName: si_K_I_
Width: 746
VWidth: 0
GlyphClass: 2
Flags: W
LayerCount: 2
Back
Fore
SplineSet
218 421 m 256
 218 590 330 671 473 671 c 256
 603 671 688 610 688 505 c 256
 688 444 658 402 610 383 c 257
 578.75 403.5 l 257
 612.845 407.907 633 426.338 633 456 c 256
 633 514.546 555 549.75 473 549.75 c 256
 336 549.75 246.5 473.841 246.5 396.25 c 256
 246.5 386.95 247.657 375.107 250.25 365.5 c 257
 225 343 l 257
 220.903 360.752 218 389.837 218 421 c 256
EndSplineSet
Refer: 438 3482 N 1 0 0 1 0 0 2
EndChar

StartChar: si_KIi
Encoding: 92 -1 162
GlifName: si_K_I_i
Width: 746
VWidth: 0
GlyphClass: 2
Flags: W
LayerCount: 2
Back
Fore
SplineSet
532.302 476 m 256
 532.302 444.706 559.077 418.458 591 418.458 c 256
 622.923 418.458 649.698 444.706 649.698 476 c 256
 649.698 507.294 622.923 533.542 591 533.542 c 256
 559.077 533.542 532.302 507.294 532.302 476 c 256
218 421 m 256
 218 590 330 671 473 671 c 256
 603 671 689 600 689 495 c 256
 689 444 651 388 593 388 c 256
 535 388 500 433 500 477 c 256
 500 509.016 514.2 528.216 531.25 543.25 c 257
 517.943 547.273 491.614 550 474.25 550 c 256
 323.992 550 246.25 464.06 246.25 398 c 256
 246.25 383.333 248.333 376.011 250.25 365 c 257
 225 343 l 257
 220.903 360.752 218 389.837 218 421 c 256
EndSplineSet
Refer: 438 3482 N 1 0 0 1 0 0 2
EndChar

StartChar: si_KRI
Encoding: 98 -1 163
GlifName: si_K_R_I_
Width: 746
VWidth: 0
GlyphClass: 2
Flags: W
LayerCount: 2
Back
Fore
SplineSet
114 -44 m 257
 143.5 -44 l 257
 177.033 -93.29 247.552 -112.75 360.75 -112.75 c 256
 512.314 -112.75 655.75 -31.0107 655.75 63.25 c 256
 655.75 78.2842 653 90.793 646 102 c 257
 659 133 l 257
 677 106.333 686 74.667 686 38 c 256
 686 -123.729 536.3 -219 384.75 -219 c 256
 244.907 -219 151.333 -153.333 114 -44 c 257
EndSplineSet
Refer: 161 -1 N 1 0 0 1 0 0 2
EndChar

StartChar: si_KRIi
Encoding: 99 -1 164
GlifName: si_K_R_I_i
Width: 746
VWidth: 0
GlyphClass: 2
Flags: W
LayerCount: 2
Back
Fore
SplineSet
114 -44 m 257
 143.5 -44 l 257
 177.033 -93.29 247.552 -112.75 360.75 -112.75 c 256
 512.314 -112.75 655.75 -31.0107 655.75 63.25 c 256
 655.75 78.2842 653 90.793 646 102 c 257
 659 133 l 257
 677 106.333 686 74.667 686 38 c 256
 686 -123.729 536.3 -219 384.75 -219 c 256
 244.907 -219 151.333 -153.333 114 -44 c 257
EndSplineSet
Refer: 162 -1 N 1 0 0 1 0 0 2
EndChar

StartChar: si_KRa
Encoding: 97 -1 165
GlifName: si_K_R_a
Width: 746
VWidth: 0
GlyphClass: 2
Flags: W
LayerCount: 2
Back
Fore
SplineSet
114 -44 m 257
 143.5 -44 l 257
 177.033 -93.29 247.552 -112.75 360.75 -112.75 c 256
 512.314 -112.75 655.75 -31.0107 655.75 63.25 c 256
 655.75 78.2842 653 90.793 646 102 c 257
 659 133 l 257
 677 106.333 686 74.667 686 38 c 256
 686 -123.729 536.3 -219 384.75 -219 c 256
 244.907 -219 151.333 -153.333 114 -44 c 257
EndSplineSet
Refer: 438 3482 N 1 0 0 1 0 0 2
EndChar

StartChar: si_KSs.halant
Encoding: 440 -1 166
GlifName: si_K_S_s.halant
Width: 1069
VWidth: 0
GlyphClass: 2
Flags: W
LayerCount: 2
Back
Fore
SplineSet
868.75 423 m 257
 868.75 681 l 257
 922.75 639 1020.25 634 1020.25 542 c 256
 1020.25 498 985.441 468 942.25 468 c 256
 927.583 468 912.583 471.333 897.25 478 c 257
 897.25 410 l 257
 868.75 423 l 257
897.355 504.273 m 257
 905.85 499.699 916.632 497.413 929.698 497.413 c 256
 961.704 497.413 975.25 521.915 975.25 545.438 c 256
 975.25 586.602 943.42 606.203 897.355 636.587 c 257
 897.355 504.273 l 257
EndSplineSet
Refer: 171 -1 N 1 0 0 1 0 0 2
EndChar

StartChar: si_KSsI
Encoding: 441 -1 167
GlifName: si_K_S_sI_
Width: 1069
VWidth: 0
GlyphClass: 2
Flags: W
LayerCount: 2
Back
Fore
SplineSet
515.25 518 m 256
 515.25 626.291 627.871 671 747.25 671 c 256
 866.629 671 979.25 626.291 979.25 518 c 256
 979.25 443.457 913.107 408.074 836.25 405 c 257
 838.75 426.25 l 257
 892.426 429.075 914.5 447.041 914.5 479 c 256
 914.5 521.434 833.688 535.75 747.25 535.75 c 256
 658.342 535.75 575.75 521.776 575.75 479 c 256
 575.75 450.304 602.074 429.075 655.75 426.25 c 257
 658.25 405 l 257
 581.393 408.074 515.25 443.457 515.25 518 c 256
EndSplineSet
Refer: 171 -1 N 1 0 0 1 0 0 2
EndChar

StartChar: si_KSsIi
Encoding: 442 -1 168
GlifName: si_K_S_sI_i
Width: 1069
VWidth: 0
GlyphClass: 2
Flags: W
LayerCount: 2
Back
Fore
SplineSet
834.063 514 m 256
 834.063 483.616 863.467 459.114 898.75 459.114 c 256
 934.033 459.114 963.437 483.616 963.437 514 c 256
 963.437 544.384 934.033 568.886 898.75 568.886 c 256
 863.467 568.886 834.063 544.384 834.063 514 c 256
495.75 517 m 256
 495.75 624.211 619.696 671 746.75 671 c 256
 863.464 671 999.75 627.399 999.75 524 c 256
 999.75 468.769 955.027 429 898.75 429 c 256
 840.75 429 800.75 470 800.75 515 c 256
 800.75 525.451 803.519 549.089 816.75 562 c 257
 807.901 563.391 767.252 565 734.75 565 c 256
 640.586 565 542.25 542.711 542.25 482 c 256
 542.25 459.935 554.791 437 590.25 428 c 257
 585.75 406 l 257
 532.505 410.733 495.75 456 495.75 517 c 256
EndSplineSet
Refer: 171 -1 N 1 0 0 1 0 0 2
EndChar

StartChar: si_KSsU
Encoding: 443 -1 169
GlifName: si_K_S_sU_
Width: 1069
VWidth: 0
GlyphClass: 2
Flags: W
LayerCount: 2
Back
Fore
SplineSet
492.5 -142.5 m 256
 492.5 -90.4912 538.793 -50.5 594 -50.5 c 256
 635.906 -50.5 673.25 -74.1416 688 -110 c 257
 655.25 -121.5 l 257
 648.426 -104.358 627 -81.75 594 -81.75 c 256
 557.296 -81.75 528 -109.716 528 -142.5 c 256
 528 -171.663 549.748 -192.5 619.5 -192.5 c 258
 980 -192.5 l 257
 980 128 l 257
 1015.25 219 l 257
 1015.25 -235 l 257
 598 -235 l 258
 518.457 -235 492.5 -186.092 492.5 -142.5 c 256
EndSplineSet
Refer: 171 -1 N 1 0 0 1 0 0 2
EndChar

StartChar: si_KSsUu
Encoding: 444 -1 170
GlifName: si_K_S_sU_u
Width: 1069
VWidth: 0
GlyphClass: 2
Flags: W
LayerCount: 2
Back
Fore
SplineSet
490.994 -138 m 256
 490.994 -80 539.994 -40 592.994 -40 c 256
 634.994 -40 667.327 -55 689.994 -91 c 257
 656.994 -102 l 257
 645.678 -84.6992 626.994 -70 597.994 -70 c 256
 558.994 -70 533.994 -95.0762 533.994 -120 c 256
 533.994 -151.995 568.31 -167 602.494 -167 c 256
 717.24 -167 751.321 -114.5 858.994 -114.5 c 256
 910.076 -114.5 952.994 -133.75 979.994 -165.75 c 257
 979.994 152 l 257
 1014.99 212 l 257
 1014.99 -231 l 257
 989.494 -231 l 257
 974.494 -195 931.943 -146.25 868.994 -146.25 c 256
 777.994 -146.25 729.546 -237 607.494 -237 c 256
 552.494 -237 490.994 -206 490.994 -138 c 256
EndSplineSet
Refer: 171 -1 N 1 0 0 1 0 0 2
EndChar

StartChar: si_KSsa
Encoding: 429 -1 171
GlifName: si_K_S_sa
Width: 1069
VWidth: 0
GlyphClass: 2
Flags: W
LayerCount: 2
Back
Fore
SplineSet
91 143 m 257
 103 153 115 160 129 160 c 256
 161 160 172 140 212 140 c 256
 258 140 280 157 280 214 c 256
 280 216.209 280.041 214.305 280 216 c 257
 308 216 l 257
 307.964 214.664 308 216.33 308 215 c 256
 308 154 332 140 377 140 c 256
 418 140 443 169 443 204 c 256
 443 246 402 287 301 287 c 256
 244.333 287 204.667 280 180 268 c 257
 162.667 253.333 146.522 234.996 131 212 c 256
 104 172 101 163 91 143 c 257
21 22 m 257
 28.6963 91.2695 74.4521 184.165 109 232 c 256
 135 268 148 280 171 304 c 257
 180 314 191.75 331 191.75 352 c 256
 191.75 371 182 386 158 386 c 256
 144 386 128.438 378.533 124 363 c 256
 118 342 122 342 113 323 c 256
 104.732 305.546 87 297 72 297 c 256
 35 297 29 328 29 340 c 256
 29 394.099 79.3633 433 136 433 c 256
 188.348 433 220 399 220 358 c 256
 220 352 220 349 219 341 c 257
 292 392 405 435.5 544 435.5 c 256
 599.165 435.5 624 432 624 432 c 257
 616.517 431.319 545.508 403.876 543 403 c 257
 543 403 540 404 536 404 c 256
 361.004 404 252.756 335.149 216.5 304.5 c 257
 246.5 312.5 277.667 314 305 314 c 256
 425 314 515 250 515 126 c 256
 515 67.8477 482 -1 397 -1 c 256
 351 -1 317.333 20.333 296 63 c 257
 278.667 21.667 246.021 -1 204 -1 c 256
 117 -1 120 73 87 73 c 256
 64.6748 73 52 51 49 11 c 257
 21 22 l 257
478.575 183.555 m 256
 478.575 274.624 546.474 328.428 654.244 328.428 c 256
 667.244 328.428 676.952 327.789 689.744 326.5 c 257
 690.205 330.324 690.426 332.491 690.426 336 c 256
 690.426 375 663.59 392 638.244 392 c 256
 606.214 392 598.15 374.803 593.244 356 c 256
 589.591 342 574.59 326 546.244 326 c 256
 519.473 326 502.069 341 502.069 366 c 256
 502.069 408.195 550.244 433.626 605.434 433.626 c 256
 677.792 433.626 722.113 401 722.113 334 c 256
 722.113 322.637 720.876 311.304 718.244 298 c 257
 700.425 300.376 665.475 301.718 664.244 301.718 c 256
 586.965 301.718 541.244 278.626 541.244 228 c 256
 541.244 161.951 640.244 131 754.244 131 c 256
 860.795 131 961.244 159.634 961.244 228 c 256
 961.244 276.974 919.244 303.612 841.244 303.612 c 256
 818.063 303.612 794.171 301.169 771.244 297 c 257
 769.316 307.924 768.388 318.267 768.388 328 c 256
 768.388 397 813.201 433.118 886.089 433.118 c 256
 952.244 433.118 988.263 392.966 988.263 354 c 256
 988.263 291.661 896.275 269.262 846.244 259.5 c 257
 865.577 250.833 879.244 237.419 879.244 220.5 c 256
 879.244 175.5 822.244 161.5 743.244 161.5 c 256
 687.57 161.5 619.244 172.5 619.244 221.5 c 256
 619.244 246.551 639.244 273.5 735.244 273.5 c 256
 758.244 273.5 805.337 274.952 836.244 280.5 c 256
 886.597 289.538 949.473 306.338 949.473 351 c 256
 949.473 380 921.784 402.388 879.244 402.388 c 256
 836.021 402.388 801.929 377.065 801.929 336 c 256
 801.929 332.228 802.207 330.364 802.744 326.5 c 257
 819.699 328.555 834.589 329.598 850.244 329.598 c 256
 941.598 329.598 1021.25 293.413 1021.25 186.451 c 256
 1021.25 55.5615 894.889 0 754.244 0 c 256
 605.834 0 478.575 45.9199 478.575 183.555 c 256
651.244 221.46 m 256
 651.244 198.92 682.931 188.14 746.304 188.14 c 256
 812.944 188.14 847.244 198.92 847.244 220.48 c 256
 847.244 244.662 813.924 250.86 745.324 250.86 c 256
 681.624 250.86 651.244 243.02 651.244 221.46 c 256
EndSplineSet
EndChar

StartChar: si_KU
Encoding: 93 -1 172
GlifName: si_K_U_
Width: 746
VWidth: 0
GlyphClass: 2
Flags: W
LayerCount: 2
Back
Fore
SplineSet
444.065 -80 m 256
 444.065 -28.6569 470.997 4.66504 512.565 23 c 257
 522 -5.5 l 257
 505.49 -11.1514 489.065 -26.0908 489.065 -48.25 c 256
 489.065 -84.6162 533.48 -105 586.565 -105 c 256
 645.874 -105 691.758 -82.5625 691.758 -45 c 256
 691.758 -42.0391 691.484 -39.0381 691.065 -36 c 257
 721.065 -36 l 257
 723.42 -45.416 723.5 -60.29 723.5 -69.5 c 256
 723.5 -122.146 680.675 -191.5 582.065 -191.5 c 256
 512.822 -191.5 444.065 -149.233 444.065 -80 c 256
21 22 m 257
 28.6966 91.2697 74.4525 184.165 109 232 c 256
 135 268 148 280 171 304 c 257
 180 314 191.75 331 191.75 352 c 256
 191.75 371 182 386 158 386 c 256
 144 386 128.438 378.533 124 363 c 256
 118 342 122 342 113 323 c 256
 104.732 305.546 87 297 72 297 c 256
 35 297 29 328 29 340 c 256
 29 394.099 79.3632 433 136 433 c 256
 188.348 433 220 399 220 358 c 256
 220 352 220 349 219 341 c 257
 278 396 366 434 453 434 c 256
 603 434 701 326.971 701 194 c 256
 701 81.366 638.459 -1 555 -1 c 256
 534.65 -1 527.123 -3.65234 519.25 -7 c 257
 510.25 21.5 l 257
 516.127 24.8439 533.462 29 546.75 29 c 256
 582.486 29 597 77 597 123 c 256
 597 288 469 348 358 348 c 256
 294 348 244 330 214 304 c 257
 244 312 277.667 314 305 314 c 256
 425 314 515 250 515 126 c 256
 515 67.8472 482 -1 397 -1 c 256
 351 -1 317.333 20.3333 296 63 c 257
 278.667 21.6667 246.021 -1 204 -1 c 256
 117 -1 120 73 87 73 c 256
 64.6748 73 52 51 49 11 c 257
 21 22 l 257
91 143 m 257
 103 153 115 160 129 160 c 256
 161 160 172 140 212 140 c 256
 258 140 280 157 280 214 c 256
 280 216.209 280.041 214.305 280 216 c 257
 308 216 l 257
 307.964 214.664 308 216.33 308 215 c 256
 308 154 332 140 377 140 c 256
 418 140 443 169 443 204 c 256
 443 246 402 287 301 287 c 256
 244.333 287 204.667 280 180 268 c 257
 162.667 253.333 146.522 234.996 131 212 c 256
 104 172 101 163 91 143 c 257
EndSplineSet
EndChar

StartChar: si_KUu
Encoding: 94 -1 174
GlifName: si_K_U_u
Width: 746
VWidth: 0
GlyphClass: 2
Flags: W
LayerCount: 2
Back
Fore
SplineSet
445.946 -129 m 256
 445.946 -93.3486 474.934 -72 509.946 -67 c 257
 454.946 -39 l 257
 540.196 -14.5 l 257
 504 -0.5 l 257
 504 22 l 257
 602.196 -15 l 257
 517.696 -43.25 l 257
 577.946 -76 l 257
 549.946 -83 495.946 -83.4658 495.946 -104.5 c 256
 495.946 -120.922 527.87 -129 569.946 -129 c 256
 623.946 -129 668.175 -112.984 668.175 -82 c 256
 668.175 -77 667.442 -66.9287 662.196 -59 c 257
 696.946 -59 l 257
 700.537 -71.1182 701.25 -82.833 701.25 -94 c 256
 701.25 -161 649.946 -205 567.946 -205 c 256
 509.946 -205 445.946 -187.466 445.946 -129 c 256
EndSplineSet
Refer: 438 3482 N 1 0 0 1 0 0 2
EndChar

StartChar: si_KV.halant
Encoding: 445 -1 175
GlifName: si_K_V_.halant
Width: 1061
VWidth: 0
GlyphClass: 2
Flags: W
LayerCount: 2
Back
Fore
SplineSet
21 22 m 257
 28.6963 91.2695 74.4521 184.165 109 232 c 256
 135 268 148 280 171 304 c 257
 180 314 191.25 331 191.25 352 c 256
 191.25 371 182 386 158 386 c 256
 144 386 128.438 378.533 124 363 c 256
 118 342 122 342 113 323 c 256
 104.732 305.546 87 297 72 297 c 256
 35 297 29 328 29 340 c 256
 29 394.099 79.3633 433 136 433 c 256
 188.348 433 220 399 220 358 c 256
 220 352 220 349 219 341 c 257
 255.113 366.766 302.488 392.006 367 411 c 256
 433.129 432.139 507.859 436 551.25 436 c 256
 620.209 436 655.331 429.207 673 425 c 257
 667.583 424.159 606.053 405.082 597 404 c 257
 581.982 404.563 561.476 406 549 406 c 256
 490.313 406 439.896 397.343 411.5 391 c 256
 324.891 372.933 262.161 335.075 220.25 306.25 c 257
 248.415 312.696 277.667 314 305 314 c 256
 425 314 515 250 515 126 c 256
 515 67.8477 482 -1 397 -1 c 256
 351 -1 317.333 20.333 296 63 c 257
 278.667 21.667 246.021 -1 204 -1 c 256
 117 -1 120 73 87 73 c 256
 64.6748 73 52 51 49 11 c 257
 21 22 l 257
91 143 m 257
 103 153 115 160 129 160 c 256
 161 160 172 140 212 140 c 256
 258 140 280 157 280 214 c 256
 280 216.209 280.041 214.305 280 216 c 257
 308 216 l 257
 307.964 214.664 308 216.33 308 215 c 256
 308 154 332 140 377 140 c 256
 418 140 443 169 443 204 c 256
 443 246 402 287 301 287 c 256
 244.333 287 204.667 280 180 268 c 257
 162.667 253.333 146.522 234.996 131 212 c 256
 104 172 101 163 91 143 c 257
497 165 m 256
 497 250 562 304 663 304 c 258
 720 304 l 258
 720.082 306.041 720.086 306.041 720.086 308 c 256
 720.086 358 688 387 655 387 c 256
 621 387 610 371 604.5 355 c 256
 597.951 335.948 586 319 560 319 c 256
 537 319 520 333.368 520 359 c 256
 520 406 570 431.5 625 431.5 c 256
 713 431.5 756.146 376 756.146 290 c 256
 756.146 286.722 756.101 280.388 756 277 c 258
 675 277 l 258
 601 277 565 250 565 213 c 256
 565 151 660 140 734 140 c 256
 885.917 140 948.943 210.985 947.991 315.755 c 256
 946.98 426.952 870.779 491.75 723 491.75 c 256
 647 491.75 584.25 475 503.25 451 c 257
 503.25 484 l 257
 535.25 492 584.75 499 584.75 508 c 256
 584.75 520 556.75 520.304 556.75 546 c 256
 556.75 583 622.814 629 729.25 629 c 256
 932.162 629 992.25 490 1004.25 356 c 256
 1010.51 328.237 1012 305.4 1012 274 c 256
 1012 114 913.544 0 731 0 c 256
 610 0 497 46 497 165 c 256
605.25 538 m 256
 605.25 526 624.25 526 624.25 515 c 256
 624.25 513 623.25 510 621.25 508 c 257
 653.129 514.684 679.675 519 726 519 c 256
 834 519 904.326 489.188 959.75 425.25 c 257
 926.867 535.95 847 574.25 731 574.25 c 256
 659 574.25 605.25 557.539 605.25 538 c 256
EndSplineSet
EndChar

StartChar: si_KVI
Encoding: 446 -1 176
GlifName: si_K_V_I_
Width: 1061
VWidth: 0
GlyphClass: 2
Flags: W
LayerCount: 2
Back
Fore
SplineSet
21 22 m 257
 28.6963 91.2695 74.4521 184.165 109 232 c 256
 135 268 148 280 171 304 c 257
 180 314 191.25 331 191.25 352 c 256
 191.25 371 182 386 158 386 c 256
 144 386 128.438 378.533 124 363 c 256
 118 342 122 342 113 323 c 256
 104.732 305.546 87 297 72 297 c 256
 35 297 29 328 29 340 c 256
 29 394.099 79.3633 433 136 433 c 256
 188.348 433 220 399 220 358 c 256
 220 352 220 349 219 341 c 257
 255.113 366.766 302.488 392.006 367 411 c 256
 433.129 432.139 507.859 436 551.25 436 c 256
 620.209 436 655.331 429.207 673 425 c 257
 667.583 424.159 606.053 405.082 597 404 c 257
 581.982 404.563 561.476 406 549 406 c 256
 490.313 406 439.896 397.343 411.5 391 c 256
 324.891 372.933 262.161 335.075 220.25 306.25 c 257
 248.415 312.696 277.667 314 305 314 c 256
 425 314 515 250 515 126 c 256
 515 67.8477 482 -1 397 -1 c 256
 351 -1 317.333 20.333 296 63 c 257
 278.667 21.667 246.021 -1 204 -1 c 256
 117 -1 120 73 87 73 c 256
 64.6748 73 52 51 49 11 c 257
 21 22 l 257
91 143 m 257
 103 153 115 160 129 160 c 256
 161 160 172 140 212 140 c 256
 258 140 280 157 280 214 c 256
 280 216.209 280.041 214.305 280 216 c 257
 308 216 l 257
 307.964 214.664 308 216.33 308 215 c 256
 308 154 332 140 377 140 c 256
 418 140 443 169 443 204 c 256
 443 246 402 287 301 287 c 256
 244.333 287 204.667 280 180 268 c 257
 162.667 253.333 146.522 234.996 131 212 c 256
 104 172 101 163 91 143 c 257
EndSplineSet
Refer: 396 -1 N 1 0 0 1 465 0 2
EndChar

StartChar: si_KVIi
Encoding: 447 -1 177
GlifName: si_K_V_I_i
Width: 1061
VWidth: 0
GlyphClass: 2
Flags: W
LayerCount: 2
Back
Fore
SplineSet
21 22 m 257
 28.6963 91.2695 74.4521 184.165 109 232 c 256
 135 268 148 280 171 304 c 257
 180 314 191.25 331 191.25 352 c 256
 191.25 371 182 386 158 386 c 256
 144 386 128.438 378.533 124 363 c 256
 118 342 122 342 113 323 c 256
 104.732 305.546 87 297 72 297 c 256
 35 297 29 328 29 340 c 256
 29 394.099 79.3633 433 136 433 c 256
 188.348 433 220 399 220 358 c 256
 220 352 220 349 219 341 c 257
 255.113 366.766 302.488 392.006 367 411 c 256
 433.129 432.139 507.859 436 551.25 436 c 256
 620.209 436 655.331 429.207 673 425 c 257
 667.583 424.159 606.053 405.082 597 404 c 257
 581.982 404.563 561.476 406 549 406 c 256
 490.313 406 439.896 397.343 411.5 391 c 256
 324.891 372.933 262.161 335.075 220.25 306.25 c 257
 248.415 312.696 277.667 314 305 314 c 256
 425 314 515 250 515 126 c 256
 515 67.8477 482 -1 397 -1 c 256
 351 -1 317.333 20.333 296 63 c 257
 278.667 21.667 246.021 -1 204 -1 c 256
 117 -1 120 73 87 73 c 256
 64.6748 73 52 51 49 11 c 257
 21 22 l 257
91 143 m 257
 103 153 115 160 129 160 c 256
 161 160 172 140 212 140 c 256
 258 140 280 157 280 214 c 256
 280 216.209 280.041 214.305 280 216 c 257
 308 216 l 257
 307.964 214.664 308 216.33 308 215 c 256
 308 154 332 140 377 140 c 256
 418 140 443 169 443 204 c 256
 443 246 402 287 301 287 c 256
 244.333 287 204.667 280 180 268 c 257
 162.667 253.333 146.522 234.996 131 212 c 256
 104 172 101 163 91 143 c 257
EndSplineSet
Refer: 397 -1 N 1 0 0 1 465 0 2
EndChar

StartChar: si_KVU
Encoding: 448 -1 178
GlifName: si_K_V_U_
Width: 1061
VWidth: 0
GlyphClass: 2
Flags: W
LayerCount: 2
Back
Fore
SplineSet
509 -142.5 m 256
 509 -90.4912 555.293 -50.5 610.5 -50.5 c 256
 652.406 -50.5 689.75 -74.1416 704.5 -110 c 257
 671.75 -121.5 l 257
 664.926 -104.358 643.5 -81.75 610.5 -81.75 c 256
 573.796 -81.75 544.5 -109.716 544.5 -142.5 c 256
 544.5 -171.663 566.248 -192.5 636 -192.5 c 258
 967.75 -192.5 l 257
 967.75 128 l 257
 1003 219 l 257
 1003 -235 l 257
 614.5 -235 l 258
 534.957 -235 509 -186.092 509 -142.5 c 256
EndSplineSet
Refer: 180 -1 N 1 0 0 1 0 0 2
EndChar

StartChar: si_KVUu
Encoding: 449 -1 179
GlifName: si_K_V_U_u
Width: 1061
VWidth: 0
GlyphClass: 2
Flags: W
LayerCount: 2
Back
Fore
SplineSet
510.75 -138 m 256
 510.75 -80 559.75 -40 612.75 -40 c 256
 654.75 -40 687.083 -55 709.75 -91 c 257
 676.75 -102 l 257
 665.434 -84.6992 646.75 -70 617.75 -70 c 256
 578.75 -70 553.75 -95.0762 553.75 -120 c 256
 553.75 -151.995 582.565 -167 616.75 -167 c 256
 692.965 -167 749.201 -114.5 849.25 -114.5 c 256
 895.835 -114.5 940.75 -133.75 967.75 -165.75 c 257
 967.75 152 l 257
 1002.75 212 l 257
 1002.75 -231 l 257
 977.25 -231 l 257
 962.25 -195 922.199 -146.25 859.25 -146.25 c 256
 768.25 -146.25 719.75 -237 621.75 -237 c 256
 566.75 -237 510.75 -206 510.75 -138 c 256
EndSplineSet
Refer: 180 -1 N 1 0 0 1 0 0 2
EndChar

StartChar: si_KVa
Encoding: 430 -1 180
GlifName: si_K_V_a
Width: 1061
VWidth: 0
GlyphClass: 2
Flags: W
LayerCount: 2
Back
Fore
SplineSet
21 22 m 257
 28.6963 91.2695 74.4521 184.165 109 232 c 256
 135 268 148 280 171 304 c 257
 180 314 191.25 331 191.25 352 c 256
 191.25 371 182 386 158 386 c 256
 144 386 128.438 378.533 124 363 c 256
 118 342 122 342 113 323 c 256
 104.732 305.546 87 297 72 297 c 256
 35 297 29 328 29 340 c 256
 29 394.099 79.3633 433 136 433 c 256
 188.348 433 220 399 220 358 c 256
 220 352 220 349 219 341 c 257
 255.113 366.766 302.488 392.006 367 411 c 256
 433.129 432.139 507.859 436 551.25 436 c 256
 620.209 436 655.331 429.207 673 425 c 257
 667.583 424.159 606.053 405.082 597 404 c 257
 581.982 404.563 561.476 406 549 406 c 256
 490.313 406 439.896 397.343 411.5 391 c 256
 324.891 372.933 262.161 335.075 220.25 306.25 c 257
 248.415 312.696 277.667 314 305 314 c 256
 425 314 515 250 515 126 c 256
 515 67.8477 482 -1 397 -1 c 256
 351 -1 317.333 20.333 296 63 c 257
 278.667 21.667 246.021 -1 204 -1 c 256
 117 -1 120 73 87 73 c 256
 64.6748 73 52 51 49 11 c 257
 21 22 l 257
497.75 165 m 256
 497.75 250 562.75 304 663.75 304 c 258
 720.75 304 l 257
 720.832 306.041 720.836 306.041 720.836 308 c 256
 720.836 358 688.75 387 655.75 387 c 256
 621.75 387 610.75 371 605.25 355 c 256
 598.701 335.948 586.75 319 560.75 319 c 256
 537.75 319 520.75 333.368 520.75 359 c 256
 520.75 406 570.75 431.5 625.75 431.5 c 256
 713.75 431.5 756.896 376 756.896 290 c 256
 756.896 286.722 756.851 280.388 756.75 277 c 257
 675.75 277 l 258
 601.75 277 565.75 250 565.75 213 c 256
 565.75 151 660.75 140 734.75 140 c 256
 887.75 140 955.75 211 955.75 317 c 256
 955.75 436 875.248 551 740.75 551 c 256
 661.417 551 600.75 522 556.75 470 c 257
 521.75 470 l 257
 570.417 540 642.75 577 740.75 577 c 256
 900.901 577 1012.75 443 1012.75 274 c 256
 1012.75 114 914.75 0 731.75 0 c 256
 610.75 0 497.75 46 497.75 165 c 256
91 143 m 257
 103 153 115 160 129 160 c 256
 161 160 172 140 212 140 c 256
 258 140 280 157 280 214 c 256
 280 216.209 280.041 214.305 280 216 c 257
 308 216 l 257
 307.964 214.664 308 216.33 308 215 c 256
 308 154 332 140 377 140 c 256
 418 140 443 169 443 204 c 256
 443 246 402 287 301 287 c 256
 244.333 287 204.667 280 180 268 c 257
 162.667 253.333 146.522 234.996 131 212 c 256
 104 172 101 163 91 143 c 257
EndSplineSet
EndChar

StartChar: si_Kh.halant
Encoding: 100 -1 182
GlifName: si_K_h.halant
Width: 630
VWidth: 0
GlyphClass: 2
Flags: W
LayerCount: 2
Back
Fore
SplineSet
144 538 m 256
 144 526 163 526 163 515 c 256
 163 513 162 510 160 508 c 257
 193 514 232.675 519 279 519 c 256
 387 519 469.076 489.188 524.5 425.25 c 257
 491.618 535.951 400 574.25 284 574.25 c 256
 212 574.25 144 557.539 144 538 c 256
42 440 m 257
 42 473 l 257
 74 485 123.5 499 123.5 508 c 256
 123.5 520 95.5 520.304 95.5 546 c 256
 95.5 583 163 629 278 629 c 256
 486 629 557 490 569 356 c 257
 577.289 332.716 582 292.246 582 265.75 c 257
 529.75 293 l 257
 529.75 402.237 452.807 491.75 276 491.75 c 256
 200 491.75 123 478 42 440 c 257
93.334 73 m 256
 93.334 49.0869 113.087 29.334 137 29.334 c 256
 160.913 29.334 180.666 49.0869 180.666 73 c 256
 180.666 96.9131 160.913 116.666 137 116.666 c 256
 113.087 116.666 93.334 96.9131 93.334 73 c 256
32 183 m 256
 32 322 123.839 396 240 396 c 256
 333 396 413 343.145 413 258 c 256
 413 201 388 172 381 161 c 257
 384.333 161.667 387.333 162 390 162 c 256
 419 162 410 136 444 136 c 256
 504 136 529.75 231.124 529.75 295 c 257
 582 267.75 l 257
 582 154.388 524 0 416 0 c 256
 352 0 348 54 321 54 c 256
 308 54 284 34 242 -21 c 257
 202 -18 l 257
 215.333 -4.66699 244.086 34.0254 286 84 c 256
 338 146 347 180 347 200 c 256
 347 235 328 275 236 275 c 256
 149 275 70 225 70 140 c 256
 70 128 70 118 73 106 c 257
 82 132 107 148 137 148 c 256
 179 148 212 120 212 74 c 256
 212 37 182 -1 141 -1 c 256
 56 -1 32 108 32 183 c 256
EndSplineSet
EndChar

StartChar: si_KhI
Encoding: 101 -1 183
GlifName: si_K_hI_
Width: 630
VWidth: 0
GlyphClass: 2
Flags: W
LayerCount: 2
Back
Fore
SplineSet
75 562 m 256
 75 652 206 670 306 670 c 256
 442 670 552 639 552 554 c 256
 552 502 498 480 464 474 c 257
 414 490 l 257
 450 491 477 504.567 477 527 c 256
 477 564.308 414 581 306 581 c 256
 230.344 581 134 573.211 134 538 c 256
 134 511.059 182 508 284 504 c 256
 348.869 501.456 443 499 498 459 c 256
 547.146 423.257 583.75 356 583.75 274 c 257
 531.75 302.75 l 257
 531.75 329.472 526.111 382.724 496 416.5 c 256
 449.998 468.102 386.019 470.325 285 476 c 256
 196 481 75 476 75 562 c 256
93.334 73 m 256
 93.334 49.0869 113.087 29.334 137 29.334 c 256
 160.913 29.334 180.666 49.0869 180.666 73 c 256
 180.666 96.9131 160.913 116.666 137 116.666 c 256
 113.087 116.666 93.334 96.9131 93.334 73 c 256
32 183 m 256
 32 322 123.839 396 240 396 c 256
 333 396 413 343.145 413 258 c 256
 413 201 388 172 381 161 c 257
 384.333 161.667 387.333 162 390 162 c 256
 419 162 410 136 444 136 c 256
 504 136 531.75 218.613 531.75 305.75 c 257
 552.291 299.691 567.052 288.3 583.75 278 c 257
 583.75 151.879 524 0 416 0 c 256
 352 0 348 54 321 54 c 256
 308 54 284 34 242 -21 c 257
 202 -18 l 257
 215.333 -4.66699 244.086 34.0254 286 84 c 256
 338 146 347 180 347 200 c 256
 347 235 328 275 236 275 c 256
 149 275 70 225 70 140 c 256
 70 128 70 118 73 106 c 257
 82 132 107 148 137 148 c 256
 179 148 212 120 212 74 c 256
 212 37 182 -1 141 -1 c 256
 56 -1 32 108 32 183 c 256
EndSplineSet
EndChar

StartChar: si_KhIi
Encoding: 102 -1 184
GlifName: si_K_hI_i
Width: 630
VWidth: 0
GlyphClass: 2
Flags: W
LayerCount: 2
Back
Fore
SplineSet
400.897 538.75 m 256
 400.897 509.169 427.526 485.377 460 485.377 c 256
 492.474 485.377 519.103 509.169 519.103 538.75 c 256
 519.103 568.331 492.474 592.123 460 592.123 c 256
 427.526 592.123 400.897 568.331 400.897 538.75 c 256
75 562 m 256
 75 652 205.75 670 306 670 c 256
 442 670 552 640.054 552 541.75 c 256
 552 488.75 504 457.75 460 457.75 c 256
 416 457.75 368 488.75 368 541.75 c 256
 368 565.35 378.022 578.985 382 584 c 257
 373.659 585.578 340.482 588.5 304 588.5 c 256
 228.344 588.5 130 580.369 130 540 c 256
 130 510.989 182 508 284 504 c 256
 348.869 501.456 443 499 498 459 c 256
 547.146 423.257 583.75 356 583.75 274 c 257
 531.75 302.75 l 257
 531.75 329.472 526.111 382.724 496 416.5 c 256
 449.998 468.102 386.019 470.325 285 476 c 256
 196 481 75 476 75 562 c 256
93.334 73 m 256
 93.334 49.0869 113.087 29.334 137 29.334 c 256
 160.913 29.334 180.666 49.0869 180.666 73 c 256
 180.666 96.9131 160.913 116.666 137 116.666 c 256
 113.087 116.666 93.334 96.9131 93.334 73 c 256
32 183 m 256
 32 322 123.839 396 240 396 c 256
 333 396 413 343.145 413 258 c 256
 413 201 388 172 381 161 c 257
 384.333 161.667 387.333 162 390 162 c 256
 419 162 410 136 444 136 c 256
 504 136 531.75 218.613 531.75 305.75 c 257
 552.291 299.691 567.052 288.3 583.75 278 c 257
 583.75 151.879 524 0 416 0 c 256
 352 0 348 54 321 54 c 256
 308 54 284 34 242 -21 c 257
 202 -18 l 257
 215.333 -4.66699 244.086 34.0254 286 84 c 256
 338 146 347 180 347 200 c 256
 347 235 328 275 236 275 c 256
 149 275 70 225 70 140 c 256
 70 128 70 118 73 106 c 257
 82 132 107 148 137 148 c 256
 179 148 212 120 212 74 c 256
 212 37 182 -1 141 -1 c 256
 56 -1 32 108 32 183 c 256
EndSplineSet
EndChar

